M48
; DRILL file {KiCad 9.0.7} date 2026-02-22T19:15:49+0100
; FORMAT={-:-/ absolute / metric / decimal}
; #@! TF.CreationDate,2026-02-22T19:15:49+01:00
; #@! TF.GenerationSoftware,Kicad,Pcbnew,9.0.7
; #@! TF.FileFunction,Plated,1,2,PTH
FMAT,2
METRIC
; #@! TA.AperFunction,Plated,PTH,ViaDrill
T1C0.200
; #@! TA.AperFunction,Plated,PTH,ComponentDrill
T2C0.200
; #@! TA.AperFunction,Plated,PTH,ViaDrill
T3C0.300
; #@! TA.AperFunction,Plated,PTH,ComponentDrill
T4C0.600
; #@! TA.AperFunction,Plated,PTH,ComponentDrill
T5C0.650
; #@! TA.AperFunction,Plated,PTH,ComponentDrill
T6C0.700
; #@! TA.AperFunction,Plated,PTH,ComponentDrill
T7C0.900
; #@! TA.AperFunction,Plated,PTH,ComponentDrill
T8C1.000
; #@! TA.AperFunction,Plated,PTH,ComponentDrill
T9C1.100
; #@! TA.AperFunction,Plated,PTH,ComponentDrill
T10C1.500
; #@! TA.AperFunction,Plated,PTH,ComponentDrill
T11C2.200
%
G90
G05
T1
X167.0Y-91.5
X171.0Y-92.0
T2
X146.625Y-130.9
X146.625Y-132.3
X147.825Y-130.9
X147.825Y-132.3
X149.025Y-130.9
X149.025Y-132.3
T3
X125.0Y-113.0
X126.5Y-128.5
X128.5Y-135.5
X128.5Y-137.5
X130.0Y-72.375
X130.0Y-95.5
X130.0Y-122.5
X130.5Y-89.875
X131.0Y-66.5
X131.0Y-128.0
X132.0Y-114.5
X133.5Y-73.0
X133.5Y-77.0
X133.5Y-80.0
X133.5Y-95.925
X133.5Y-99.0
X134.0Y-72.425
X134.0Y-96.5
X134.5Y-93.0
X134.5Y-115.5
X139.0Y-78.0
X139.5Y-69.5
X139.5Y-73.625
X140.0Y-75.5
X140.0Y-84.5
X140.0Y-94.0
X142.5Y-126.0
X144.0Y-68.5
X147.0Y-110.5
X147.0Y-113.5
X147.5Y-102.5
X147.5Y-127.0
X148.0Y-85.0
X148.012Y-136.901
X148.5Y-127.575
X149.0Y-112.0
X150.0Y-69.5
X151.5Y-125.5
X152.0Y-68.5
X152.5Y-111.5
X153.0Y-101.0
X153.0Y-104.5
X153.5Y-108.5
X154.0Y-87.5
X154.0Y-107.5
X154.5Y-136.5
X155.5Y-136.5
X156.2Y-136.5
X157.5Y-131.0
X158.434Y-73.066
X159.0Y-72.5
X159.0Y-89.5
X159.0Y-91.5
X159.0Y-110.0
X159.5Y-76.5
X159.5Y-80.0
X159.575Y-70.0
X160.0Y-112.0
X162.0Y-128.0
X163.5Y-69.5
X163.5Y-80.0
X165.5Y-68.0
X165.5Y-71.5
X165.5Y-132.075
X166.85Y-92.7
X169.0Y-112.5
X169.5Y-131.5
X172.5Y-106.0
X173.0Y-108.5
X173.0Y-112.0
X178.0Y-99.5
X178.0Y-106.0
T5
X168.95Y-88.0
X168.95Y-95.5
T6
X166.8Y-89.35
X166.8Y-94.15
X171.1Y-89.35
X171.1Y-94.15
T7
X123.0Y-76.0
X123.0Y-78.0
X123.0Y-80.0
X123.0Y-99.0
X123.0Y-101.0
X123.0Y-103.0
X123.0Y-122.0
X123.0Y-124.0
X123.0Y-126.0
T8
X136.0Y-126.0
X136.0Y-128.5
X141.22Y-63.0
X143.76Y-63.0
X146.3Y-63.0
X148.84Y-63.0
X151.38Y-63.0
X153.5Y-118.25
X153.92Y-63.0
X156.04Y-118.25
X156.46Y-63.0
X158.58Y-118.25
X159.0Y-63.0
X161.12Y-118.25
X163.66Y-118.25
X166.0Y-126.0
X166.0Y-128.5
X166.2Y-118.25
X168.74Y-118.25
X171.28Y-118.25
T9
X140.5Y-104.75
X140.5Y-111.25
X145.0Y-104.75
X145.0Y-111.25
X167.0Y-70.5
X167.0Y-77.0
X171.5Y-70.5
X171.5Y-77.0
T10
X123.0Y-73.9
X123.0Y-82.1
X123.0Y-96.9
X123.0Y-105.1
X123.0Y-119.9
X123.0Y-128.1
T11
X123.0Y-63.0
X123.0Y-137.0
X177.0Y-63.0
X177.0Y-137.0
T4
G00X133.68Y-133.9
M15
G01X133.68Y-134.5
M16
G05
G00X133.68Y-137.7
M15
G01X133.68Y-138.3
M16
G05
G00X142.32Y-133.9
M15
G01X142.32Y-134.5
M16
G05
G00X142.32Y-137.7
M15
G01X142.32Y-138.3
M16
G05
M30
