%TF.GenerationSoftware,KiCad,Pcbnew,9.0.7*%
%TF.CreationDate,2026-02-22T19:15:54+01:00*%
%TF.ProjectId,galaxy_A5_dual_node,67616c61-7879-45f4-9135-5f6475616c5f,rev?*%
%TF.SameCoordinates,Original*%
%TF.FileFunction,Legend,Top*%
%TF.FilePolarity,Positive*%
%FSLAX46Y46*%
G04 Gerber Fmt 4.6, Leading zero omitted, Abs format (unit mm)*
G04 Created by KiCad (PCBNEW 9.0.7) date 2026-02-22 19:15:54*
%MOMM*%
%LPD*%
G01*
G04 APERTURE LIST*
%ADD10C,0.200000*%
%ADD11C,0.300000*%
%ADD12C,0.150000*%
%ADD13C,0.120000*%
%ADD14C,0.250000*%
%ADD15C,0.100000*%
G04 APERTURE END LIST*
D10*
X139629790Y-128758898D02*
X139591695Y-128835088D01*
X139591695Y-128835088D02*
X139591695Y-128949374D01*
X139591695Y-128949374D02*
X139629790Y-129063660D01*
X139629790Y-129063660D02*
X139705980Y-129139850D01*
X139705980Y-129139850D02*
X139782171Y-129177945D01*
X139782171Y-129177945D02*
X139934552Y-129216041D01*
X139934552Y-129216041D02*
X140048838Y-129216041D01*
X140048838Y-129216041D02*
X140201219Y-129177945D01*
X140201219Y-129177945D02*
X140277409Y-129139850D01*
X140277409Y-129139850D02*
X140353600Y-129063660D01*
X140353600Y-129063660D02*
X140391695Y-128949374D01*
X140391695Y-128949374D02*
X140391695Y-128873183D01*
X140391695Y-128873183D02*
X140353600Y-128758898D01*
X140353600Y-128758898D02*
X140315504Y-128720802D01*
X140315504Y-128720802D02*
X140048838Y-128720802D01*
X140048838Y-128720802D02*
X140048838Y-128873183D01*
X140391695Y-128377945D02*
X139591695Y-128377945D01*
X139591695Y-128377945D02*
X140391695Y-127920802D01*
X140391695Y-127920802D02*
X139591695Y-127920802D01*
X140391695Y-127539850D02*
X139591695Y-127539850D01*
X139591695Y-127539850D02*
X139591695Y-127349374D01*
X139591695Y-127349374D02*
X139629790Y-127235088D01*
X139629790Y-127235088D02*
X139705980Y-127158898D01*
X139705980Y-127158898D02*
X139782171Y-127120803D01*
X139782171Y-127120803D02*
X139934552Y-127082707D01*
X139934552Y-127082707D02*
X140048838Y-127082707D01*
X140048838Y-127082707D02*
X140201219Y-127120803D01*
X140201219Y-127120803D02*
X140277409Y-127158898D01*
X140277409Y-127158898D02*
X140353600Y-127235088D01*
X140353600Y-127235088D02*
X140391695Y-127349374D01*
X140391695Y-127349374D02*
X140391695Y-127539850D01*
X140086933Y-126130326D02*
X140086933Y-125520803D01*
X140391695Y-125825564D02*
X139782171Y-125825564D01*
X169972647Y-128911279D02*
X170010742Y-128796993D01*
X170010742Y-128796993D02*
X170048838Y-128758898D01*
X170048838Y-128758898D02*
X170125028Y-128720802D01*
X170125028Y-128720802D02*
X170239314Y-128720802D01*
X170239314Y-128720802D02*
X170315504Y-128758898D01*
X170315504Y-128758898D02*
X170353600Y-128796993D01*
X170353600Y-128796993D02*
X170391695Y-128873183D01*
X170391695Y-128873183D02*
X170391695Y-129177945D01*
X170391695Y-129177945D02*
X169591695Y-129177945D01*
X169591695Y-129177945D02*
X169591695Y-128911279D01*
X169591695Y-128911279D02*
X169629790Y-128835088D01*
X169629790Y-128835088D02*
X169667885Y-128796993D01*
X169667885Y-128796993D02*
X169744076Y-128758898D01*
X169744076Y-128758898D02*
X169820266Y-128758898D01*
X169820266Y-128758898D02*
X169896457Y-128796993D01*
X169896457Y-128796993D02*
X169934552Y-128835088D01*
X169934552Y-128835088D02*
X169972647Y-128911279D01*
X169972647Y-128911279D02*
X169972647Y-129177945D01*
X170086933Y-128377945D02*
X170086933Y-127768422D01*
X169972647Y-125901755D02*
X170010742Y-125787469D01*
X170010742Y-125787469D02*
X170048838Y-125749374D01*
X170048838Y-125749374D02*
X170125028Y-125711278D01*
X170125028Y-125711278D02*
X170239314Y-125711278D01*
X170239314Y-125711278D02*
X170315504Y-125749374D01*
X170315504Y-125749374D02*
X170353600Y-125787469D01*
X170353600Y-125787469D02*
X170391695Y-125863659D01*
X170391695Y-125863659D02*
X170391695Y-126168421D01*
X170391695Y-126168421D02*
X169591695Y-126168421D01*
X169591695Y-126168421D02*
X169591695Y-125901755D01*
X169591695Y-125901755D02*
X169629790Y-125825564D01*
X169629790Y-125825564D02*
X169667885Y-125787469D01*
X169667885Y-125787469D02*
X169744076Y-125749374D01*
X169744076Y-125749374D02*
X169820266Y-125749374D01*
X169820266Y-125749374D02*
X169896457Y-125787469D01*
X169896457Y-125787469D02*
X169934552Y-125825564D01*
X169934552Y-125825564D02*
X169972647Y-125901755D01*
X169972647Y-125901755D02*
X169972647Y-126168421D01*
X170086933Y-125368421D02*
X170086933Y-124758898D01*
X170391695Y-125063659D02*
X169782171Y-125063659D01*
D11*
X165054510Y-122015114D02*
X165268796Y-122086542D01*
X165268796Y-122086542D02*
X165340225Y-122157971D01*
X165340225Y-122157971D02*
X165411653Y-122300828D01*
X165411653Y-122300828D02*
X165411653Y-122515114D01*
X165411653Y-122515114D02*
X165340225Y-122657971D01*
X165340225Y-122657971D02*
X165268796Y-122729400D01*
X165268796Y-122729400D02*
X165125939Y-122800828D01*
X165125939Y-122800828D02*
X164554510Y-122800828D01*
X164554510Y-122800828D02*
X164554510Y-121300828D01*
X164554510Y-121300828D02*
X165054510Y-121300828D01*
X165054510Y-121300828D02*
X165197368Y-121372257D01*
X165197368Y-121372257D02*
X165268796Y-121443685D01*
X165268796Y-121443685D02*
X165340225Y-121586542D01*
X165340225Y-121586542D02*
X165340225Y-121729400D01*
X165340225Y-121729400D02*
X165268796Y-121872257D01*
X165268796Y-121872257D02*
X165197368Y-121943685D01*
X165197368Y-121943685D02*
X165054510Y-122015114D01*
X165054510Y-122015114D02*
X164554510Y-122015114D01*
X165983082Y-122372257D02*
X166697368Y-122372257D01*
X165840225Y-122800828D02*
X166340225Y-121300828D01*
X166340225Y-121300828D02*
X166840225Y-122800828D01*
X167125939Y-121300828D02*
X167983082Y-121300828D01*
X167554510Y-122800828D02*
X167554510Y-121300828D01*
X135554510Y-122800828D02*
X135554510Y-121300828D01*
X135554510Y-121300828D02*
X136125939Y-121300828D01*
X136125939Y-121300828D02*
X136268796Y-121372257D01*
X136268796Y-121372257D02*
X136340225Y-121443685D01*
X136340225Y-121443685D02*
X136411653Y-121586542D01*
X136411653Y-121586542D02*
X136411653Y-121800828D01*
X136411653Y-121800828D02*
X136340225Y-121943685D01*
X136340225Y-121943685D02*
X136268796Y-122015114D01*
X136268796Y-122015114D02*
X136125939Y-122086542D01*
X136125939Y-122086542D02*
X135554510Y-122086542D01*
X137054510Y-122800828D02*
X137054510Y-121300828D01*
X137054510Y-122015114D02*
X137911653Y-122015114D01*
X137911653Y-122800828D02*
X137911653Y-121300828D01*
X138911654Y-121300828D02*
X139197368Y-121300828D01*
X139197368Y-121300828D02*
X139340225Y-121372257D01*
X139340225Y-121372257D02*
X139483082Y-121515114D01*
X139483082Y-121515114D02*
X139554511Y-121800828D01*
X139554511Y-121800828D02*
X139554511Y-122300828D01*
X139554511Y-122300828D02*
X139483082Y-122586542D01*
X139483082Y-122586542D02*
X139340225Y-122729400D01*
X139340225Y-122729400D02*
X139197368Y-122800828D01*
X139197368Y-122800828D02*
X138911654Y-122800828D01*
X138911654Y-122800828D02*
X138768797Y-122729400D01*
X138768797Y-122729400D02*
X138625939Y-122586542D01*
X138625939Y-122586542D02*
X138554511Y-122300828D01*
X138554511Y-122300828D02*
X138554511Y-121800828D01*
X138554511Y-121800828D02*
X138625939Y-121515114D01*
X138625939Y-121515114D02*
X138768797Y-121372257D01*
X138768797Y-121372257D02*
X138911654Y-121300828D01*
X140197368Y-122800828D02*
X140197368Y-121300828D01*
X140197368Y-121300828D02*
X141054511Y-122800828D01*
X141054511Y-122800828D02*
X141054511Y-121300828D01*
X141768797Y-122015114D02*
X142268797Y-122015114D01*
X142483083Y-122800828D02*
X141768797Y-122800828D01*
X141768797Y-122800828D02*
X141768797Y-121300828D01*
X141768797Y-121300828D02*
X142483083Y-121300828D01*
D10*
X160677945Y-65108304D02*
X160677945Y-65908304D01*
X160677945Y-65908304D02*
X160487469Y-65908304D01*
X160487469Y-65908304D02*
X160373183Y-65870209D01*
X160373183Y-65870209D02*
X160296993Y-65794019D01*
X160296993Y-65794019D02*
X160258898Y-65717828D01*
X160258898Y-65717828D02*
X160220802Y-65565447D01*
X160220802Y-65565447D02*
X160220802Y-65451161D01*
X160220802Y-65451161D02*
X160258898Y-65298780D01*
X160258898Y-65298780D02*
X160296993Y-65222590D01*
X160296993Y-65222590D02*
X160373183Y-65146400D01*
X160373183Y-65146400D02*
X160487469Y-65108304D01*
X160487469Y-65108304D02*
X160677945Y-65108304D01*
X159877945Y-65108304D02*
X159877945Y-65908304D01*
X159344612Y-65908304D02*
X159192231Y-65908304D01*
X159192231Y-65908304D02*
X159116041Y-65870209D01*
X159116041Y-65870209D02*
X159039850Y-65794019D01*
X159039850Y-65794019D02*
X159001755Y-65641638D01*
X159001755Y-65641638D02*
X159001755Y-65374971D01*
X159001755Y-65374971D02*
X159039850Y-65222590D01*
X159039850Y-65222590D02*
X159116041Y-65146400D01*
X159116041Y-65146400D02*
X159192231Y-65108304D01*
X159192231Y-65108304D02*
X159344612Y-65108304D01*
X159344612Y-65108304D02*
X159420803Y-65146400D01*
X159420803Y-65146400D02*
X159496993Y-65222590D01*
X159496993Y-65222590D02*
X159535089Y-65374971D01*
X159535089Y-65374971D02*
X159535089Y-65641638D01*
X159535089Y-65641638D02*
X159496993Y-65794019D01*
X159496993Y-65794019D02*
X159420803Y-65870209D01*
X159420803Y-65870209D02*
X159344612Y-65908304D01*
X158049374Y-65108304D02*
X158049374Y-65908304D01*
X158049374Y-65908304D02*
X157858898Y-65908304D01*
X157858898Y-65908304D02*
X157744612Y-65870209D01*
X157744612Y-65870209D02*
X157668422Y-65794019D01*
X157668422Y-65794019D02*
X157630327Y-65717828D01*
X157630327Y-65717828D02*
X157592231Y-65565447D01*
X157592231Y-65565447D02*
X157592231Y-65451161D01*
X157592231Y-65451161D02*
X157630327Y-65298780D01*
X157630327Y-65298780D02*
X157668422Y-65222590D01*
X157668422Y-65222590D02*
X157744612Y-65146400D01*
X157744612Y-65146400D02*
X157858898Y-65108304D01*
X157858898Y-65108304D02*
X158049374Y-65108304D01*
X156792231Y-65184495D02*
X156830327Y-65146400D01*
X156830327Y-65146400D02*
X156944612Y-65108304D01*
X156944612Y-65108304D02*
X157020803Y-65108304D01*
X157020803Y-65108304D02*
X157135089Y-65146400D01*
X157135089Y-65146400D02*
X157211279Y-65222590D01*
X157211279Y-65222590D02*
X157249374Y-65298780D01*
X157249374Y-65298780D02*
X157287470Y-65451161D01*
X157287470Y-65451161D02*
X157287470Y-65565447D01*
X157287470Y-65565447D02*
X157249374Y-65717828D01*
X157249374Y-65717828D02*
X157211279Y-65794019D01*
X157211279Y-65794019D02*
X157135089Y-65870209D01*
X157135089Y-65870209D02*
X157020803Y-65908304D01*
X157020803Y-65908304D02*
X156944612Y-65908304D01*
X156944612Y-65908304D02*
X156830327Y-65870209D01*
X156830327Y-65870209D02*
X156792231Y-65832114D01*
X156068422Y-65108304D02*
X156449374Y-65108304D01*
X156449374Y-65108304D02*
X156449374Y-65908304D01*
X155801755Y-65108304D02*
X155801755Y-65908304D01*
X155344612Y-65108304D02*
X155687470Y-65565447D01*
X155344612Y-65908304D02*
X155801755Y-65451161D01*
X154506517Y-65908304D02*
X154049374Y-65908304D01*
X154277946Y-65108304D02*
X154277946Y-65908304D01*
X153858898Y-65908304D02*
X153325564Y-65108304D01*
X153325564Y-65908304D02*
X153858898Y-65108304D01*
X151954135Y-65108304D02*
X152220802Y-65489257D01*
X152411278Y-65108304D02*
X152411278Y-65908304D01*
X152411278Y-65908304D02*
X152106516Y-65908304D01*
X152106516Y-65908304D02*
X152030326Y-65870209D01*
X152030326Y-65870209D02*
X151992231Y-65832114D01*
X151992231Y-65832114D02*
X151954135Y-65755923D01*
X151954135Y-65755923D02*
X151954135Y-65641638D01*
X151954135Y-65641638D02*
X151992231Y-65565447D01*
X151992231Y-65565447D02*
X152030326Y-65527352D01*
X152030326Y-65527352D02*
X152106516Y-65489257D01*
X152106516Y-65489257D02*
X152411278Y-65489257D01*
X151687469Y-65908304D02*
X151154135Y-65108304D01*
X151154135Y-65908304D02*
X151687469Y-65108304D01*
X150277945Y-65146400D02*
X150163659Y-65108304D01*
X150163659Y-65108304D02*
X149973183Y-65108304D01*
X149973183Y-65108304D02*
X149896992Y-65146400D01*
X149896992Y-65146400D02*
X149858897Y-65184495D01*
X149858897Y-65184495D02*
X149820802Y-65260685D01*
X149820802Y-65260685D02*
X149820802Y-65336876D01*
X149820802Y-65336876D02*
X149858897Y-65413066D01*
X149858897Y-65413066D02*
X149896992Y-65451161D01*
X149896992Y-65451161D02*
X149973183Y-65489257D01*
X149973183Y-65489257D02*
X150125564Y-65527352D01*
X150125564Y-65527352D02*
X150201754Y-65565447D01*
X150201754Y-65565447D02*
X150239849Y-65603542D01*
X150239849Y-65603542D02*
X150277945Y-65679733D01*
X150277945Y-65679733D02*
X150277945Y-65755923D01*
X150277945Y-65755923D02*
X150239849Y-65832114D01*
X150239849Y-65832114D02*
X150201754Y-65870209D01*
X150201754Y-65870209D02*
X150125564Y-65908304D01*
X150125564Y-65908304D02*
X149935087Y-65908304D01*
X149935087Y-65908304D02*
X149820802Y-65870209D01*
X149020801Y-65184495D02*
X149058897Y-65146400D01*
X149058897Y-65146400D02*
X149173182Y-65108304D01*
X149173182Y-65108304D02*
X149249373Y-65108304D01*
X149249373Y-65108304D02*
X149363659Y-65146400D01*
X149363659Y-65146400D02*
X149439849Y-65222590D01*
X149439849Y-65222590D02*
X149477944Y-65298780D01*
X149477944Y-65298780D02*
X149516040Y-65451161D01*
X149516040Y-65451161D02*
X149516040Y-65565447D01*
X149516040Y-65565447D02*
X149477944Y-65717828D01*
X149477944Y-65717828D02*
X149439849Y-65794019D01*
X149439849Y-65794019D02*
X149363659Y-65870209D01*
X149363659Y-65870209D02*
X149249373Y-65908304D01*
X149249373Y-65908304D02*
X149173182Y-65908304D01*
X149173182Y-65908304D02*
X149058897Y-65870209D01*
X149058897Y-65870209D02*
X149020801Y-65832114D01*
X148296992Y-65108304D02*
X148677944Y-65108304D01*
X148677944Y-65108304D02*
X148677944Y-65908304D01*
X147458897Y-65146400D02*
X147344611Y-65108304D01*
X147344611Y-65108304D02*
X147154135Y-65108304D01*
X147154135Y-65108304D02*
X147077944Y-65146400D01*
X147077944Y-65146400D02*
X147039849Y-65184495D01*
X147039849Y-65184495D02*
X147001754Y-65260685D01*
X147001754Y-65260685D02*
X147001754Y-65336876D01*
X147001754Y-65336876D02*
X147039849Y-65413066D01*
X147039849Y-65413066D02*
X147077944Y-65451161D01*
X147077944Y-65451161D02*
X147154135Y-65489257D01*
X147154135Y-65489257D02*
X147306516Y-65527352D01*
X147306516Y-65527352D02*
X147382706Y-65565447D01*
X147382706Y-65565447D02*
X147420801Y-65603542D01*
X147420801Y-65603542D02*
X147458897Y-65679733D01*
X147458897Y-65679733D02*
X147458897Y-65755923D01*
X147458897Y-65755923D02*
X147420801Y-65832114D01*
X147420801Y-65832114D02*
X147382706Y-65870209D01*
X147382706Y-65870209D02*
X147306516Y-65908304D01*
X147306516Y-65908304D02*
X147116039Y-65908304D01*
X147116039Y-65908304D02*
X147001754Y-65870209D01*
X146658896Y-65108304D02*
X146658896Y-65908304D01*
X146658896Y-65908304D02*
X146468420Y-65908304D01*
X146468420Y-65908304D02*
X146354134Y-65870209D01*
X146354134Y-65870209D02*
X146277944Y-65794019D01*
X146277944Y-65794019D02*
X146239849Y-65717828D01*
X146239849Y-65717828D02*
X146201753Y-65565447D01*
X146201753Y-65565447D02*
X146201753Y-65451161D01*
X146201753Y-65451161D02*
X146239849Y-65298780D01*
X146239849Y-65298780D02*
X146277944Y-65222590D01*
X146277944Y-65222590D02*
X146354134Y-65146400D01*
X146354134Y-65146400D02*
X146468420Y-65108304D01*
X146468420Y-65108304D02*
X146658896Y-65108304D01*
X145896992Y-65336876D02*
X145516039Y-65336876D01*
X145973182Y-65108304D02*
X145706515Y-65908304D01*
X145706515Y-65908304D02*
X145439849Y-65108304D01*
X144677944Y-65908304D02*
X144411277Y-65108304D01*
X144411277Y-65108304D02*
X144144611Y-65908304D01*
X143877944Y-65108304D02*
X143877944Y-65908304D01*
X143877944Y-65908304D02*
X143687468Y-65908304D01*
X143687468Y-65908304D02*
X143573182Y-65870209D01*
X143573182Y-65870209D02*
X143496992Y-65794019D01*
X143496992Y-65794019D02*
X143458897Y-65717828D01*
X143458897Y-65717828D02*
X143420801Y-65565447D01*
X143420801Y-65565447D02*
X143420801Y-65451161D01*
X143420801Y-65451161D02*
X143458897Y-65298780D01*
X143458897Y-65298780D02*
X143496992Y-65222590D01*
X143496992Y-65222590D02*
X143573182Y-65146400D01*
X143573182Y-65146400D02*
X143687468Y-65108304D01*
X143687468Y-65108304D02*
X143877944Y-65108304D01*
X143077944Y-65108304D02*
X143077944Y-65908304D01*
X143077944Y-65908304D02*
X142887468Y-65908304D01*
X142887468Y-65908304D02*
X142773182Y-65870209D01*
X142773182Y-65870209D02*
X142696992Y-65794019D01*
X142696992Y-65794019D02*
X142658897Y-65717828D01*
X142658897Y-65717828D02*
X142620801Y-65565447D01*
X142620801Y-65565447D02*
X142620801Y-65451161D01*
X142620801Y-65451161D02*
X142658897Y-65298780D01*
X142658897Y-65298780D02*
X142696992Y-65222590D01*
X142696992Y-65222590D02*
X142773182Y-65146400D01*
X142773182Y-65146400D02*
X142887468Y-65108304D01*
X142887468Y-65108304D02*
X143077944Y-65108304D01*
X141249373Y-65870209D02*
X141325563Y-65908304D01*
X141325563Y-65908304D02*
X141439849Y-65908304D01*
X141439849Y-65908304D02*
X141554135Y-65870209D01*
X141554135Y-65870209D02*
X141630325Y-65794019D01*
X141630325Y-65794019D02*
X141668420Y-65717828D01*
X141668420Y-65717828D02*
X141706516Y-65565447D01*
X141706516Y-65565447D02*
X141706516Y-65451161D01*
X141706516Y-65451161D02*
X141668420Y-65298780D01*
X141668420Y-65298780D02*
X141630325Y-65222590D01*
X141630325Y-65222590D02*
X141554135Y-65146400D01*
X141554135Y-65146400D02*
X141439849Y-65108304D01*
X141439849Y-65108304D02*
X141363658Y-65108304D01*
X141363658Y-65108304D02*
X141249373Y-65146400D01*
X141249373Y-65146400D02*
X141211277Y-65184495D01*
X141211277Y-65184495D02*
X141211277Y-65451161D01*
X141211277Y-65451161D02*
X141363658Y-65451161D01*
X140868420Y-65108304D02*
X140868420Y-65908304D01*
X140868420Y-65908304D02*
X140411277Y-65108304D01*
X140411277Y-65108304D02*
X140411277Y-65908304D01*
X140030325Y-65108304D02*
X140030325Y-65908304D01*
X140030325Y-65908304D02*
X139839849Y-65908304D01*
X139839849Y-65908304D02*
X139725563Y-65870209D01*
X139725563Y-65870209D02*
X139649373Y-65794019D01*
X139649373Y-65794019D02*
X139611278Y-65717828D01*
X139611278Y-65717828D02*
X139573182Y-65565447D01*
X139573182Y-65565447D02*
X139573182Y-65451161D01*
X139573182Y-65451161D02*
X139611278Y-65298780D01*
X139611278Y-65298780D02*
X139649373Y-65222590D01*
X139649373Y-65222590D02*
X139725563Y-65146400D01*
X139725563Y-65146400D02*
X139839849Y-65108304D01*
X139839849Y-65108304D02*
X140030325Y-65108304D01*
X151822054Y-116391695D02*
X151822054Y-115591695D01*
X151822054Y-115591695D02*
X152012530Y-115591695D01*
X152012530Y-115591695D02*
X152126816Y-115629790D01*
X152126816Y-115629790D02*
X152203006Y-115705980D01*
X152203006Y-115705980D02*
X152241101Y-115782171D01*
X152241101Y-115782171D02*
X152279197Y-115934552D01*
X152279197Y-115934552D02*
X152279197Y-116048838D01*
X152279197Y-116048838D02*
X152241101Y-116201219D01*
X152241101Y-116201219D02*
X152203006Y-116277409D01*
X152203006Y-116277409D02*
X152126816Y-116353600D01*
X152126816Y-116353600D02*
X152012530Y-116391695D01*
X152012530Y-116391695D02*
X151822054Y-116391695D01*
X152622054Y-116391695D02*
X152622054Y-115591695D01*
X153155387Y-115591695D02*
X153307768Y-115591695D01*
X153307768Y-115591695D02*
X153383958Y-115629790D01*
X153383958Y-115629790D02*
X153460149Y-115705980D01*
X153460149Y-115705980D02*
X153498244Y-115858361D01*
X153498244Y-115858361D02*
X153498244Y-116125028D01*
X153498244Y-116125028D02*
X153460149Y-116277409D01*
X153460149Y-116277409D02*
X153383958Y-116353600D01*
X153383958Y-116353600D02*
X153307768Y-116391695D01*
X153307768Y-116391695D02*
X153155387Y-116391695D01*
X153155387Y-116391695D02*
X153079196Y-116353600D01*
X153079196Y-116353600D02*
X153003006Y-116277409D01*
X153003006Y-116277409D02*
X152964910Y-116125028D01*
X152964910Y-116125028D02*
X152964910Y-115858361D01*
X152964910Y-115858361D02*
X153003006Y-115705980D01*
X153003006Y-115705980D02*
X153079196Y-115629790D01*
X153079196Y-115629790D02*
X153155387Y-115591695D01*
X154450625Y-116391695D02*
X154450625Y-115591695D01*
X154450625Y-115591695D02*
X154641101Y-115591695D01*
X154641101Y-115591695D02*
X154755387Y-115629790D01*
X154755387Y-115629790D02*
X154831577Y-115705980D01*
X154831577Y-115705980D02*
X154869672Y-115782171D01*
X154869672Y-115782171D02*
X154907768Y-115934552D01*
X154907768Y-115934552D02*
X154907768Y-116048838D01*
X154907768Y-116048838D02*
X154869672Y-116201219D01*
X154869672Y-116201219D02*
X154831577Y-116277409D01*
X154831577Y-116277409D02*
X154755387Y-116353600D01*
X154755387Y-116353600D02*
X154641101Y-116391695D01*
X154641101Y-116391695D02*
X154450625Y-116391695D01*
X155707768Y-116315504D02*
X155669672Y-116353600D01*
X155669672Y-116353600D02*
X155555387Y-116391695D01*
X155555387Y-116391695D02*
X155479196Y-116391695D01*
X155479196Y-116391695D02*
X155364910Y-116353600D01*
X155364910Y-116353600D02*
X155288720Y-116277409D01*
X155288720Y-116277409D02*
X155250625Y-116201219D01*
X155250625Y-116201219D02*
X155212529Y-116048838D01*
X155212529Y-116048838D02*
X155212529Y-115934552D01*
X155212529Y-115934552D02*
X155250625Y-115782171D01*
X155250625Y-115782171D02*
X155288720Y-115705980D01*
X155288720Y-115705980D02*
X155364910Y-115629790D01*
X155364910Y-115629790D02*
X155479196Y-115591695D01*
X155479196Y-115591695D02*
X155555387Y-115591695D01*
X155555387Y-115591695D02*
X155669672Y-115629790D01*
X155669672Y-115629790D02*
X155707768Y-115667885D01*
X156431577Y-116391695D02*
X156050625Y-116391695D01*
X156050625Y-116391695D02*
X156050625Y-115591695D01*
X156698244Y-116391695D02*
X156698244Y-115591695D01*
X157155387Y-116391695D02*
X156812529Y-115934552D01*
X157155387Y-115591695D02*
X156698244Y-116048838D01*
X157993482Y-115591695D02*
X158450625Y-115591695D01*
X158222053Y-116391695D02*
X158222053Y-115591695D01*
X158641101Y-115591695D02*
X159174435Y-116391695D01*
X159174435Y-115591695D02*
X158641101Y-116391695D01*
X160545864Y-116391695D02*
X160279197Y-116010742D01*
X160088721Y-116391695D02*
X160088721Y-115591695D01*
X160088721Y-115591695D02*
X160393483Y-115591695D01*
X160393483Y-115591695D02*
X160469673Y-115629790D01*
X160469673Y-115629790D02*
X160507768Y-115667885D01*
X160507768Y-115667885D02*
X160545864Y-115744076D01*
X160545864Y-115744076D02*
X160545864Y-115858361D01*
X160545864Y-115858361D02*
X160507768Y-115934552D01*
X160507768Y-115934552D02*
X160469673Y-115972647D01*
X160469673Y-115972647D02*
X160393483Y-116010742D01*
X160393483Y-116010742D02*
X160088721Y-116010742D01*
X160812530Y-115591695D02*
X161345864Y-116391695D01*
X161345864Y-115591695D02*
X160812530Y-116391695D01*
X162222054Y-116353600D02*
X162336340Y-116391695D01*
X162336340Y-116391695D02*
X162526816Y-116391695D01*
X162526816Y-116391695D02*
X162603007Y-116353600D01*
X162603007Y-116353600D02*
X162641102Y-116315504D01*
X162641102Y-116315504D02*
X162679197Y-116239314D01*
X162679197Y-116239314D02*
X162679197Y-116163123D01*
X162679197Y-116163123D02*
X162641102Y-116086933D01*
X162641102Y-116086933D02*
X162603007Y-116048838D01*
X162603007Y-116048838D02*
X162526816Y-116010742D01*
X162526816Y-116010742D02*
X162374435Y-115972647D01*
X162374435Y-115972647D02*
X162298245Y-115934552D01*
X162298245Y-115934552D02*
X162260150Y-115896457D01*
X162260150Y-115896457D02*
X162222054Y-115820266D01*
X162222054Y-115820266D02*
X162222054Y-115744076D01*
X162222054Y-115744076D02*
X162260150Y-115667885D01*
X162260150Y-115667885D02*
X162298245Y-115629790D01*
X162298245Y-115629790D02*
X162374435Y-115591695D01*
X162374435Y-115591695D02*
X162564912Y-115591695D01*
X162564912Y-115591695D02*
X162679197Y-115629790D01*
X163479198Y-116315504D02*
X163441102Y-116353600D01*
X163441102Y-116353600D02*
X163326817Y-116391695D01*
X163326817Y-116391695D02*
X163250626Y-116391695D01*
X163250626Y-116391695D02*
X163136340Y-116353600D01*
X163136340Y-116353600D02*
X163060150Y-116277409D01*
X163060150Y-116277409D02*
X163022055Y-116201219D01*
X163022055Y-116201219D02*
X162983959Y-116048838D01*
X162983959Y-116048838D02*
X162983959Y-115934552D01*
X162983959Y-115934552D02*
X163022055Y-115782171D01*
X163022055Y-115782171D02*
X163060150Y-115705980D01*
X163060150Y-115705980D02*
X163136340Y-115629790D01*
X163136340Y-115629790D02*
X163250626Y-115591695D01*
X163250626Y-115591695D02*
X163326817Y-115591695D01*
X163326817Y-115591695D02*
X163441102Y-115629790D01*
X163441102Y-115629790D02*
X163479198Y-115667885D01*
X164203007Y-116391695D02*
X163822055Y-116391695D01*
X163822055Y-116391695D02*
X163822055Y-115591695D01*
X165041102Y-116353600D02*
X165155388Y-116391695D01*
X165155388Y-116391695D02*
X165345864Y-116391695D01*
X165345864Y-116391695D02*
X165422055Y-116353600D01*
X165422055Y-116353600D02*
X165460150Y-116315504D01*
X165460150Y-116315504D02*
X165498245Y-116239314D01*
X165498245Y-116239314D02*
X165498245Y-116163123D01*
X165498245Y-116163123D02*
X165460150Y-116086933D01*
X165460150Y-116086933D02*
X165422055Y-116048838D01*
X165422055Y-116048838D02*
X165345864Y-116010742D01*
X165345864Y-116010742D02*
X165193483Y-115972647D01*
X165193483Y-115972647D02*
X165117293Y-115934552D01*
X165117293Y-115934552D02*
X165079198Y-115896457D01*
X165079198Y-115896457D02*
X165041102Y-115820266D01*
X165041102Y-115820266D02*
X165041102Y-115744076D01*
X165041102Y-115744076D02*
X165079198Y-115667885D01*
X165079198Y-115667885D02*
X165117293Y-115629790D01*
X165117293Y-115629790D02*
X165193483Y-115591695D01*
X165193483Y-115591695D02*
X165383960Y-115591695D01*
X165383960Y-115591695D02*
X165498245Y-115629790D01*
X165841103Y-116391695D02*
X165841103Y-115591695D01*
X165841103Y-115591695D02*
X166031579Y-115591695D01*
X166031579Y-115591695D02*
X166145865Y-115629790D01*
X166145865Y-115629790D02*
X166222055Y-115705980D01*
X166222055Y-115705980D02*
X166260150Y-115782171D01*
X166260150Y-115782171D02*
X166298246Y-115934552D01*
X166298246Y-115934552D02*
X166298246Y-116048838D01*
X166298246Y-116048838D02*
X166260150Y-116201219D01*
X166260150Y-116201219D02*
X166222055Y-116277409D01*
X166222055Y-116277409D02*
X166145865Y-116353600D01*
X166145865Y-116353600D02*
X166031579Y-116391695D01*
X166031579Y-116391695D02*
X165841103Y-116391695D01*
X166603007Y-116163123D02*
X166983960Y-116163123D01*
X166526817Y-116391695D02*
X166793484Y-115591695D01*
X166793484Y-115591695D02*
X167060150Y-116391695D01*
X167822055Y-115591695D02*
X168088722Y-116391695D01*
X168088722Y-116391695D02*
X168355388Y-115591695D01*
X168622055Y-116391695D02*
X168622055Y-115591695D01*
X168622055Y-115591695D02*
X168812531Y-115591695D01*
X168812531Y-115591695D02*
X168926817Y-115629790D01*
X168926817Y-115629790D02*
X169003007Y-115705980D01*
X169003007Y-115705980D02*
X169041102Y-115782171D01*
X169041102Y-115782171D02*
X169079198Y-115934552D01*
X169079198Y-115934552D02*
X169079198Y-116048838D01*
X169079198Y-116048838D02*
X169041102Y-116201219D01*
X169041102Y-116201219D02*
X169003007Y-116277409D01*
X169003007Y-116277409D02*
X168926817Y-116353600D01*
X168926817Y-116353600D02*
X168812531Y-116391695D01*
X168812531Y-116391695D02*
X168622055Y-116391695D01*
X169422055Y-116391695D02*
X169422055Y-115591695D01*
X169422055Y-115591695D02*
X169612531Y-115591695D01*
X169612531Y-115591695D02*
X169726817Y-115629790D01*
X169726817Y-115629790D02*
X169803007Y-115705980D01*
X169803007Y-115705980D02*
X169841102Y-115782171D01*
X169841102Y-115782171D02*
X169879198Y-115934552D01*
X169879198Y-115934552D02*
X169879198Y-116048838D01*
X169879198Y-116048838D02*
X169841102Y-116201219D01*
X169841102Y-116201219D02*
X169803007Y-116277409D01*
X169803007Y-116277409D02*
X169726817Y-116353600D01*
X169726817Y-116353600D02*
X169612531Y-116391695D01*
X169612531Y-116391695D02*
X169422055Y-116391695D01*
X171250626Y-115629790D02*
X171174436Y-115591695D01*
X171174436Y-115591695D02*
X171060150Y-115591695D01*
X171060150Y-115591695D02*
X170945864Y-115629790D01*
X170945864Y-115629790D02*
X170869674Y-115705980D01*
X170869674Y-115705980D02*
X170831579Y-115782171D01*
X170831579Y-115782171D02*
X170793483Y-115934552D01*
X170793483Y-115934552D02*
X170793483Y-116048838D01*
X170793483Y-116048838D02*
X170831579Y-116201219D01*
X170831579Y-116201219D02*
X170869674Y-116277409D01*
X170869674Y-116277409D02*
X170945864Y-116353600D01*
X170945864Y-116353600D02*
X171060150Y-116391695D01*
X171060150Y-116391695D02*
X171136341Y-116391695D01*
X171136341Y-116391695D02*
X171250626Y-116353600D01*
X171250626Y-116353600D02*
X171288722Y-116315504D01*
X171288722Y-116315504D02*
X171288722Y-116048838D01*
X171288722Y-116048838D02*
X171136341Y-116048838D01*
X171631579Y-116391695D02*
X171631579Y-115591695D01*
X171631579Y-115591695D02*
X172088722Y-116391695D01*
X172088722Y-116391695D02*
X172088722Y-115591695D01*
X172469674Y-116391695D02*
X172469674Y-115591695D01*
X172469674Y-115591695D02*
X172660150Y-115591695D01*
X172660150Y-115591695D02*
X172774436Y-115629790D01*
X172774436Y-115629790D02*
X172850626Y-115705980D01*
X172850626Y-115705980D02*
X172888721Y-115782171D01*
X172888721Y-115782171D02*
X172926817Y-115934552D01*
X172926817Y-115934552D02*
X172926817Y-116048838D01*
X172926817Y-116048838D02*
X172888721Y-116201219D01*
X172888721Y-116201219D02*
X172850626Y-116277409D01*
X172850626Y-116277409D02*
X172774436Y-116353600D01*
X172774436Y-116353600D02*
X172660150Y-116391695D01*
X172660150Y-116391695D02*
X172469674Y-116391695D01*
D11*
X139054510Y-86300828D02*
X139054510Y-84800828D01*
X139054510Y-84800828D02*
X139911653Y-86300828D01*
X139911653Y-86300828D02*
X139911653Y-84800828D01*
X140911654Y-84800828D02*
X141197368Y-84800828D01*
X141197368Y-84800828D02*
X141340225Y-84872257D01*
X141340225Y-84872257D02*
X141483082Y-85015114D01*
X141483082Y-85015114D02*
X141554511Y-85300828D01*
X141554511Y-85300828D02*
X141554511Y-85800828D01*
X141554511Y-85800828D02*
X141483082Y-86086542D01*
X141483082Y-86086542D02*
X141340225Y-86229400D01*
X141340225Y-86229400D02*
X141197368Y-86300828D01*
X141197368Y-86300828D02*
X140911654Y-86300828D01*
X140911654Y-86300828D02*
X140768797Y-86229400D01*
X140768797Y-86229400D02*
X140625939Y-86086542D01*
X140625939Y-86086542D02*
X140554511Y-85800828D01*
X140554511Y-85800828D02*
X140554511Y-85300828D01*
X140554511Y-85300828D02*
X140625939Y-85015114D01*
X140625939Y-85015114D02*
X140768797Y-84872257D01*
X140768797Y-84872257D02*
X140911654Y-84800828D01*
X142197368Y-86300828D02*
X142197368Y-84800828D01*
X142197368Y-84800828D02*
X142554511Y-84800828D01*
X142554511Y-84800828D02*
X142768797Y-84872257D01*
X142768797Y-84872257D02*
X142911654Y-85015114D01*
X142911654Y-85015114D02*
X142983083Y-85157971D01*
X142983083Y-85157971D02*
X143054511Y-85443685D01*
X143054511Y-85443685D02*
X143054511Y-85657971D01*
X143054511Y-85657971D02*
X142983083Y-85943685D01*
X142983083Y-85943685D02*
X142911654Y-86086542D01*
X142911654Y-86086542D02*
X142768797Y-86229400D01*
X142768797Y-86229400D02*
X142554511Y-86300828D01*
X142554511Y-86300828D02*
X142197368Y-86300828D01*
X143697368Y-85515114D02*
X144197368Y-85515114D01*
X144411654Y-86300828D02*
X143697368Y-86300828D01*
X143697368Y-86300828D02*
X143697368Y-84800828D01*
X143697368Y-84800828D02*
X144411654Y-84800828D01*
X144983083Y-84943685D02*
X145054511Y-84872257D01*
X145054511Y-84872257D02*
X145197369Y-84800828D01*
X145197369Y-84800828D02*
X145554511Y-84800828D01*
X145554511Y-84800828D02*
X145697369Y-84872257D01*
X145697369Y-84872257D02*
X145768797Y-84943685D01*
X145768797Y-84943685D02*
X145840226Y-85086542D01*
X145840226Y-85086542D02*
X145840226Y-85229400D01*
X145840226Y-85229400D02*
X145768797Y-85443685D01*
X145768797Y-85443685D02*
X144911654Y-86300828D01*
X144911654Y-86300828D02*
X145840226Y-86300828D01*
X144054510Y-100300828D02*
X144054510Y-98800828D01*
X144054510Y-98800828D02*
X144911653Y-100300828D01*
X144911653Y-100300828D02*
X144911653Y-98800828D01*
X145911654Y-98800828D02*
X146197368Y-98800828D01*
X146197368Y-98800828D02*
X146340225Y-98872257D01*
X146340225Y-98872257D02*
X146483082Y-99015114D01*
X146483082Y-99015114D02*
X146554511Y-99300828D01*
X146554511Y-99300828D02*
X146554511Y-99800828D01*
X146554511Y-99800828D02*
X146483082Y-100086542D01*
X146483082Y-100086542D02*
X146340225Y-100229400D01*
X146340225Y-100229400D02*
X146197368Y-100300828D01*
X146197368Y-100300828D02*
X145911654Y-100300828D01*
X145911654Y-100300828D02*
X145768797Y-100229400D01*
X145768797Y-100229400D02*
X145625939Y-100086542D01*
X145625939Y-100086542D02*
X145554511Y-99800828D01*
X145554511Y-99800828D02*
X145554511Y-99300828D01*
X145554511Y-99300828D02*
X145625939Y-99015114D01*
X145625939Y-99015114D02*
X145768797Y-98872257D01*
X145768797Y-98872257D02*
X145911654Y-98800828D01*
X147197368Y-100300828D02*
X147197368Y-98800828D01*
X147197368Y-98800828D02*
X147554511Y-98800828D01*
X147554511Y-98800828D02*
X147768797Y-98872257D01*
X147768797Y-98872257D02*
X147911654Y-99015114D01*
X147911654Y-99015114D02*
X147983083Y-99157971D01*
X147983083Y-99157971D02*
X148054511Y-99443685D01*
X148054511Y-99443685D02*
X148054511Y-99657971D01*
X148054511Y-99657971D02*
X147983083Y-99943685D01*
X147983083Y-99943685D02*
X147911654Y-100086542D01*
X147911654Y-100086542D02*
X147768797Y-100229400D01*
X147768797Y-100229400D02*
X147554511Y-100300828D01*
X147554511Y-100300828D02*
X147197368Y-100300828D01*
X148697368Y-99515114D02*
X149197368Y-99515114D01*
X149411654Y-100300828D02*
X148697368Y-100300828D01*
X148697368Y-100300828D02*
X148697368Y-98800828D01*
X148697368Y-98800828D02*
X149411654Y-98800828D01*
X150840226Y-100300828D02*
X149983083Y-100300828D01*
X150411654Y-100300828D02*
X150411654Y-98800828D01*
X150411654Y-98800828D02*
X150268797Y-99015114D01*
X150268797Y-99015114D02*
X150125940Y-99157971D01*
X150125940Y-99157971D02*
X149983083Y-99229400D01*
X121054510Y-85800828D02*
X121054510Y-84300828D01*
X121054510Y-84300828D02*
X121911653Y-85800828D01*
X121911653Y-85800828D02*
X121911653Y-84300828D01*
X122911654Y-84300828D02*
X123197368Y-84300828D01*
X123197368Y-84300828D02*
X123340225Y-84372257D01*
X123340225Y-84372257D02*
X123483082Y-84515114D01*
X123483082Y-84515114D02*
X123554511Y-84800828D01*
X123554511Y-84800828D02*
X123554511Y-85300828D01*
X123554511Y-85300828D02*
X123483082Y-85586542D01*
X123483082Y-85586542D02*
X123340225Y-85729400D01*
X123340225Y-85729400D02*
X123197368Y-85800828D01*
X123197368Y-85800828D02*
X122911654Y-85800828D01*
X122911654Y-85800828D02*
X122768797Y-85729400D01*
X122768797Y-85729400D02*
X122625939Y-85586542D01*
X122625939Y-85586542D02*
X122554511Y-85300828D01*
X122554511Y-85300828D02*
X122554511Y-84800828D01*
X122554511Y-84800828D02*
X122625939Y-84515114D01*
X122625939Y-84515114D02*
X122768797Y-84372257D01*
X122768797Y-84372257D02*
X122911654Y-84300828D01*
X124197368Y-85800828D02*
X124197368Y-84300828D01*
X124197368Y-84300828D02*
X124554511Y-84300828D01*
X124554511Y-84300828D02*
X124768797Y-84372257D01*
X124768797Y-84372257D02*
X124911654Y-84515114D01*
X124911654Y-84515114D02*
X124983083Y-84657971D01*
X124983083Y-84657971D02*
X125054511Y-84943685D01*
X125054511Y-84943685D02*
X125054511Y-85157971D01*
X125054511Y-85157971D02*
X124983083Y-85443685D01*
X124983083Y-85443685D02*
X124911654Y-85586542D01*
X124911654Y-85586542D02*
X124768797Y-85729400D01*
X124768797Y-85729400D02*
X124554511Y-85800828D01*
X124554511Y-85800828D02*
X124197368Y-85800828D01*
X125697368Y-85015114D02*
X126197368Y-85015114D01*
X126411654Y-85800828D02*
X125697368Y-85800828D01*
X125697368Y-85800828D02*
X125697368Y-84300828D01*
X125697368Y-84300828D02*
X126411654Y-84300828D01*
X126983083Y-84443685D02*
X127054511Y-84372257D01*
X127054511Y-84372257D02*
X127197369Y-84300828D01*
X127197369Y-84300828D02*
X127554511Y-84300828D01*
X127554511Y-84300828D02*
X127697369Y-84372257D01*
X127697369Y-84372257D02*
X127768797Y-84443685D01*
X127768797Y-84443685D02*
X127840226Y-84586542D01*
X127840226Y-84586542D02*
X127840226Y-84729400D01*
X127840226Y-84729400D02*
X127768797Y-84943685D01*
X127768797Y-84943685D02*
X126911654Y-85800828D01*
X126911654Y-85800828D02*
X127840226Y-85800828D01*
X121054510Y-108800828D02*
X121054510Y-107300828D01*
X121054510Y-107300828D02*
X121911653Y-108800828D01*
X121911653Y-108800828D02*
X121911653Y-107300828D01*
X122911654Y-107300828D02*
X123197368Y-107300828D01*
X123197368Y-107300828D02*
X123340225Y-107372257D01*
X123340225Y-107372257D02*
X123483082Y-107515114D01*
X123483082Y-107515114D02*
X123554511Y-107800828D01*
X123554511Y-107800828D02*
X123554511Y-108300828D01*
X123554511Y-108300828D02*
X123483082Y-108586542D01*
X123483082Y-108586542D02*
X123340225Y-108729400D01*
X123340225Y-108729400D02*
X123197368Y-108800828D01*
X123197368Y-108800828D02*
X122911654Y-108800828D01*
X122911654Y-108800828D02*
X122768797Y-108729400D01*
X122768797Y-108729400D02*
X122625939Y-108586542D01*
X122625939Y-108586542D02*
X122554511Y-108300828D01*
X122554511Y-108300828D02*
X122554511Y-107800828D01*
X122554511Y-107800828D02*
X122625939Y-107515114D01*
X122625939Y-107515114D02*
X122768797Y-107372257D01*
X122768797Y-107372257D02*
X122911654Y-107300828D01*
X124197368Y-108800828D02*
X124197368Y-107300828D01*
X124197368Y-107300828D02*
X124554511Y-107300828D01*
X124554511Y-107300828D02*
X124768797Y-107372257D01*
X124768797Y-107372257D02*
X124911654Y-107515114D01*
X124911654Y-107515114D02*
X124983083Y-107657971D01*
X124983083Y-107657971D02*
X125054511Y-107943685D01*
X125054511Y-107943685D02*
X125054511Y-108157971D01*
X125054511Y-108157971D02*
X124983083Y-108443685D01*
X124983083Y-108443685D02*
X124911654Y-108586542D01*
X124911654Y-108586542D02*
X124768797Y-108729400D01*
X124768797Y-108729400D02*
X124554511Y-108800828D01*
X124554511Y-108800828D02*
X124197368Y-108800828D01*
X125697368Y-108015114D02*
X126197368Y-108015114D01*
X126411654Y-108800828D02*
X125697368Y-108800828D01*
X125697368Y-108800828D02*
X125697368Y-107300828D01*
X125697368Y-107300828D02*
X126411654Y-107300828D01*
X127840226Y-108800828D02*
X126983083Y-108800828D01*
X127411654Y-108800828D02*
X127411654Y-107300828D01*
X127411654Y-107300828D02*
X127268797Y-107515114D01*
X127268797Y-107515114D02*
X127125940Y-107657971D01*
X127125940Y-107657971D02*
X126983083Y-107729400D01*
X121054510Y-131800828D02*
X121054510Y-130300828D01*
X121054510Y-130300828D02*
X121554510Y-131372257D01*
X121554510Y-131372257D02*
X122054510Y-130300828D01*
X122054510Y-130300828D02*
X122054510Y-131800828D01*
X122697368Y-131372257D02*
X123411654Y-131372257D01*
X122554511Y-131800828D02*
X123054511Y-130300828D01*
X123054511Y-130300828D02*
X123554511Y-131800828D01*
X124054510Y-131800828D02*
X124054510Y-130300828D01*
X124768796Y-131800828D02*
X124768796Y-130300828D01*
X124768796Y-130300828D02*
X125625939Y-131800828D01*
X125625939Y-131800828D02*
X125625939Y-130300828D01*
D12*
X121761905Y-88454819D02*
X121761905Y-87454819D01*
X121761905Y-87454819D02*
X122000000Y-87454819D01*
X122000000Y-87454819D02*
X122142857Y-87502438D01*
X122142857Y-87502438D02*
X122238095Y-87597676D01*
X122238095Y-87597676D02*
X122285714Y-87692914D01*
X122285714Y-87692914D02*
X122333333Y-87883390D01*
X122333333Y-87883390D02*
X122333333Y-88026247D01*
X122333333Y-88026247D02*
X122285714Y-88216723D01*
X122285714Y-88216723D02*
X122238095Y-88311961D01*
X122238095Y-88311961D02*
X122142857Y-88407200D01*
X122142857Y-88407200D02*
X122000000Y-88454819D01*
X122000000Y-88454819D02*
X121761905Y-88454819D01*
X122666667Y-87454819D02*
X123285714Y-87454819D01*
X123285714Y-87454819D02*
X122952381Y-87835771D01*
X122952381Y-87835771D02*
X123095238Y-87835771D01*
X123095238Y-87835771D02*
X123190476Y-87883390D01*
X123190476Y-87883390D02*
X123238095Y-87931009D01*
X123238095Y-87931009D02*
X123285714Y-88026247D01*
X123285714Y-88026247D02*
X123285714Y-88264342D01*
X123285714Y-88264342D02*
X123238095Y-88359580D01*
X123238095Y-88359580D02*
X123190476Y-88407200D01*
X123190476Y-88407200D02*
X123095238Y-88454819D01*
X123095238Y-88454819D02*
X122809524Y-88454819D01*
X122809524Y-88454819D02*
X122714286Y-88407200D01*
X122714286Y-88407200D02*
X122666667Y-88359580D01*
X126857142Y-135954819D02*
X126523809Y-135478628D01*
X126285714Y-135954819D02*
X126285714Y-134954819D01*
X126285714Y-134954819D02*
X126666666Y-134954819D01*
X126666666Y-134954819D02*
X126761904Y-135002438D01*
X126761904Y-135002438D02*
X126809523Y-135050057D01*
X126809523Y-135050057D02*
X126857142Y-135145295D01*
X126857142Y-135145295D02*
X126857142Y-135288152D01*
X126857142Y-135288152D02*
X126809523Y-135383390D01*
X126809523Y-135383390D02*
X126761904Y-135431009D01*
X126761904Y-135431009D02*
X126666666Y-135478628D01*
X126666666Y-135478628D02*
X126285714Y-135478628D01*
X127238095Y-135050057D02*
X127285714Y-135002438D01*
X127285714Y-135002438D02*
X127380952Y-134954819D01*
X127380952Y-134954819D02*
X127619047Y-134954819D01*
X127619047Y-134954819D02*
X127714285Y-135002438D01*
X127714285Y-135002438D02*
X127761904Y-135050057D01*
X127761904Y-135050057D02*
X127809523Y-135145295D01*
X127809523Y-135145295D02*
X127809523Y-135240533D01*
X127809523Y-135240533D02*
X127761904Y-135383390D01*
X127761904Y-135383390D02*
X127190476Y-135954819D01*
X127190476Y-135954819D02*
X127809523Y-135954819D01*
X128428571Y-134954819D02*
X128523809Y-134954819D01*
X128523809Y-134954819D02*
X128619047Y-135002438D01*
X128619047Y-135002438D02*
X128666666Y-135050057D01*
X128666666Y-135050057D02*
X128714285Y-135145295D01*
X128714285Y-135145295D02*
X128761904Y-135335771D01*
X128761904Y-135335771D02*
X128761904Y-135573866D01*
X128761904Y-135573866D02*
X128714285Y-135764342D01*
X128714285Y-135764342D02*
X128666666Y-135859580D01*
X128666666Y-135859580D02*
X128619047Y-135907200D01*
X128619047Y-135907200D02*
X128523809Y-135954819D01*
X128523809Y-135954819D02*
X128428571Y-135954819D01*
X128428571Y-135954819D02*
X128333333Y-135907200D01*
X128333333Y-135907200D02*
X128285714Y-135859580D01*
X128285714Y-135859580D02*
X128238095Y-135764342D01*
X128238095Y-135764342D02*
X128190476Y-135573866D01*
X128190476Y-135573866D02*
X128190476Y-135335771D01*
X128190476Y-135335771D02*
X128238095Y-135145295D01*
X128238095Y-135145295D02*
X128285714Y-135050057D01*
X128285714Y-135050057D02*
X128333333Y-135002438D01*
X128333333Y-135002438D02*
X128428571Y-134954819D01*
X126857142Y-137954819D02*
X126523809Y-137478628D01*
X126285714Y-137954819D02*
X126285714Y-136954819D01*
X126285714Y-136954819D02*
X126666666Y-136954819D01*
X126666666Y-136954819D02*
X126761904Y-137002438D01*
X126761904Y-137002438D02*
X126809523Y-137050057D01*
X126809523Y-137050057D02*
X126857142Y-137145295D01*
X126857142Y-137145295D02*
X126857142Y-137288152D01*
X126857142Y-137288152D02*
X126809523Y-137383390D01*
X126809523Y-137383390D02*
X126761904Y-137431009D01*
X126761904Y-137431009D02*
X126666666Y-137478628D01*
X126666666Y-137478628D02*
X126285714Y-137478628D01*
X127809523Y-137954819D02*
X127238095Y-137954819D01*
X127523809Y-137954819D02*
X127523809Y-136954819D01*
X127523809Y-136954819D02*
X127428571Y-137097676D01*
X127428571Y-137097676D02*
X127333333Y-137192914D01*
X127333333Y-137192914D02*
X127238095Y-137240533D01*
X128285714Y-137954819D02*
X128476190Y-137954819D01*
X128476190Y-137954819D02*
X128571428Y-137907200D01*
X128571428Y-137907200D02*
X128619047Y-137859580D01*
X128619047Y-137859580D02*
X128714285Y-137716723D01*
X128714285Y-137716723D02*
X128761904Y-137526247D01*
X128761904Y-137526247D02*
X128761904Y-137145295D01*
X128761904Y-137145295D02*
X128714285Y-137050057D01*
X128714285Y-137050057D02*
X128666666Y-137002438D01*
X128666666Y-137002438D02*
X128571428Y-136954819D01*
X128571428Y-136954819D02*
X128380952Y-136954819D01*
X128380952Y-136954819D02*
X128285714Y-137002438D01*
X128285714Y-137002438D02*
X128238095Y-137050057D01*
X128238095Y-137050057D02*
X128190476Y-137145295D01*
X128190476Y-137145295D02*
X128190476Y-137383390D01*
X128190476Y-137383390D02*
X128238095Y-137478628D01*
X128238095Y-137478628D02*
X128285714Y-137526247D01*
X128285714Y-137526247D02*
X128380952Y-137573866D01*
X128380952Y-137573866D02*
X128571428Y-137573866D01*
X128571428Y-137573866D02*
X128666666Y-137526247D01*
X128666666Y-137526247D02*
X128714285Y-137478628D01*
X128714285Y-137478628D02*
X128761904Y-137383390D01*
X172761905Y-93806819D02*
X173333333Y-93806819D01*
X173047619Y-94806819D02*
X173047619Y-93806819D01*
X173666667Y-94806819D02*
X173666667Y-93806819D01*
X173666667Y-93806819D02*
X174047619Y-93806819D01*
X174047619Y-93806819D02*
X174142857Y-93854438D01*
X174142857Y-93854438D02*
X174190476Y-93902057D01*
X174190476Y-93902057D02*
X174238095Y-93997295D01*
X174238095Y-93997295D02*
X174238095Y-94140152D01*
X174238095Y-94140152D02*
X174190476Y-94235390D01*
X174190476Y-94235390D02*
X174142857Y-94283009D01*
X174142857Y-94283009D02*
X174047619Y-94330628D01*
X174047619Y-94330628D02*
X173666667Y-94330628D01*
X175190476Y-94806819D02*
X174619048Y-94806819D01*
X174904762Y-94806819D02*
X174904762Y-93806819D01*
X174904762Y-93806819D02*
X174809524Y-93949676D01*
X174809524Y-93949676D02*
X174714286Y-94044914D01*
X174714286Y-94044914D02*
X174619048Y-94092533D01*
X176047619Y-94140152D02*
X176047619Y-94806819D01*
X175809524Y-93759200D02*
X175571429Y-94473485D01*
X175571429Y-94473485D02*
X176190476Y-94473485D01*
X172761905Y-88306819D02*
X173333333Y-88306819D01*
X173047619Y-89306819D02*
X173047619Y-88306819D01*
X173666667Y-89306819D02*
X173666667Y-88306819D01*
X173666667Y-88306819D02*
X174047619Y-88306819D01*
X174047619Y-88306819D02*
X174142857Y-88354438D01*
X174142857Y-88354438D02*
X174190476Y-88402057D01*
X174190476Y-88402057D02*
X174238095Y-88497295D01*
X174238095Y-88497295D02*
X174238095Y-88640152D01*
X174238095Y-88640152D02*
X174190476Y-88735390D01*
X174190476Y-88735390D02*
X174142857Y-88783009D01*
X174142857Y-88783009D02*
X174047619Y-88830628D01*
X174047619Y-88830628D02*
X173666667Y-88830628D01*
X175190476Y-89306819D02*
X174619048Y-89306819D01*
X174904762Y-89306819D02*
X174904762Y-88306819D01*
X174904762Y-88306819D02*
X174809524Y-88449676D01*
X174809524Y-88449676D02*
X174714286Y-88544914D01*
X174714286Y-88544914D02*
X174619048Y-88592533D01*
X175523810Y-88306819D02*
X176142857Y-88306819D01*
X176142857Y-88306819D02*
X175809524Y-88687771D01*
X175809524Y-88687771D02*
X175952381Y-88687771D01*
X175952381Y-88687771D02*
X176047619Y-88735390D01*
X176047619Y-88735390D02*
X176095238Y-88783009D01*
X176095238Y-88783009D02*
X176142857Y-88878247D01*
X176142857Y-88878247D02*
X176142857Y-89116342D01*
X176142857Y-89116342D02*
X176095238Y-89211580D01*
X176095238Y-89211580D02*
X176047619Y-89259200D01*
X176047619Y-89259200D02*
X175952381Y-89306819D01*
X175952381Y-89306819D02*
X175666667Y-89306819D01*
X175666667Y-89306819D02*
X175571429Y-89259200D01*
X175571429Y-89259200D02*
X175523810Y-89211580D01*
X175761905Y-90806819D02*
X176333333Y-90806819D01*
X176047619Y-91806819D02*
X176047619Y-90806819D01*
X176666667Y-91806819D02*
X176666667Y-90806819D01*
X176666667Y-90806819D02*
X177047619Y-90806819D01*
X177047619Y-90806819D02*
X177142857Y-90854438D01*
X177142857Y-90854438D02*
X177190476Y-90902057D01*
X177190476Y-90902057D02*
X177238095Y-90997295D01*
X177238095Y-90997295D02*
X177238095Y-91140152D01*
X177238095Y-91140152D02*
X177190476Y-91235390D01*
X177190476Y-91235390D02*
X177142857Y-91283009D01*
X177142857Y-91283009D02*
X177047619Y-91330628D01*
X177047619Y-91330628D02*
X176666667Y-91330628D01*
X178190476Y-91806819D02*
X177619048Y-91806819D01*
X177904762Y-91806819D02*
X177904762Y-90806819D01*
X177904762Y-90806819D02*
X177809524Y-90949676D01*
X177809524Y-90949676D02*
X177714286Y-91044914D01*
X177714286Y-91044914D02*
X177619048Y-91092533D01*
X178571429Y-90902057D02*
X178619048Y-90854438D01*
X178619048Y-90854438D02*
X178714286Y-90806819D01*
X178714286Y-90806819D02*
X178952381Y-90806819D01*
X178952381Y-90806819D02*
X179047619Y-90854438D01*
X179047619Y-90854438D02*
X179095238Y-90902057D01*
X179095238Y-90902057D02*
X179142857Y-90997295D01*
X179142857Y-90997295D02*
X179142857Y-91092533D01*
X179142857Y-91092533D02*
X179095238Y-91235390D01*
X179095238Y-91235390D02*
X178523810Y-91806819D01*
X178523810Y-91806819D02*
X179142857Y-91806819D01*
X122761905Y-65954819D02*
X122761905Y-64954819D01*
X122761905Y-64954819D02*
X123000000Y-64954819D01*
X123000000Y-64954819D02*
X123142857Y-65002438D01*
X123142857Y-65002438D02*
X123238095Y-65097676D01*
X123238095Y-65097676D02*
X123285714Y-65192914D01*
X123285714Y-65192914D02*
X123333333Y-65383390D01*
X123333333Y-65383390D02*
X123333333Y-65526247D01*
X123333333Y-65526247D02*
X123285714Y-65716723D01*
X123285714Y-65716723D02*
X123238095Y-65811961D01*
X123238095Y-65811961D02*
X123142857Y-65907200D01*
X123142857Y-65907200D02*
X123000000Y-65954819D01*
X123000000Y-65954819D02*
X122761905Y-65954819D01*
X124190476Y-64954819D02*
X124000000Y-64954819D01*
X124000000Y-64954819D02*
X123904762Y-65002438D01*
X123904762Y-65002438D02*
X123857143Y-65050057D01*
X123857143Y-65050057D02*
X123761905Y-65192914D01*
X123761905Y-65192914D02*
X123714286Y-65383390D01*
X123714286Y-65383390D02*
X123714286Y-65764342D01*
X123714286Y-65764342D02*
X123761905Y-65859580D01*
X123761905Y-65859580D02*
X123809524Y-65907200D01*
X123809524Y-65907200D02*
X123904762Y-65954819D01*
X123904762Y-65954819D02*
X124095238Y-65954819D01*
X124095238Y-65954819D02*
X124190476Y-65907200D01*
X124190476Y-65907200D02*
X124238095Y-65859580D01*
X124238095Y-65859580D02*
X124285714Y-65764342D01*
X124285714Y-65764342D02*
X124285714Y-65526247D01*
X124285714Y-65526247D02*
X124238095Y-65431009D01*
X124238095Y-65431009D02*
X124190476Y-65383390D01*
X124190476Y-65383390D02*
X124095238Y-65335771D01*
X124095238Y-65335771D02*
X123904762Y-65335771D01*
X123904762Y-65335771D02*
X123809524Y-65383390D01*
X123809524Y-65383390D02*
X123761905Y-65431009D01*
X123761905Y-65431009D02*
X123714286Y-65526247D01*
X176519642Y-106299580D02*
X176472023Y-106347200D01*
X176472023Y-106347200D02*
X176329166Y-106394819D01*
X176329166Y-106394819D02*
X176233928Y-106394819D01*
X176233928Y-106394819D02*
X176091071Y-106347200D01*
X176091071Y-106347200D02*
X175995833Y-106251961D01*
X175995833Y-106251961D02*
X175948214Y-106156723D01*
X175948214Y-106156723D02*
X175900595Y-105966247D01*
X175900595Y-105966247D02*
X175900595Y-105823390D01*
X175900595Y-105823390D02*
X175948214Y-105632914D01*
X175948214Y-105632914D02*
X175995833Y-105537676D01*
X175995833Y-105537676D02*
X176091071Y-105442438D01*
X176091071Y-105442438D02*
X176233928Y-105394819D01*
X176233928Y-105394819D02*
X176329166Y-105394819D01*
X176329166Y-105394819D02*
X176472023Y-105442438D01*
X176472023Y-105442438D02*
X176519642Y-105490057D01*
X177472023Y-106394819D02*
X176900595Y-106394819D01*
X177186309Y-106394819D02*
X177186309Y-105394819D01*
X177186309Y-105394819D02*
X177091071Y-105537676D01*
X177091071Y-105537676D02*
X176995833Y-105632914D01*
X176995833Y-105632914D02*
X176900595Y-105680533D01*
X177852976Y-105490057D02*
X177900595Y-105442438D01*
X177900595Y-105442438D02*
X177995833Y-105394819D01*
X177995833Y-105394819D02*
X178233928Y-105394819D01*
X178233928Y-105394819D02*
X178329166Y-105442438D01*
X178329166Y-105442438D02*
X178376785Y-105490057D01*
X178376785Y-105490057D02*
X178424404Y-105585295D01*
X178424404Y-105585295D02*
X178424404Y-105680533D01*
X178424404Y-105680533D02*
X178376785Y-105823390D01*
X178376785Y-105823390D02*
X177805357Y-106394819D01*
X177805357Y-106394819D02*
X178424404Y-106394819D01*
X122199405Y-114804819D02*
X122199405Y-113804819D01*
X122199405Y-113804819D02*
X122437500Y-113804819D01*
X122437500Y-113804819D02*
X122580357Y-113852438D01*
X122580357Y-113852438D02*
X122675595Y-113947676D01*
X122675595Y-113947676D02*
X122723214Y-114042914D01*
X122723214Y-114042914D02*
X122770833Y-114233390D01*
X122770833Y-114233390D02*
X122770833Y-114376247D01*
X122770833Y-114376247D02*
X122723214Y-114566723D01*
X122723214Y-114566723D02*
X122675595Y-114661961D01*
X122675595Y-114661961D02*
X122580357Y-114757200D01*
X122580357Y-114757200D02*
X122437500Y-114804819D01*
X122437500Y-114804819D02*
X122199405Y-114804819D01*
X123104167Y-113804819D02*
X123770833Y-113804819D01*
X123770833Y-113804819D02*
X123342262Y-114804819D01*
X132050057Y-88032738D02*
X132002438Y-88127976D01*
X132002438Y-88127976D02*
X131907200Y-88223214D01*
X131907200Y-88223214D02*
X131764342Y-88366071D01*
X131764342Y-88366071D02*
X131716723Y-88461309D01*
X131716723Y-88461309D02*
X131716723Y-88556547D01*
X131954819Y-88508928D02*
X131907200Y-88604166D01*
X131907200Y-88604166D02*
X131811961Y-88699404D01*
X131811961Y-88699404D02*
X131621485Y-88747023D01*
X131621485Y-88747023D02*
X131288152Y-88747023D01*
X131288152Y-88747023D02*
X131097676Y-88699404D01*
X131097676Y-88699404D02*
X131002438Y-88604166D01*
X131002438Y-88604166D02*
X130954819Y-88508928D01*
X130954819Y-88508928D02*
X130954819Y-88318452D01*
X130954819Y-88318452D02*
X131002438Y-88223214D01*
X131002438Y-88223214D02*
X131097676Y-88127976D01*
X131097676Y-88127976D02*
X131288152Y-88080357D01*
X131288152Y-88080357D02*
X131621485Y-88080357D01*
X131621485Y-88080357D02*
X131811961Y-88127976D01*
X131811961Y-88127976D02*
X131907200Y-88223214D01*
X131907200Y-88223214D02*
X131954819Y-88318452D01*
X131954819Y-88318452D02*
X131954819Y-88508928D01*
X131954819Y-87127976D02*
X131954819Y-87699404D01*
X131954819Y-87413690D02*
X130954819Y-87413690D01*
X130954819Y-87413690D02*
X131097676Y-87508928D01*
X131097676Y-87508928D02*
X131192914Y-87604166D01*
X131192914Y-87604166D02*
X131240533Y-87699404D01*
X143879819Y-132361904D02*
X144689342Y-132361904D01*
X144689342Y-132361904D02*
X144784580Y-132314285D01*
X144784580Y-132314285D02*
X144832200Y-132266666D01*
X144832200Y-132266666D02*
X144879819Y-132171428D01*
X144879819Y-132171428D02*
X144879819Y-131980952D01*
X144879819Y-131980952D02*
X144832200Y-131885714D01*
X144832200Y-131885714D02*
X144784580Y-131838095D01*
X144784580Y-131838095D02*
X144689342Y-131790476D01*
X144689342Y-131790476D02*
X143879819Y-131790476D01*
X144879819Y-130790476D02*
X144879819Y-131361904D01*
X144879819Y-131076190D02*
X143879819Y-131076190D01*
X143879819Y-131076190D02*
X144022676Y-131171428D01*
X144022676Y-131171428D02*
X144117914Y-131266666D01*
X144117914Y-131266666D02*
X144165533Y-131361904D01*
X139738095Y-119352819D02*
X140309523Y-119352819D01*
X140023809Y-120352819D02*
X140023809Y-119352819D01*
X140642857Y-120352819D02*
X140642857Y-119352819D01*
X140642857Y-119352819D02*
X141023809Y-119352819D01*
X141023809Y-119352819D02*
X141119047Y-119400438D01*
X141119047Y-119400438D02*
X141166666Y-119448057D01*
X141166666Y-119448057D02*
X141214285Y-119543295D01*
X141214285Y-119543295D02*
X141214285Y-119686152D01*
X141214285Y-119686152D02*
X141166666Y-119781390D01*
X141166666Y-119781390D02*
X141119047Y-119829009D01*
X141119047Y-119829009D02*
X141023809Y-119876628D01*
X141023809Y-119876628D02*
X140642857Y-119876628D01*
X141547619Y-119352819D02*
X142214285Y-119352819D01*
X142214285Y-119352819D02*
X141785714Y-120352819D01*
X176519642Y-103289580D02*
X176472023Y-103337200D01*
X176472023Y-103337200D02*
X176329166Y-103384819D01*
X176329166Y-103384819D02*
X176233928Y-103384819D01*
X176233928Y-103384819D02*
X176091071Y-103337200D01*
X176091071Y-103337200D02*
X175995833Y-103241961D01*
X175995833Y-103241961D02*
X175948214Y-103146723D01*
X175948214Y-103146723D02*
X175900595Y-102956247D01*
X175900595Y-102956247D02*
X175900595Y-102813390D01*
X175900595Y-102813390D02*
X175948214Y-102622914D01*
X175948214Y-102622914D02*
X175995833Y-102527676D01*
X175995833Y-102527676D02*
X176091071Y-102432438D01*
X176091071Y-102432438D02*
X176233928Y-102384819D01*
X176233928Y-102384819D02*
X176329166Y-102384819D01*
X176329166Y-102384819D02*
X176472023Y-102432438D01*
X176472023Y-102432438D02*
X176519642Y-102480057D01*
X177472023Y-103384819D02*
X176900595Y-103384819D01*
X177186309Y-103384819D02*
X177186309Y-102384819D01*
X177186309Y-102384819D02*
X177091071Y-102527676D01*
X177091071Y-102527676D02*
X176995833Y-102622914D01*
X176995833Y-102622914D02*
X176900595Y-102670533D01*
X177805357Y-102384819D02*
X178424404Y-102384819D01*
X178424404Y-102384819D02*
X178091071Y-102765771D01*
X178091071Y-102765771D02*
X178233928Y-102765771D01*
X178233928Y-102765771D02*
X178329166Y-102813390D01*
X178329166Y-102813390D02*
X178376785Y-102861009D01*
X178376785Y-102861009D02*
X178424404Y-102956247D01*
X178424404Y-102956247D02*
X178424404Y-103194342D01*
X178424404Y-103194342D02*
X178376785Y-103289580D01*
X178376785Y-103289580D02*
X178329166Y-103337200D01*
X178329166Y-103337200D02*
X178233928Y-103384819D01*
X178233928Y-103384819D02*
X177948214Y-103384819D01*
X177948214Y-103384819D02*
X177852976Y-103337200D01*
X177852976Y-103337200D02*
X177805357Y-103289580D01*
X134804819Y-94555357D02*
X134328628Y-94888690D01*
X134804819Y-95126785D02*
X133804819Y-95126785D01*
X133804819Y-95126785D02*
X133804819Y-94745833D01*
X133804819Y-94745833D02*
X133852438Y-94650595D01*
X133852438Y-94650595D02*
X133900057Y-94602976D01*
X133900057Y-94602976D02*
X133995295Y-94555357D01*
X133995295Y-94555357D02*
X134138152Y-94555357D01*
X134138152Y-94555357D02*
X134233390Y-94602976D01*
X134233390Y-94602976D02*
X134281009Y-94650595D01*
X134281009Y-94650595D02*
X134328628Y-94745833D01*
X134328628Y-94745833D02*
X134328628Y-95126785D01*
X134804819Y-93602976D02*
X134804819Y-94174404D01*
X134804819Y-93888690D02*
X133804819Y-93888690D01*
X133804819Y-93888690D02*
X133947676Y-93983928D01*
X133947676Y-93983928D02*
X134042914Y-94079166D01*
X134042914Y-94079166D02*
X134090533Y-94174404D01*
X133804819Y-92983928D02*
X133804819Y-92888690D01*
X133804819Y-92888690D02*
X133852438Y-92793452D01*
X133852438Y-92793452D02*
X133900057Y-92745833D01*
X133900057Y-92745833D02*
X133995295Y-92698214D01*
X133995295Y-92698214D02*
X134185771Y-92650595D01*
X134185771Y-92650595D02*
X134423866Y-92650595D01*
X134423866Y-92650595D02*
X134614342Y-92698214D01*
X134614342Y-92698214D02*
X134709580Y-92745833D01*
X134709580Y-92745833D02*
X134757200Y-92793452D01*
X134757200Y-92793452D02*
X134804819Y-92888690D01*
X134804819Y-92888690D02*
X134804819Y-92983928D01*
X134804819Y-92983928D02*
X134757200Y-93079166D01*
X134757200Y-93079166D02*
X134709580Y-93126785D01*
X134709580Y-93126785D02*
X134614342Y-93174404D01*
X134614342Y-93174404D02*
X134423866Y-93222023D01*
X134423866Y-93222023D02*
X134185771Y-93222023D01*
X134185771Y-93222023D02*
X133995295Y-93174404D01*
X133995295Y-93174404D02*
X133900057Y-93126785D01*
X133900057Y-93126785D02*
X133852438Y-93079166D01*
X133852438Y-93079166D02*
X133804819Y-92983928D01*
X127007200Y-78733332D02*
X127054819Y-78590475D01*
X127054819Y-78590475D02*
X127054819Y-78352380D01*
X127054819Y-78352380D02*
X127007200Y-78257142D01*
X127007200Y-78257142D02*
X126959580Y-78209523D01*
X126959580Y-78209523D02*
X126864342Y-78161904D01*
X126864342Y-78161904D02*
X126769104Y-78161904D01*
X126769104Y-78161904D02*
X126673866Y-78209523D01*
X126673866Y-78209523D02*
X126626247Y-78257142D01*
X126626247Y-78257142D02*
X126578628Y-78352380D01*
X126578628Y-78352380D02*
X126531009Y-78542856D01*
X126531009Y-78542856D02*
X126483390Y-78638094D01*
X126483390Y-78638094D02*
X126435771Y-78685713D01*
X126435771Y-78685713D02*
X126340533Y-78733332D01*
X126340533Y-78733332D02*
X126245295Y-78733332D01*
X126245295Y-78733332D02*
X126150057Y-78685713D01*
X126150057Y-78685713D02*
X126102438Y-78638094D01*
X126102438Y-78638094D02*
X126054819Y-78542856D01*
X126054819Y-78542856D02*
X126054819Y-78304761D01*
X126054819Y-78304761D02*
X126102438Y-78161904D01*
X126054819Y-77828570D02*
X127054819Y-77590475D01*
X127054819Y-77590475D02*
X126340533Y-77399999D01*
X126340533Y-77399999D02*
X127054819Y-77209523D01*
X127054819Y-77209523D02*
X126054819Y-76971428D01*
X126054819Y-76685713D02*
X126054819Y-76066666D01*
X126054819Y-76066666D02*
X126435771Y-76399999D01*
X126435771Y-76399999D02*
X126435771Y-76257142D01*
X126435771Y-76257142D02*
X126483390Y-76161904D01*
X126483390Y-76161904D02*
X126531009Y-76114285D01*
X126531009Y-76114285D02*
X126626247Y-76066666D01*
X126626247Y-76066666D02*
X126864342Y-76066666D01*
X126864342Y-76066666D02*
X126959580Y-76114285D01*
X126959580Y-76114285D02*
X127007200Y-76161904D01*
X127007200Y-76161904D02*
X127054819Y-76257142D01*
X127054819Y-76257142D02*
X127054819Y-76542856D01*
X127054819Y-76542856D02*
X127007200Y-76638094D01*
X127007200Y-76638094D02*
X126959580Y-76685713D01*
X126907200Y-126833332D02*
X126954819Y-126690475D01*
X126954819Y-126690475D02*
X126954819Y-126452380D01*
X126954819Y-126452380D02*
X126907200Y-126357142D01*
X126907200Y-126357142D02*
X126859580Y-126309523D01*
X126859580Y-126309523D02*
X126764342Y-126261904D01*
X126764342Y-126261904D02*
X126669104Y-126261904D01*
X126669104Y-126261904D02*
X126573866Y-126309523D01*
X126573866Y-126309523D02*
X126526247Y-126357142D01*
X126526247Y-126357142D02*
X126478628Y-126452380D01*
X126478628Y-126452380D02*
X126431009Y-126642856D01*
X126431009Y-126642856D02*
X126383390Y-126738094D01*
X126383390Y-126738094D02*
X126335771Y-126785713D01*
X126335771Y-126785713D02*
X126240533Y-126833332D01*
X126240533Y-126833332D02*
X126145295Y-126833332D01*
X126145295Y-126833332D02*
X126050057Y-126785713D01*
X126050057Y-126785713D02*
X126002438Y-126738094D01*
X126002438Y-126738094D02*
X125954819Y-126642856D01*
X125954819Y-126642856D02*
X125954819Y-126404761D01*
X125954819Y-126404761D02*
X126002438Y-126261904D01*
X125954819Y-125928570D02*
X126954819Y-125690475D01*
X126954819Y-125690475D02*
X126240533Y-125499999D01*
X126240533Y-125499999D02*
X126954819Y-125309523D01*
X126954819Y-125309523D02*
X125954819Y-125071428D01*
X126954819Y-124166666D02*
X126954819Y-124738094D01*
X126954819Y-124452380D02*
X125954819Y-124452380D01*
X125954819Y-124452380D02*
X126097676Y-124547618D01*
X126097676Y-124547618D02*
X126192914Y-124642856D01*
X126192914Y-124642856D02*
X126240533Y-124738094D01*
X144708333Y-124979580D02*
X144660714Y-125027200D01*
X144660714Y-125027200D02*
X144517857Y-125074819D01*
X144517857Y-125074819D02*
X144422619Y-125074819D01*
X144422619Y-125074819D02*
X144279762Y-125027200D01*
X144279762Y-125027200D02*
X144184524Y-124931961D01*
X144184524Y-124931961D02*
X144136905Y-124836723D01*
X144136905Y-124836723D02*
X144089286Y-124646247D01*
X144089286Y-124646247D02*
X144089286Y-124503390D01*
X144089286Y-124503390D02*
X144136905Y-124312914D01*
X144136905Y-124312914D02*
X144184524Y-124217676D01*
X144184524Y-124217676D02*
X144279762Y-124122438D01*
X144279762Y-124122438D02*
X144422619Y-124074819D01*
X144422619Y-124074819D02*
X144517857Y-124074819D01*
X144517857Y-124074819D02*
X144660714Y-124122438D01*
X144660714Y-124122438D02*
X144708333Y-124170057D01*
X145660714Y-125074819D02*
X145089286Y-125074819D01*
X145375000Y-125074819D02*
X145375000Y-124074819D01*
X145375000Y-124074819D02*
X145279762Y-124217676D01*
X145279762Y-124217676D02*
X145184524Y-124312914D01*
X145184524Y-124312914D02*
X145089286Y-124360533D01*
X145738095Y-119352819D02*
X146309523Y-119352819D01*
X146023809Y-120352819D02*
X146023809Y-119352819D01*
X146642857Y-120352819D02*
X146642857Y-119352819D01*
X146642857Y-119352819D02*
X147023809Y-119352819D01*
X147023809Y-119352819D02*
X147119047Y-119400438D01*
X147119047Y-119400438D02*
X147166666Y-119448057D01*
X147166666Y-119448057D02*
X147214285Y-119543295D01*
X147214285Y-119543295D02*
X147214285Y-119686152D01*
X147214285Y-119686152D02*
X147166666Y-119781390D01*
X147166666Y-119781390D02*
X147119047Y-119829009D01*
X147119047Y-119829009D02*
X147023809Y-119876628D01*
X147023809Y-119876628D02*
X146642857Y-119876628D01*
X148119047Y-119352819D02*
X147642857Y-119352819D01*
X147642857Y-119352819D02*
X147595238Y-119829009D01*
X147595238Y-119829009D02*
X147642857Y-119781390D01*
X147642857Y-119781390D02*
X147738095Y-119733771D01*
X147738095Y-119733771D02*
X147976190Y-119733771D01*
X147976190Y-119733771D02*
X148071428Y-119781390D01*
X148071428Y-119781390D02*
X148119047Y-119829009D01*
X148119047Y-119829009D02*
X148166666Y-119924247D01*
X148166666Y-119924247D02*
X148166666Y-120162342D01*
X148166666Y-120162342D02*
X148119047Y-120257580D01*
X148119047Y-120257580D02*
X148071428Y-120305200D01*
X148071428Y-120305200D02*
X147976190Y-120352819D01*
X147976190Y-120352819D02*
X147738095Y-120352819D01*
X147738095Y-120352819D02*
X147642857Y-120305200D01*
X147642857Y-120305200D02*
X147595238Y-120257580D01*
X142738095Y-119352819D02*
X143309523Y-119352819D01*
X143023809Y-120352819D02*
X143023809Y-119352819D01*
X143642857Y-120352819D02*
X143642857Y-119352819D01*
X143642857Y-119352819D02*
X144023809Y-119352819D01*
X144023809Y-119352819D02*
X144119047Y-119400438D01*
X144119047Y-119400438D02*
X144166666Y-119448057D01*
X144166666Y-119448057D02*
X144214285Y-119543295D01*
X144214285Y-119543295D02*
X144214285Y-119686152D01*
X144214285Y-119686152D02*
X144166666Y-119781390D01*
X144166666Y-119781390D02*
X144119047Y-119829009D01*
X144119047Y-119829009D02*
X144023809Y-119876628D01*
X144023809Y-119876628D02*
X143642857Y-119876628D01*
X145071428Y-119352819D02*
X144880952Y-119352819D01*
X144880952Y-119352819D02*
X144785714Y-119400438D01*
X144785714Y-119400438D02*
X144738095Y-119448057D01*
X144738095Y-119448057D02*
X144642857Y-119590914D01*
X144642857Y-119590914D02*
X144595238Y-119781390D01*
X144595238Y-119781390D02*
X144595238Y-120162342D01*
X144595238Y-120162342D02*
X144642857Y-120257580D01*
X144642857Y-120257580D02*
X144690476Y-120305200D01*
X144690476Y-120305200D02*
X144785714Y-120352819D01*
X144785714Y-120352819D02*
X144976190Y-120352819D01*
X144976190Y-120352819D02*
X145071428Y-120305200D01*
X145071428Y-120305200D02*
X145119047Y-120257580D01*
X145119047Y-120257580D02*
X145166666Y-120162342D01*
X145166666Y-120162342D02*
X145166666Y-119924247D01*
X145166666Y-119924247D02*
X145119047Y-119829009D01*
X145119047Y-119829009D02*
X145071428Y-119781390D01*
X145071428Y-119781390D02*
X144976190Y-119733771D01*
X144976190Y-119733771D02*
X144785714Y-119733771D01*
X144785714Y-119733771D02*
X144690476Y-119781390D01*
X144690476Y-119781390D02*
X144642857Y-119829009D01*
X144642857Y-119829009D02*
X144595238Y-119924247D01*
X155783333Y-123859580D02*
X155735714Y-123907200D01*
X155735714Y-123907200D02*
X155592857Y-123954819D01*
X155592857Y-123954819D02*
X155497619Y-123954819D01*
X155497619Y-123954819D02*
X155354762Y-123907200D01*
X155354762Y-123907200D02*
X155259524Y-123811961D01*
X155259524Y-123811961D02*
X155211905Y-123716723D01*
X155211905Y-123716723D02*
X155164286Y-123526247D01*
X155164286Y-123526247D02*
X155164286Y-123383390D01*
X155164286Y-123383390D02*
X155211905Y-123192914D01*
X155211905Y-123192914D02*
X155259524Y-123097676D01*
X155259524Y-123097676D02*
X155354762Y-123002438D01*
X155354762Y-123002438D02*
X155497619Y-122954819D01*
X155497619Y-122954819D02*
X155592857Y-122954819D01*
X155592857Y-122954819D02*
X155735714Y-123002438D01*
X155735714Y-123002438D02*
X155783333Y-123050057D01*
X156640476Y-123288152D02*
X156640476Y-123954819D01*
X156402381Y-122907200D02*
X156164286Y-123621485D01*
X156164286Y-123621485D02*
X156783333Y-123621485D01*
X171738095Y-122806819D02*
X172309523Y-122806819D01*
X172023809Y-123806819D02*
X172023809Y-122806819D01*
X172642857Y-123806819D02*
X172642857Y-122806819D01*
X172642857Y-122806819D02*
X173023809Y-122806819D01*
X173023809Y-122806819D02*
X173119047Y-122854438D01*
X173119047Y-122854438D02*
X173166666Y-122902057D01*
X173166666Y-122902057D02*
X173214285Y-122997295D01*
X173214285Y-122997295D02*
X173214285Y-123140152D01*
X173214285Y-123140152D02*
X173166666Y-123235390D01*
X173166666Y-123235390D02*
X173119047Y-123283009D01*
X173119047Y-123283009D02*
X173023809Y-123330628D01*
X173023809Y-123330628D02*
X172642857Y-123330628D01*
X173595238Y-122902057D02*
X173642857Y-122854438D01*
X173642857Y-122854438D02*
X173738095Y-122806819D01*
X173738095Y-122806819D02*
X173976190Y-122806819D01*
X173976190Y-122806819D02*
X174071428Y-122854438D01*
X174071428Y-122854438D02*
X174119047Y-122902057D01*
X174119047Y-122902057D02*
X174166666Y-122997295D01*
X174166666Y-122997295D02*
X174166666Y-123092533D01*
X174166666Y-123092533D02*
X174119047Y-123235390D01*
X174119047Y-123235390D02*
X173547619Y-123806819D01*
X173547619Y-123806819D02*
X174166666Y-123806819D01*
X122269642Y-111804819D02*
X121936309Y-111328628D01*
X121698214Y-111804819D02*
X121698214Y-110804819D01*
X121698214Y-110804819D02*
X122079166Y-110804819D01*
X122079166Y-110804819D02*
X122174404Y-110852438D01*
X122174404Y-110852438D02*
X122222023Y-110900057D01*
X122222023Y-110900057D02*
X122269642Y-110995295D01*
X122269642Y-110995295D02*
X122269642Y-111138152D01*
X122269642Y-111138152D02*
X122222023Y-111233390D01*
X122222023Y-111233390D02*
X122174404Y-111281009D01*
X122174404Y-111281009D02*
X122079166Y-111328628D01*
X122079166Y-111328628D02*
X121698214Y-111328628D01*
X123222023Y-111804819D02*
X122650595Y-111804819D01*
X122936309Y-111804819D02*
X122936309Y-110804819D01*
X122936309Y-110804819D02*
X122841071Y-110947676D01*
X122841071Y-110947676D02*
X122745833Y-111042914D01*
X122745833Y-111042914D02*
X122650595Y-111090533D01*
X123793452Y-111233390D02*
X123698214Y-111185771D01*
X123698214Y-111185771D02*
X123650595Y-111138152D01*
X123650595Y-111138152D02*
X123602976Y-111042914D01*
X123602976Y-111042914D02*
X123602976Y-110995295D01*
X123602976Y-110995295D02*
X123650595Y-110900057D01*
X123650595Y-110900057D02*
X123698214Y-110852438D01*
X123698214Y-110852438D02*
X123793452Y-110804819D01*
X123793452Y-110804819D02*
X123983928Y-110804819D01*
X123983928Y-110804819D02*
X124079166Y-110852438D01*
X124079166Y-110852438D02*
X124126785Y-110900057D01*
X124126785Y-110900057D02*
X124174404Y-110995295D01*
X124174404Y-110995295D02*
X124174404Y-111042914D01*
X124174404Y-111042914D02*
X124126785Y-111138152D01*
X124126785Y-111138152D02*
X124079166Y-111185771D01*
X124079166Y-111185771D02*
X123983928Y-111233390D01*
X123983928Y-111233390D02*
X123793452Y-111233390D01*
X123793452Y-111233390D02*
X123698214Y-111281009D01*
X123698214Y-111281009D02*
X123650595Y-111328628D01*
X123650595Y-111328628D02*
X123602976Y-111423866D01*
X123602976Y-111423866D02*
X123602976Y-111614342D01*
X123602976Y-111614342D02*
X123650595Y-111709580D01*
X123650595Y-111709580D02*
X123698214Y-111757200D01*
X123698214Y-111757200D02*
X123793452Y-111804819D01*
X123793452Y-111804819D02*
X123983928Y-111804819D01*
X123983928Y-111804819D02*
X124079166Y-111757200D01*
X124079166Y-111757200D02*
X124126785Y-111709580D01*
X124126785Y-111709580D02*
X124174404Y-111614342D01*
X124174404Y-111614342D02*
X124174404Y-111423866D01*
X124174404Y-111423866D02*
X124126785Y-111328628D01*
X124126785Y-111328628D02*
X124079166Y-111281009D01*
X124079166Y-111281009D02*
X123983928Y-111233390D01*
X156359580Y-87766666D02*
X156407200Y-87814285D01*
X156407200Y-87814285D02*
X156454819Y-87957142D01*
X156454819Y-87957142D02*
X156454819Y-88052380D01*
X156454819Y-88052380D02*
X156407200Y-88195237D01*
X156407200Y-88195237D02*
X156311961Y-88290475D01*
X156311961Y-88290475D02*
X156216723Y-88338094D01*
X156216723Y-88338094D02*
X156026247Y-88385713D01*
X156026247Y-88385713D02*
X155883390Y-88385713D01*
X155883390Y-88385713D02*
X155692914Y-88338094D01*
X155692914Y-88338094D02*
X155597676Y-88290475D01*
X155597676Y-88290475D02*
X155502438Y-88195237D01*
X155502438Y-88195237D02*
X155454819Y-88052380D01*
X155454819Y-88052380D02*
X155454819Y-87957142D01*
X155454819Y-87957142D02*
X155502438Y-87814285D01*
X155502438Y-87814285D02*
X155550057Y-87766666D01*
X155883390Y-87195237D02*
X155835771Y-87290475D01*
X155835771Y-87290475D02*
X155788152Y-87338094D01*
X155788152Y-87338094D02*
X155692914Y-87385713D01*
X155692914Y-87385713D02*
X155645295Y-87385713D01*
X155645295Y-87385713D02*
X155550057Y-87338094D01*
X155550057Y-87338094D02*
X155502438Y-87290475D01*
X155502438Y-87290475D02*
X155454819Y-87195237D01*
X155454819Y-87195237D02*
X155454819Y-87004761D01*
X155454819Y-87004761D02*
X155502438Y-86909523D01*
X155502438Y-86909523D02*
X155550057Y-86861904D01*
X155550057Y-86861904D02*
X155645295Y-86814285D01*
X155645295Y-86814285D02*
X155692914Y-86814285D01*
X155692914Y-86814285D02*
X155788152Y-86861904D01*
X155788152Y-86861904D02*
X155835771Y-86909523D01*
X155835771Y-86909523D02*
X155883390Y-87004761D01*
X155883390Y-87004761D02*
X155883390Y-87195237D01*
X155883390Y-87195237D02*
X155931009Y-87290475D01*
X155931009Y-87290475D02*
X155978628Y-87338094D01*
X155978628Y-87338094D02*
X156073866Y-87385713D01*
X156073866Y-87385713D02*
X156264342Y-87385713D01*
X156264342Y-87385713D02*
X156359580Y-87338094D01*
X156359580Y-87338094D02*
X156407200Y-87290475D01*
X156407200Y-87290475D02*
X156454819Y-87195237D01*
X156454819Y-87195237D02*
X156454819Y-87004761D01*
X156454819Y-87004761D02*
X156407200Y-86909523D01*
X156407200Y-86909523D02*
X156359580Y-86861904D01*
X156359580Y-86861904D02*
X156264342Y-86814285D01*
X156264342Y-86814285D02*
X156073866Y-86814285D01*
X156073866Y-86814285D02*
X155978628Y-86861904D01*
X155978628Y-86861904D02*
X155931009Y-86909523D01*
X155931009Y-86909523D02*
X155883390Y-87004761D01*
X128333333Y-115504819D02*
X127857143Y-115504819D01*
X127857143Y-115504819D02*
X127857143Y-114504819D01*
X129190476Y-115504819D02*
X128619048Y-115504819D01*
X128904762Y-115504819D02*
X128904762Y-114504819D01*
X128904762Y-114504819D02*
X128809524Y-114647676D01*
X128809524Y-114647676D02*
X128714286Y-114742914D01*
X128714286Y-114742914D02*
X128619048Y-114790533D01*
X133857142Y-63954819D02*
X133523809Y-63478628D01*
X133285714Y-63954819D02*
X133285714Y-62954819D01*
X133285714Y-62954819D02*
X133666666Y-62954819D01*
X133666666Y-62954819D02*
X133761904Y-63002438D01*
X133761904Y-63002438D02*
X133809523Y-63050057D01*
X133809523Y-63050057D02*
X133857142Y-63145295D01*
X133857142Y-63145295D02*
X133857142Y-63288152D01*
X133857142Y-63288152D02*
X133809523Y-63383390D01*
X133809523Y-63383390D02*
X133761904Y-63431009D01*
X133761904Y-63431009D02*
X133666666Y-63478628D01*
X133666666Y-63478628D02*
X133285714Y-63478628D01*
X134809523Y-63954819D02*
X134238095Y-63954819D01*
X134523809Y-63954819D02*
X134523809Y-62954819D01*
X134523809Y-62954819D02*
X134428571Y-63097676D01*
X134428571Y-63097676D02*
X134333333Y-63192914D01*
X134333333Y-63192914D02*
X134238095Y-63240533D01*
X135714285Y-62954819D02*
X135238095Y-62954819D01*
X135238095Y-62954819D02*
X135190476Y-63431009D01*
X135190476Y-63431009D02*
X135238095Y-63383390D01*
X135238095Y-63383390D02*
X135333333Y-63335771D01*
X135333333Y-63335771D02*
X135571428Y-63335771D01*
X135571428Y-63335771D02*
X135666666Y-63383390D01*
X135666666Y-63383390D02*
X135714285Y-63431009D01*
X135714285Y-63431009D02*
X135761904Y-63526247D01*
X135761904Y-63526247D02*
X135761904Y-63764342D01*
X135761904Y-63764342D02*
X135714285Y-63859580D01*
X135714285Y-63859580D02*
X135666666Y-63907200D01*
X135666666Y-63907200D02*
X135571428Y-63954819D01*
X135571428Y-63954819D02*
X135333333Y-63954819D01*
X135333333Y-63954819D02*
X135238095Y-63907200D01*
X135238095Y-63907200D02*
X135190476Y-63859580D01*
X132050057Y-93095238D02*
X132002438Y-93190476D01*
X132002438Y-93190476D02*
X131907200Y-93285714D01*
X131907200Y-93285714D02*
X131764342Y-93428571D01*
X131764342Y-93428571D02*
X131716723Y-93523809D01*
X131716723Y-93523809D02*
X131716723Y-93619047D01*
X131954819Y-93571428D02*
X131907200Y-93666666D01*
X131907200Y-93666666D02*
X131811961Y-93761904D01*
X131811961Y-93761904D02*
X131621485Y-93809523D01*
X131621485Y-93809523D02*
X131288152Y-93809523D01*
X131288152Y-93809523D02*
X131097676Y-93761904D01*
X131097676Y-93761904D02*
X131002438Y-93666666D01*
X131002438Y-93666666D02*
X130954819Y-93571428D01*
X130954819Y-93571428D02*
X130954819Y-93380952D01*
X130954819Y-93380952D02*
X131002438Y-93285714D01*
X131002438Y-93285714D02*
X131097676Y-93190476D01*
X131097676Y-93190476D02*
X131288152Y-93142857D01*
X131288152Y-93142857D02*
X131621485Y-93142857D01*
X131621485Y-93142857D02*
X131811961Y-93190476D01*
X131811961Y-93190476D02*
X131907200Y-93285714D01*
X131907200Y-93285714D02*
X131954819Y-93380952D01*
X131954819Y-93380952D02*
X131954819Y-93571428D01*
X131050057Y-92761904D02*
X131002438Y-92714285D01*
X131002438Y-92714285D02*
X130954819Y-92619047D01*
X130954819Y-92619047D02*
X130954819Y-92380952D01*
X130954819Y-92380952D02*
X131002438Y-92285714D01*
X131002438Y-92285714D02*
X131050057Y-92238095D01*
X131050057Y-92238095D02*
X131145295Y-92190476D01*
X131145295Y-92190476D02*
X131240533Y-92190476D01*
X131240533Y-92190476D02*
X131383390Y-92238095D01*
X131383390Y-92238095D02*
X131954819Y-92809523D01*
X131954819Y-92809523D02*
X131954819Y-92190476D01*
X132783333Y-116179580D02*
X132735714Y-116227200D01*
X132735714Y-116227200D02*
X132592857Y-116274819D01*
X132592857Y-116274819D02*
X132497619Y-116274819D01*
X132497619Y-116274819D02*
X132354762Y-116227200D01*
X132354762Y-116227200D02*
X132259524Y-116131961D01*
X132259524Y-116131961D02*
X132211905Y-116036723D01*
X132211905Y-116036723D02*
X132164286Y-115846247D01*
X132164286Y-115846247D02*
X132164286Y-115703390D01*
X132164286Y-115703390D02*
X132211905Y-115512914D01*
X132211905Y-115512914D02*
X132259524Y-115417676D01*
X132259524Y-115417676D02*
X132354762Y-115322438D01*
X132354762Y-115322438D02*
X132497619Y-115274819D01*
X132497619Y-115274819D02*
X132592857Y-115274819D01*
X132592857Y-115274819D02*
X132735714Y-115322438D01*
X132735714Y-115322438D02*
X132783333Y-115370057D01*
X133164286Y-115370057D02*
X133211905Y-115322438D01*
X133211905Y-115322438D02*
X133307143Y-115274819D01*
X133307143Y-115274819D02*
X133545238Y-115274819D01*
X133545238Y-115274819D02*
X133640476Y-115322438D01*
X133640476Y-115322438D02*
X133688095Y-115370057D01*
X133688095Y-115370057D02*
X133735714Y-115465295D01*
X133735714Y-115465295D02*
X133735714Y-115560533D01*
X133735714Y-115560533D02*
X133688095Y-115703390D01*
X133688095Y-115703390D02*
X133116667Y-116274819D01*
X133116667Y-116274819D02*
X133735714Y-116274819D01*
X161904819Y-127583333D02*
X162619104Y-127583333D01*
X162619104Y-127583333D02*
X162761961Y-127630952D01*
X162761961Y-127630952D02*
X162857200Y-127726190D01*
X162857200Y-127726190D02*
X162904819Y-127869047D01*
X162904819Y-127869047D02*
X162904819Y-127964285D01*
X162238152Y-126678571D02*
X162904819Y-126678571D01*
X161857200Y-126916666D02*
X162571485Y-127154761D01*
X162571485Y-127154761D02*
X162571485Y-126535714D01*
X138907200Y-109333332D02*
X138954819Y-109190475D01*
X138954819Y-109190475D02*
X138954819Y-108952380D01*
X138954819Y-108952380D02*
X138907200Y-108857142D01*
X138907200Y-108857142D02*
X138859580Y-108809523D01*
X138859580Y-108809523D02*
X138764342Y-108761904D01*
X138764342Y-108761904D02*
X138669104Y-108761904D01*
X138669104Y-108761904D02*
X138573866Y-108809523D01*
X138573866Y-108809523D02*
X138526247Y-108857142D01*
X138526247Y-108857142D02*
X138478628Y-108952380D01*
X138478628Y-108952380D02*
X138431009Y-109142856D01*
X138431009Y-109142856D02*
X138383390Y-109238094D01*
X138383390Y-109238094D02*
X138335771Y-109285713D01*
X138335771Y-109285713D02*
X138240533Y-109333332D01*
X138240533Y-109333332D02*
X138145295Y-109333332D01*
X138145295Y-109333332D02*
X138050057Y-109285713D01*
X138050057Y-109285713D02*
X138002438Y-109238094D01*
X138002438Y-109238094D02*
X137954819Y-109142856D01*
X137954819Y-109142856D02*
X137954819Y-108904761D01*
X137954819Y-108904761D02*
X138002438Y-108761904D01*
X137954819Y-108428570D02*
X138954819Y-108190475D01*
X138954819Y-108190475D02*
X138240533Y-107999999D01*
X138240533Y-107999999D02*
X138954819Y-107809523D01*
X138954819Y-107809523D02*
X137954819Y-107571428D01*
X138288152Y-106761904D02*
X138954819Y-106761904D01*
X137907200Y-106999999D02*
X138621485Y-107238094D01*
X138621485Y-107238094D02*
X138621485Y-106619047D01*
X126954819Y-74142857D02*
X126478628Y-74476190D01*
X126954819Y-74714285D02*
X125954819Y-74714285D01*
X125954819Y-74714285D02*
X125954819Y-74333333D01*
X125954819Y-74333333D02*
X126002438Y-74238095D01*
X126002438Y-74238095D02*
X126050057Y-74190476D01*
X126050057Y-74190476D02*
X126145295Y-74142857D01*
X126145295Y-74142857D02*
X126288152Y-74142857D01*
X126288152Y-74142857D02*
X126383390Y-74190476D01*
X126383390Y-74190476D02*
X126431009Y-74238095D01*
X126431009Y-74238095D02*
X126478628Y-74333333D01*
X126478628Y-74333333D02*
X126478628Y-74714285D01*
X126954819Y-73190476D02*
X126954819Y-73761904D01*
X126954819Y-73476190D02*
X125954819Y-73476190D01*
X125954819Y-73476190D02*
X126097676Y-73571428D01*
X126097676Y-73571428D02*
X126192914Y-73666666D01*
X126192914Y-73666666D02*
X126240533Y-73761904D01*
X126288152Y-72333333D02*
X126954819Y-72333333D01*
X125907200Y-72571428D02*
X126621485Y-72809523D01*
X126621485Y-72809523D02*
X126621485Y-72190476D01*
X122199405Y-95104819D02*
X122199405Y-94104819D01*
X122199405Y-94104819D02*
X122437500Y-94104819D01*
X122437500Y-94104819D02*
X122580357Y-94152438D01*
X122580357Y-94152438D02*
X122675595Y-94247676D01*
X122675595Y-94247676D02*
X122723214Y-94342914D01*
X122723214Y-94342914D02*
X122770833Y-94533390D01*
X122770833Y-94533390D02*
X122770833Y-94676247D01*
X122770833Y-94676247D02*
X122723214Y-94866723D01*
X122723214Y-94866723D02*
X122675595Y-94961961D01*
X122675595Y-94961961D02*
X122580357Y-95057200D01*
X122580357Y-95057200D02*
X122437500Y-95104819D01*
X122437500Y-95104819D02*
X122199405Y-95104819D01*
X123627976Y-94438152D02*
X123627976Y-95104819D01*
X123389881Y-94057200D02*
X123151786Y-94771485D01*
X123151786Y-94771485D02*
X123770833Y-94771485D01*
X137954819Y-61833333D02*
X138669104Y-61833333D01*
X138669104Y-61833333D02*
X138811961Y-61880952D01*
X138811961Y-61880952D02*
X138907200Y-61976190D01*
X138907200Y-61976190D02*
X138954819Y-62119047D01*
X138954819Y-62119047D02*
X138954819Y-62214285D01*
X138050057Y-61404761D02*
X138002438Y-61357142D01*
X138002438Y-61357142D02*
X137954819Y-61261904D01*
X137954819Y-61261904D02*
X137954819Y-61023809D01*
X137954819Y-61023809D02*
X138002438Y-60928571D01*
X138002438Y-60928571D02*
X138050057Y-60880952D01*
X138050057Y-60880952D02*
X138145295Y-60833333D01*
X138145295Y-60833333D02*
X138240533Y-60833333D01*
X138240533Y-60833333D02*
X138383390Y-60880952D01*
X138383390Y-60880952D02*
X138954819Y-61452380D01*
X138954819Y-61452380D02*
X138954819Y-60833333D01*
X126954819Y-96166666D02*
X126478628Y-96499999D01*
X126954819Y-96738094D02*
X125954819Y-96738094D01*
X125954819Y-96738094D02*
X125954819Y-96357142D01*
X125954819Y-96357142D02*
X126002438Y-96261904D01*
X126002438Y-96261904D02*
X126050057Y-96214285D01*
X126050057Y-96214285D02*
X126145295Y-96166666D01*
X126145295Y-96166666D02*
X126288152Y-96166666D01*
X126288152Y-96166666D02*
X126383390Y-96214285D01*
X126383390Y-96214285D02*
X126431009Y-96261904D01*
X126431009Y-96261904D02*
X126478628Y-96357142D01*
X126478628Y-96357142D02*
X126478628Y-96738094D01*
X126383390Y-95595237D02*
X126335771Y-95690475D01*
X126335771Y-95690475D02*
X126288152Y-95738094D01*
X126288152Y-95738094D02*
X126192914Y-95785713D01*
X126192914Y-95785713D02*
X126145295Y-95785713D01*
X126145295Y-95785713D02*
X126050057Y-95738094D01*
X126050057Y-95738094D02*
X126002438Y-95690475D01*
X126002438Y-95690475D02*
X125954819Y-95595237D01*
X125954819Y-95595237D02*
X125954819Y-95404761D01*
X125954819Y-95404761D02*
X126002438Y-95309523D01*
X126002438Y-95309523D02*
X126050057Y-95261904D01*
X126050057Y-95261904D02*
X126145295Y-95214285D01*
X126145295Y-95214285D02*
X126192914Y-95214285D01*
X126192914Y-95214285D02*
X126288152Y-95261904D01*
X126288152Y-95261904D02*
X126335771Y-95309523D01*
X126335771Y-95309523D02*
X126383390Y-95404761D01*
X126383390Y-95404761D02*
X126383390Y-95595237D01*
X126383390Y-95595237D02*
X126431009Y-95690475D01*
X126431009Y-95690475D02*
X126478628Y-95738094D01*
X126478628Y-95738094D02*
X126573866Y-95785713D01*
X126573866Y-95785713D02*
X126764342Y-95785713D01*
X126764342Y-95785713D02*
X126859580Y-95738094D01*
X126859580Y-95738094D02*
X126907200Y-95690475D01*
X126907200Y-95690475D02*
X126954819Y-95595237D01*
X126954819Y-95595237D02*
X126954819Y-95404761D01*
X126954819Y-95404761D02*
X126907200Y-95309523D01*
X126907200Y-95309523D02*
X126859580Y-95261904D01*
X126859580Y-95261904D02*
X126764342Y-95214285D01*
X126764342Y-95214285D02*
X126573866Y-95214285D01*
X126573866Y-95214285D02*
X126478628Y-95261904D01*
X126478628Y-95261904D02*
X126431009Y-95309523D01*
X126431009Y-95309523D02*
X126383390Y-95404761D01*
X171261905Y-60806819D02*
X171833333Y-60806819D01*
X171547619Y-61806819D02*
X171547619Y-60806819D01*
X172166667Y-61806819D02*
X172166667Y-60806819D01*
X172166667Y-60806819D02*
X172547619Y-60806819D01*
X172547619Y-60806819D02*
X172642857Y-60854438D01*
X172642857Y-60854438D02*
X172690476Y-60902057D01*
X172690476Y-60902057D02*
X172738095Y-60997295D01*
X172738095Y-60997295D02*
X172738095Y-61140152D01*
X172738095Y-61140152D02*
X172690476Y-61235390D01*
X172690476Y-61235390D02*
X172642857Y-61283009D01*
X172642857Y-61283009D02*
X172547619Y-61330628D01*
X172547619Y-61330628D02*
X172166667Y-61330628D01*
X173690476Y-61806819D02*
X173119048Y-61806819D01*
X173404762Y-61806819D02*
X173404762Y-60806819D01*
X173404762Y-60806819D02*
X173309524Y-60949676D01*
X173309524Y-60949676D02*
X173214286Y-61044914D01*
X173214286Y-61044914D02*
X173119048Y-61092533D01*
X174642857Y-61806819D02*
X174071429Y-61806819D01*
X174357143Y-61806819D02*
X174357143Y-60806819D01*
X174357143Y-60806819D02*
X174261905Y-60949676D01*
X174261905Y-60949676D02*
X174166667Y-61044914D01*
X174166667Y-61044914D02*
X174071429Y-61092533D01*
X126954819Y-123261904D02*
X127764342Y-123261904D01*
X127764342Y-123261904D02*
X127859580Y-123214285D01*
X127859580Y-123214285D02*
X127907200Y-123166666D01*
X127907200Y-123166666D02*
X127954819Y-123071428D01*
X127954819Y-123071428D02*
X127954819Y-122880952D01*
X127954819Y-122880952D02*
X127907200Y-122785714D01*
X127907200Y-122785714D02*
X127859580Y-122738095D01*
X127859580Y-122738095D02*
X127764342Y-122690476D01*
X127764342Y-122690476D02*
X126954819Y-122690476D01*
X127288152Y-121785714D02*
X127954819Y-121785714D01*
X126907200Y-122023809D02*
X127621485Y-122261904D01*
X127621485Y-122261904D02*
X127621485Y-121642857D01*
X167261905Y-60806819D02*
X167833333Y-60806819D01*
X167547619Y-61806819D02*
X167547619Y-60806819D01*
X168166667Y-61806819D02*
X168166667Y-60806819D01*
X168166667Y-60806819D02*
X168547619Y-60806819D01*
X168547619Y-60806819D02*
X168642857Y-60854438D01*
X168642857Y-60854438D02*
X168690476Y-60902057D01*
X168690476Y-60902057D02*
X168738095Y-60997295D01*
X168738095Y-60997295D02*
X168738095Y-61140152D01*
X168738095Y-61140152D02*
X168690476Y-61235390D01*
X168690476Y-61235390D02*
X168642857Y-61283009D01*
X168642857Y-61283009D02*
X168547619Y-61330628D01*
X168547619Y-61330628D02*
X168166667Y-61330628D01*
X169690476Y-61806819D02*
X169119048Y-61806819D01*
X169404762Y-61806819D02*
X169404762Y-60806819D01*
X169404762Y-60806819D02*
X169309524Y-60949676D01*
X169309524Y-60949676D02*
X169214286Y-61044914D01*
X169214286Y-61044914D02*
X169119048Y-61092533D01*
X170309524Y-60806819D02*
X170404762Y-60806819D01*
X170404762Y-60806819D02*
X170500000Y-60854438D01*
X170500000Y-60854438D02*
X170547619Y-60902057D01*
X170547619Y-60902057D02*
X170595238Y-60997295D01*
X170595238Y-60997295D02*
X170642857Y-61187771D01*
X170642857Y-61187771D02*
X170642857Y-61425866D01*
X170642857Y-61425866D02*
X170595238Y-61616342D01*
X170595238Y-61616342D02*
X170547619Y-61711580D01*
X170547619Y-61711580D02*
X170500000Y-61759200D01*
X170500000Y-61759200D02*
X170404762Y-61806819D01*
X170404762Y-61806819D02*
X170309524Y-61806819D01*
X170309524Y-61806819D02*
X170214286Y-61759200D01*
X170214286Y-61759200D02*
X170166667Y-61711580D01*
X170166667Y-61711580D02*
X170119048Y-61616342D01*
X170119048Y-61616342D02*
X170071429Y-61425866D01*
X170071429Y-61425866D02*
X170071429Y-61187771D01*
X170071429Y-61187771D02*
X170119048Y-60997295D01*
X170119048Y-60997295D02*
X170166667Y-60902057D01*
X170166667Y-60902057D02*
X170214286Y-60854438D01*
X170214286Y-60854438D02*
X170309524Y-60806819D01*
X160333333Y-127804819D02*
X160000000Y-127328628D01*
X159761905Y-127804819D02*
X159761905Y-126804819D01*
X159761905Y-126804819D02*
X160142857Y-126804819D01*
X160142857Y-126804819D02*
X160238095Y-126852438D01*
X160238095Y-126852438D02*
X160285714Y-126900057D01*
X160285714Y-126900057D02*
X160333333Y-126995295D01*
X160333333Y-126995295D02*
X160333333Y-127138152D01*
X160333333Y-127138152D02*
X160285714Y-127233390D01*
X160285714Y-127233390D02*
X160238095Y-127281009D01*
X160238095Y-127281009D02*
X160142857Y-127328628D01*
X160142857Y-127328628D02*
X159761905Y-127328628D01*
X160666667Y-126804819D02*
X161285714Y-126804819D01*
X161285714Y-126804819D02*
X160952381Y-127185771D01*
X160952381Y-127185771D02*
X161095238Y-127185771D01*
X161095238Y-127185771D02*
X161190476Y-127233390D01*
X161190476Y-127233390D02*
X161238095Y-127281009D01*
X161238095Y-127281009D02*
X161285714Y-127376247D01*
X161285714Y-127376247D02*
X161285714Y-127614342D01*
X161285714Y-127614342D02*
X161238095Y-127709580D01*
X161238095Y-127709580D02*
X161190476Y-127757200D01*
X161190476Y-127757200D02*
X161095238Y-127804819D01*
X161095238Y-127804819D02*
X160809524Y-127804819D01*
X160809524Y-127804819D02*
X160714286Y-127757200D01*
X160714286Y-127757200D02*
X160666667Y-127709580D01*
X170745833Y-132804819D02*
X170412500Y-132328628D01*
X170174405Y-132804819D02*
X170174405Y-131804819D01*
X170174405Y-131804819D02*
X170555357Y-131804819D01*
X170555357Y-131804819D02*
X170650595Y-131852438D01*
X170650595Y-131852438D02*
X170698214Y-131900057D01*
X170698214Y-131900057D02*
X170745833Y-131995295D01*
X170745833Y-131995295D02*
X170745833Y-132138152D01*
X170745833Y-132138152D02*
X170698214Y-132233390D01*
X170698214Y-132233390D02*
X170650595Y-132281009D01*
X170650595Y-132281009D02*
X170555357Y-132328628D01*
X170555357Y-132328628D02*
X170174405Y-132328628D01*
X171698214Y-132804819D02*
X171126786Y-132804819D01*
X171412500Y-132804819D02*
X171412500Y-131804819D01*
X171412500Y-131804819D02*
X171317262Y-131947676D01*
X171317262Y-131947676D02*
X171222024Y-132042914D01*
X171222024Y-132042914D02*
X171126786Y-132090533D01*
X165357142Y-74954819D02*
X165023809Y-74478628D01*
X164785714Y-74954819D02*
X164785714Y-73954819D01*
X164785714Y-73954819D02*
X165166666Y-73954819D01*
X165166666Y-73954819D02*
X165261904Y-74002438D01*
X165261904Y-74002438D02*
X165309523Y-74050057D01*
X165309523Y-74050057D02*
X165357142Y-74145295D01*
X165357142Y-74145295D02*
X165357142Y-74288152D01*
X165357142Y-74288152D02*
X165309523Y-74383390D01*
X165309523Y-74383390D02*
X165261904Y-74431009D01*
X165261904Y-74431009D02*
X165166666Y-74478628D01*
X165166666Y-74478628D02*
X164785714Y-74478628D01*
X166309523Y-74954819D02*
X165738095Y-74954819D01*
X166023809Y-74954819D02*
X166023809Y-73954819D01*
X166023809Y-73954819D02*
X165928571Y-74097676D01*
X165928571Y-74097676D02*
X165833333Y-74192914D01*
X165833333Y-74192914D02*
X165738095Y-74240533D01*
X166642857Y-73954819D02*
X167261904Y-73954819D01*
X167261904Y-73954819D02*
X166928571Y-74335771D01*
X166928571Y-74335771D02*
X167071428Y-74335771D01*
X167071428Y-74335771D02*
X167166666Y-74383390D01*
X167166666Y-74383390D02*
X167214285Y-74431009D01*
X167214285Y-74431009D02*
X167261904Y-74526247D01*
X167261904Y-74526247D02*
X167261904Y-74764342D01*
X167261904Y-74764342D02*
X167214285Y-74859580D01*
X167214285Y-74859580D02*
X167166666Y-74907200D01*
X167166666Y-74907200D02*
X167071428Y-74954819D01*
X167071428Y-74954819D02*
X166785714Y-74954819D01*
X166785714Y-74954819D02*
X166690476Y-74907200D01*
X166690476Y-74907200D02*
X166642857Y-74859580D01*
X177357142Y-118454819D02*
X177023809Y-117978628D01*
X176785714Y-118454819D02*
X176785714Y-117454819D01*
X176785714Y-117454819D02*
X177166666Y-117454819D01*
X177166666Y-117454819D02*
X177261904Y-117502438D01*
X177261904Y-117502438D02*
X177309523Y-117550057D01*
X177309523Y-117550057D02*
X177357142Y-117645295D01*
X177357142Y-117645295D02*
X177357142Y-117788152D01*
X177357142Y-117788152D02*
X177309523Y-117883390D01*
X177309523Y-117883390D02*
X177261904Y-117931009D01*
X177261904Y-117931009D02*
X177166666Y-117978628D01*
X177166666Y-117978628D02*
X176785714Y-117978628D01*
X178309523Y-118454819D02*
X177738095Y-118454819D01*
X178023809Y-118454819D02*
X178023809Y-117454819D01*
X178023809Y-117454819D02*
X177928571Y-117597676D01*
X177928571Y-117597676D02*
X177833333Y-117692914D01*
X177833333Y-117692914D02*
X177738095Y-117740533D01*
X179261904Y-118454819D02*
X178690476Y-118454819D01*
X178976190Y-118454819D02*
X178976190Y-117454819D01*
X178976190Y-117454819D02*
X178880952Y-117597676D01*
X178880952Y-117597676D02*
X178785714Y-117692914D01*
X178785714Y-117692914D02*
X178690476Y-117740533D01*
X124954819Y-87666666D02*
X124478628Y-87999999D01*
X124954819Y-88238094D02*
X123954819Y-88238094D01*
X123954819Y-88238094D02*
X123954819Y-87857142D01*
X123954819Y-87857142D02*
X124002438Y-87761904D01*
X124002438Y-87761904D02*
X124050057Y-87714285D01*
X124050057Y-87714285D02*
X124145295Y-87666666D01*
X124145295Y-87666666D02*
X124288152Y-87666666D01*
X124288152Y-87666666D02*
X124383390Y-87714285D01*
X124383390Y-87714285D02*
X124431009Y-87761904D01*
X124431009Y-87761904D02*
X124478628Y-87857142D01*
X124478628Y-87857142D02*
X124478628Y-88238094D01*
X123954819Y-87333332D02*
X123954819Y-86666666D01*
X123954819Y-86666666D02*
X124954819Y-87095237D01*
X137666666Y-131554819D02*
X137666666Y-132269104D01*
X137666666Y-132269104D02*
X137619047Y-132411961D01*
X137619047Y-132411961D02*
X137523809Y-132507200D01*
X137523809Y-132507200D02*
X137380952Y-132554819D01*
X137380952Y-132554819D02*
X137285714Y-132554819D01*
X138047619Y-131554819D02*
X138666666Y-131554819D01*
X138666666Y-131554819D02*
X138333333Y-131935771D01*
X138333333Y-131935771D02*
X138476190Y-131935771D01*
X138476190Y-131935771D02*
X138571428Y-131983390D01*
X138571428Y-131983390D02*
X138619047Y-132031009D01*
X138619047Y-132031009D02*
X138666666Y-132126247D01*
X138666666Y-132126247D02*
X138666666Y-132364342D01*
X138666666Y-132364342D02*
X138619047Y-132459580D01*
X138619047Y-132459580D02*
X138571428Y-132507200D01*
X138571428Y-132507200D02*
X138476190Y-132554819D01*
X138476190Y-132554819D02*
X138190476Y-132554819D01*
X138190476Y-132554819D02*
X138095238Y-132507200D01*
X138095238Y-132507200D02*
X138047619Y-132459580D01*
X147359580Y-103416666D02*
X147407200Y-103464285D01*
X147407200Y-103464285D02*
X147454819Y-103607142D01*
X147454819Y-103607142D02*
X147454819Y-103702380D01*
X147454819Y-103702380D02*
X147407200Y-103845237D01*
X147407200Y-103845237D02*
X147311961Y-103940475D01*
X147311961Y-103940475D02*
X147216723Y-103988094D01*
X147216723Y-103988094D02*
X147026247Y-104035713D01*
X147026247Y-104035713D02*
X146883390Y-104035713D01*
X146883390Y-104035713D02*
X146692914Y-103988094D01*
X146692914Y-103988094D02*
X146597676Y-103940475D01*
X146597676Y-103940475D02*
X146502438Y-103845237D01*
X146502438Y-103845237D02*
X146454819Y-103702380D01*
X146454819Y-103702380D02*
X146454819Y-103607142D01*
X146454819Y-103607142D02*
X146502438Y-103464285D01*
X146502438Y-103464285D02*
X146550057Y-103416666D01*
X147454819Y-102940475D02*
X147454819Y-102749999D01*
X147454819Y-102749999D02*
X147407200Y-102654761D01*
X147407200Y-102654761D02*
X147359580Y-102607142D01*
X147359580Y-102607142D02*
X147216723Y-102511904D01*
X147216723Y-102511904D02*
X147026247Y-102464285D01*
X147026247Y-102464285D02*
X146645295Y-102464285D01*
X146645295Y-102464285D02*
X146550057Y-102511904D01*
X146550057Y-102511904D02*
X146502438Y-102559523D01*
X146502438Y-102559523D02*
X146454819Y-102654761D01*
X146454819Y-102654761D02*
X146454819Y-102845237D01*
X146454819Y-102845237D02*
X146502438Y-102940475D01*
X146502438Y-102940475D02*
X146550057Y-102988094D01*
X146550057Y-102988094D02*
X146645295Y-103035713D01*
X146645295Y-103035713D02*
X146883390Y-103035713D01*
X146883390Y-103035713D02*
X146978628Y-102988094D01*
X146978628Y-102988094D02*
X147026247Y-102940475D01*
X147026247Y-102940475D02*
X147073866Y-102845237D01*
X147073866Y-102845237D02*
X147073866Y-102654761D01*
X147073866Y-102654761D02*
X147026247Y-102559523D01*
X147026247Y-102559523D02*
X146978628Y-102511904D01*
X146978628Y-102511904D02*
X146883390Y-102464285D01*
X152454819Y-135761904D02*
X153264342Y-135761904D01*
X153264342Y-135761904D02*
X153359580Y-135714285D01*
X153359580Y-135714285D02*
X153407200Y-135666666D01*
X153407200Y-135666666D02*
X153454819Y-135571428D01*
X153454819Y-135571428D02*
X153454819Y-135380952D01*
X153454819Y-135380952D02*
X153407200Y-135285714D01*
X153407200Y-135285714D02*
X153359580Y-135238095D01*
X153359580Y-135238095D02*
X153264342Y-135190476D01*
X153264342Y-135190476D02*
X152454819Y-135190476D01*
X152454819Y-134809523D02*
X152454819Y-134190476D01*
X152454819Y-134190476D02*
X152835771Y-134523809D01*
X152835771Y-134523809D02*
X152835771Y-134380952D01*
X152835771Y-134380952D02*
X152883390Y-134285714D01*
X152883390Y-134285714D02*
X152931009Y-134238095D01*
X152931009Y-134238095D02*
X153026247Y-134190476D01*
X153026247Y-134190476D02*
X153264342Y-134190476D01*
X153264342Y-134190476D02*
X153359580Y-134238095D01*
X153359580Y-134238095D02*
X153407200Y-134285714D01*
X153407200Y-134285714D02*
X153454819Y-134380952D01*
X153454819Y-134380952D02*
X153454819Y-134666666D01*
X153454819Y-134666666D02*
X153407200Y-134761904D01*
X153407200Y-134761904D02*
X153359580Y-134809523D01*
X131904819Y-127583333D02*
X132619104Y-127583333D01*
X132619104Y-127583333D02*
X132761961Y-127630952D01*
X132761961Y-127630952D02*
X132857200Y-127726190D01*
X132857200Y-127726190D02*
X132904819Y-127869047D01*
X132904819Y-127869047D02*
X132904819Y-127964285D01*
X131904819Y-126630952D02*
X131904819Y-127107142D01*
X131904819Y-127107142D02*
X132381009Y-127154761D01*
X132381009Y-127154761D02*
X132333390Y-127107142D01*
X132333390Y-127107142D02*
X132285771Y-127011904D01*
X132285771Y-127011904D02*
X132285771Y-126773809D01*
X132285771Y-126773809D02*
X132333390Y-126678571D01*
X132333390Y-126678571D02*
X132381009Y-126630952D01*
X132381009Y-126630952D02*
X132476247Y-126583333D01*
X132476247Y-126583333D02*
X132714342Y-126583333D01*
X132714342Y-126583333D02*
X132809580Y-126630952D01*
X132809580Y-126630952D02*
X132857200Y-126678571D01*
X132857200Y-126678571D02*
X132904819Y-126773809D01*
X132904819Y-126773809D02*
X132904819Y-127011904D01*
X132904819Y-127011904D02*
X132857200Y-127107142D01*
X132857200Y-127107142D02*
X132809580Y-127154761D01*
X161104819Y-125466666D02*
X160628628Y-125799999D01*
X161104819Y-126038094D02*
X160104819Y-126038094D01*
X160104819Y-126038094D02*
X160104819Y-125657142D01*
X160104819Y-125657142D02*
X160152438Y-125561904D01*
X160152438Y-125561904D02*
X160200057Y-125514285D01*
X160200057Y-125514285D02*
X160295295Y-125466666D01*
X160295295Y-125466666D02*
X160438152Y-125466666D01*
X160438152Y-125466666D02*
X160533390Y-125514285D01*
X160533390Y-125514285D02*
X160581009Y-125561904D01*
X160581009Y-125561904D02*
X160628628Y-125657142D01*
X160628628Y-125657142D02*
X160628628Y-126038094D01*
X160438152Y-124609523D02*
X161104819Y-124609523D01*
X160057200Y-124847618D02*
X160771485Y-125085713D01*
X160771485Y-125085713D02*
X160771485Y-124466666D01*
X147454819Y-108416666D02*
X146978628Y-108749999D01*
X147454819Y-108988094D02*
X146454819Y-108988094D01*
X146454819Y-108988094D02*
X146454819Y-108607142D01*
X146454819Y-108607142D02*
X146502438Y-108511904D01*
X146502438Y-108511904D02*
X146550057Y-108464285D01*
X146550057Y-108464285D02*
X146645295Y-108416666D01*
X146645295Y-108416666D02*
X146788152Y-108416666D01*
X146788152Y-108416666D02*
X146883390Y-108464285D01*
X146883390Y-108464285D02*
X146931009Y-108511904D01*
X146931009Y-108511904D02*
X146978628Y-108607142D01*
X146978628Y-108607142D02*
X146978628Y-108988094D01*
X146454819Y-107559523D02*
X146454819Y-107749999D01*
X146454819Y-107749999D02*
X146502438Y-107845237D01*
X146502438Y-107845237D02*
X146550057Y-107892856D01*
X146550057Y-107892856D02*
X146692914Y-107988094D01*
X146692914Y-107988094D02*
X146883390Y-108035713D01*
X146883390Y-108035713D02*
X147264342Y-108035713D01*
X147264342Y-108035713D02*
X147359580Y-107988094D01*
X147359580Y-107988094D02*
X147407200Y-107940475D01*
X147407200Y-107940475D02*
X147454819Y-107845237D01*
X147454819Y-107845237D02*
X147454819Y-107654761D01*
X147454819Y-107654761D02*
X147407200Y-107559523D01*
X147407200Y-107559523D02*
X147359580Y-107511904D01*
X147359580Y-107511904D02*
X147264342Y-107464285D01*
X147264342Y-107464285D02*
X147026247Y-107464285D01*
X147026247Y-107464285D02*
X146931009Y-107511904D01*
X146931009Y-107511904D02*
X146883390Y-107559523D01*
X146883390Y-107559523D02*
X146835771Y-107654761D01*
X146835771Y-107654761D02*
X146835771Y-107845237D01*
X146835771Y-107845237D02*
X146883390Y-107940475D01*
X146883390Y-107940475D02*
X146931009Y-107988094D01*
X146931009Y-107988094D02*
X147026247Y-108035713D01*
X165654819Y-93488094D02*
X166464342Y-93488094D01*
X166464342Y-93488094D02*
X166559580Y-93440475D01*
X166559580Y-93440475D02*
X166607200Y-93392856D01*
X166607200Y-93392856D02*
X166654819Y-93297618D01*
X166654819Y-93297618D02*
X166654819Y-93107142D01*
X166654819Y-93107142D02*
X166607200Y-93011904D01*
X166607200Y-93011904D02*
X166559580Y-92964285D01*
X166559580Y-92964285D02*
X166464342Y-92916666D01*
X166464342Y-92916666D02*
X165654819Y-92916666D01*
X166607200Y-92488094D02*
X166654819Y-92345237D01*
X166654819Y-92345237D02*
X166654819Y-92107142D01*
X166654819Y-92107142D02*
X166607200Y-92011904D01*
X166607200Y-92011904D02*
X166559580Y-91964285D01*
X166559580Y-91964285D02*
X166464342Y-91916666D01*
X166464342Y-91916666D02*
X166369104Y-91916666D01*
X166369104Y-91916666D02*
X166273866Y-91964285D01*
X166273866Y-91964285D02*
X166226247Y-92011904D01*
X166226247Y-92011904D02*
X166178628Y-92107142D01*
X166178628Y-92107142D02*
X166131009Y-92297618D01*
X166131009Y-92297618D02*
X166083390Y-92392856D01*
X166083390Y-92392856D02*
X166035771Y-92440475D01*
X166035771Y-92440475D02*
X165940533Y-92488094D01*
X165940533Y-92488094D02*
X165845295Y-92488094D01*
X165845295Y-92488094D02*
X165750057Y-92440475D01*
X165750057Y-92440475D02*
X165702438Y-92392856D01*
X165702438Y-92392856D02*
X165654819Y-92297618D01*
X165654819Y-92297618D02*
X165654819Y-92059523D01*
X165654819Y-92059523D02*
X165702438Y-91916666D01*
X166131009Y-91154761D02*
X166178628Y-91011904D01*
X166178628Y-91011904D02*
X166226247Y-90964285D01*
X166226247Y-90964285D02*
X166321485Y-90916666D01*
X166321485Y-90916666D02*
X166464342Y-90916666D01*
X166464342Y-90916666D02*
X166559580Y-90964285D01*
X166559580Y-90964285D02*
X166607200Y-91011904D01*
X166607200Y-91011904D02*
X166654819Y-91107142D01*
X166654819Y-91107142D02*
X166654819Y-91488094D01*
X166654819Y-91488094D02*
X165654819Y-91488094D01*
X165654819Y-91488094D02*
X165654819Y-91154761D01*
X165654819Y-91154761D02*
X165702438Y-91059523D01*
X165702438Y-91059523D02*
X165750057Y-91011904D01*
X165750057Y-91011904D02*
X165845295Y-90964285D01*
X165845295Y-90964285D02*
X165940533Y-90964285D01*
X165940533Y-90964285D02*
X166035771Y-91011904D01*
X166035771Y-91011904D02*
X166083390Y-91059523D01*
X166083390Y-91059523D02*
X166131009Y-91154761D01*
X166131009Y-91154761D02*
X166131009Y-91488094D01*
X166654819Y-89964285D02*
X166654819Y-90535713D01*
X166654819Y-90249999D02*
X165654819Y-90249999D01*
X165654819Y-90249999D02*
X165797676Y-90345237D01*
X165797676Y-90345237D02*
X165892914Y-90440475D01*
X165892914Y-90440475D02*
X165940533Y-90535713D01*
X147745833Y-138954819D02*
X147412500Y-138478628D01*
X147174405Y-138954819D02*
X147174405Y-137954819D01*
X147174405Y-137954819D02*
X147555357Y-137954819D01*
X147555357Y-137954819D02*
X147650595Y-138002438D01*
X147650595Y-138002438D02*
X147698214Y-138050057D01*
X147698214Y-138050057D02*
X147745833Y-138145295D01*
X147745833Y-138145295D02*
X147745833Y-138288152D01*
X147745833Y-138288152D02*
X147698214Y-138383390D01*
X147698214Y-138383390D02*
X147650595Y-138431009D01*
X147650595Y-138431009D02*
X147555357Y-138478628D01*
X147555357Y-138478628D02*
X147174405Y-138478628D01*
X148650595Y-137954819D02*
X148174405Y-137954819D01*
X148174405Y-137954819D02*
X148126786Y-138431009D01*
X148126786Y-138431009D02*
X148174405Y-138383390D01*
X148174405Y-138383390D02*
X148269643Y-138335771D01*
X148269643Y-138335771D02*
X148507738Y-138335771D01*
X148507738Y-138335771D02*
X148602976Y-138383390D01*
X148602976Y-138383390D02*
X148650595Y-138431009D01*
X148650595Y-138431009D02*
X148698214Y-138526247D01*
X148698214Y-138526247D02*
X148698214Y-138764342D01*
X148698214Y-138764342D02*
X148650595Y-138859580D01*
X148650595Y-138859580D02*
X148602976Y-138907200D01*
X148602976Y-138907200D02*
X148507738Y-138954819D01*
X148507738Y-138954819D02*
X148269643Y-138954819D01*
X148269643Y-138954819D02*
X148174405Y-138907200D01*
X148174405Y-138907200D02*
X148126786Y-138859580D01*
X148738095Y-119352819D02*
X149309523Y-119352819D01*
X149023809Y-120352819D02*
X149023809Y-119352819D01*
X149642857Y-120352819D02*
X149642857Y-119352819D01*
X149642857Y-119352819D02*
X150023809Y-119352819D01*
X150023809Y-119352819D02*
X150119047Y-119400438D01*
X150119047Y-119400438D02*
X150166666Y-119448057D01*
X150166666Y-119448057D02*
X150214285Y-119543295D01*
X150214285Y-119543295D02*
X150214285Y-119686152D01*
X150214285Y-119686152D02*
X150166666Y-119781390D01*
X150166666Y-119781390D02*
X150119047Y-119829009D01*
X150119047Y-119829009D02*
X150023809Y-119876628D01*
X150023809Y-119876628D02*
X149642857Y-119876628D01*
X151071428Y-119686152D02*
X151071428Y-120352819D01*
X150833333Y-119305200D02*
X150595238Y-120019485D01*
X150595238Y-120019485D02*
X151214285Y-120019485D01*
X142938095Y-90454819D02*
X142938095Y-91264342D01*
X142938095Y-91264342D02*
X142985714Y-91359580D01*
X142985714Y-91359580D02*
X143033333Y-91407200D01*
X143033333Y-91407200D02*
X143128571Y-91454819D01*
X143128571Y-91454819D02*
X143319047Y-91454819D01*
X143319047Y-91454819D02*
X143414285Y-91407200D01*
X143414285Y-91407200D02*
X143461904Y-91359580D01*
X143461904Y-91359580D02*
X143509523Y-91264342D01*
X143509523Y-91264342D02*
X143509523Y-90454819D01*
X144461904Y-90454819D02*
X143985714Y-90454819D01*
X143985714Y-90454819D02*
X143938095Y-90931009D01*
X143938095Y-90931009D02*
X143985714Y-90883390D01*
X143985714Y-90883390D02*
X144080952Y-90835771D01*
X144080952Y-90835771D02*
X144319047Y-90835771D01*
X144319047Y-90835771D02*
X144414285Y-90883390D01*
X144414285Y-90883390D02*
X144461904Y-90931009D01*
X144461904Y-90931009D02*
X144509523Y-91026247D01*
X144509523Y-91026247D02*
X144509523Y-91264342D01*
X144509523Y-91264342D02*
X144461904Y-91359580D01*
X144461904Y-91359580D02*
X144414285Y-91407200D01*
X144414285Y-91407200D02*
X144319047Y-91454819D01*
X144319047Y-91454819D02*
X144080952Y-91454819D01*
X144080952Y-91454819D02*
X143985714Y-91407200D01*
X143985714Y-91407200D02*
X143938095Y-91359580D01*
X148407142Y-112502080D02*
X148359523Y-112549700D01*
X148359523Y-112549700D02*
X148216666Y-112597319D01*
X148216666Y-112597319D02*
X148121428Y-112597319D01*
X148121428Y-112597319D02*
X147978571Y-112549700D01*
X147978571Y-112549700D02*
X147883333Y-112454461D01*
X147883333Y-112454461D02*
X147835714Y-112359223D01*
X147835714Y-112359223D02*
X147788095Y-112168747D01*
X147788095Y-112168747D02*
X147788095Y-112025890D01*
X147788095Y-112025890D02*
X147835714Y-111835414D01*
X147835714Y-111835414D02*
X147883333Y-111740176D01*
X147883333Y-111740176D02*
X147978571Y-111644938D01*
X147978571Y-111644938D02*
X148121428Y-111597319D01*
X148121428Y-111597319D02*
X148216666Y-111597319D01*
X148216666Y-111597319D02*
X148359523Y-111644938D01*
X148359523Y-111644938D02*
X148407142Y-111692557D01*
X149359523Y-112597319D02*
X148788095Y-112597319D01*
X149073809Y-112597319D02*
X149073809Y-111597319D01*
X149073809Y-111597319D02*
X148978571Y-111740176D01*
X148978571Y-111740176D02*
X148883333Y-111835414D01*
X148883333Y-111835414D02*
X148788095Y-111883033D01*
X150311904Y-112597319D02*
X149740476Y-112597319D01*
X150026190Y-112597319D02*
X150026190Y-111597319D01*
X150026190Y-111597319D02*
X149930952Y-111740176D01*
X149930952Y-111740176D02*
X149835714Y-111835414D01*
X149835714Y-111835414D02*
X149740476Y-111883033D01*
X131357142Y-78359580D02*
X131309523Y-78407200D01*
X131309523Y-78407200D02*
X131166666Y-78454819D01*
X131166666Y-78454819D02*
X131071428Y-78454819D01*
X131071428Y-78454819D02*
X130928571Y-78407200D01*
X130928571Y-78407200D02*
X130833333Y-78311961D01*
X130833333Y-78311961D02*
X130785714Y-78216723D01*
X130785714Y-78216723D02*
X130738095Y-78026247D01*
X130738095Y-78026247D02*
X130738095Y-77883390D01*
X130738095Y-77883390D02*
X130785714Y-77692914D01*
X130785714Y-77692914D02*
X130833333Y-77597676D01*
X130833333Y-77597676D02*
X130928571Y-77502438D01*
X130928571Y-77502438D02*
X131071428Y-77454819D01*
X131071428Y-77454819D02*
X131166666Y-77454819D01*
X131166666Y-77454819D02*
X131309523Y-77502438D01*
X131309523Y-77502438D02*
X131357142Y-77550057D01*
X132309523Y-78454819D02*
X131738095Y-78454819D01*
X132023809Y-78454819D02*
X132023809Y-77454819D01*
X132023809Y-77454819D02*
X131928571Y-77597676D01*
X131928571Y-77597676D02*
X131833333Y-77692914D01*
X131833333Y-77692914D02*
X131738095Y-77740533D01*
X132642857Y-77454819D02*
X133309523Y-77454819D01*
X133309523Y-77454819D02*
X132880952Y-78454819D01*
X171454819Y-120833333D02*
X172169104Y-120833333D01*
X172169104Y-120833333D02*
X172311961Y-120880952D01*
X172311961Y-120880952D02*
X172407200Y-120976190D01*
X172407200Y-120976190D02*
X172454819Y-121119047D01*
X172454819Y-121119047D02*
X172454819Y-121214285D01*
X172454819Y-119833333D02*
X172454819Y-120404761D01*
X172454819Y-120119047D02*
X171454819Y-120119047D01*
X171454819Y-120119047D02*
X171597676Y-120214285D01*
X171597676Y-120214285D02*
X171692914Y-120309523D01*
X171692914Y-120309523D02*
X171740533Y-120404761D01*
X134804819Y-97904166D02*
X134328628Y-98237499D01*
X134804819Y-98475594D02*
X133804819Y-98475594D01*
X133804819Y-98475594D02*
X133804819Y-98094642D01*
X133804819Y-98094642D02*
X133852438Y-97999404D01*
X133852438Y-97999404D02*
X133900057Y-97951785D01*
X133900057Y-97951785D02*
X133995295Y-97904166D01*
X133995295Y-97904166D02*
X134138152Y-97904166D01*
X134138152Y-97904166D02*
X134233390Y-97951785D01*
X134233390Y-97951785D02*
X134281009Y-97999404D01*
X134281009Y-97999404D02*
X134328628Y-98094642D01*
X134328628Y-98094642D02*
X134328628Y-98475594D01*
X134804819Y-97427975D02*
X134804819Y-97237499D01*
X134804819Y-97237499D02*
X134757200Y-97142261D01*
X134757200Y-97142261D02*
X134709580Y-97094642D01*
X134709580Y-97094642D02*
X134566723Y-96999404D01*
X134566723Y-96999404D02*
X134376247Y-96951785D01*
X134376247Y-96951785D02*
X133995295Y-96951785D01*
X133995295Y-96951785D02*
X133900057Y-96999404D01*
X133900057Y-96999404D02*
X133852438Y-97047023D01*
X133852438Y-97047023D02*
X133804819Y-97142261D01*
X133804819Y-97142261D02*
X133804819Y-97332737D01*
X133804819Y-97332737D02*
X133852438Y-97427975D01*
X133852438Y-97427975D02*
X133900057Y-97475594D01*
X133900057Y-97475594D02*
X133995295Y-97523213D01*
X133995295Y-97523213D02*
X134233390Y-97523213D01*
X134233390Y-97523213D02*
X134328628Y-97475594D01*
X134328628Y-97475594D02*
X134376247Y-97427975D01*
X134376247Y-97427975D02*
X134423866Y-97332737D01*
X134423866Y-97332737D02*
X134423866Y-97142261D01*
X134423866Y-97142261D02*
X134376247Y-97047023D01*
X134376247Y-97047023D02*
X134328628Y-96999404D01*
X134328628Y-96999404D02*
X134233390Y-96951785D01*
X157759580Y-87766666D02*
X157807200Y-87814285D01*
X157807200Y-87814285D02*
X157854819Y-87957142D01*
X157854819Y-87957142D02*
X157854819Y-88052380D01*
X157854819Y-88052380D02*
X157807200Y-88195237D01*
X157807200Y-88195237D02*
X157711961Y-88290475D01*
X157711961Y-88290475D02*
X157616723Y-88338094D01*
X157616723Y-88338094D02*
X157426247Y-88385713D01*
X157426247Y-88385713D02*
X157283390Y-88385713D01*
X157283390Y-88385713D02*
X157092914Y-88338094D01*
X157092914Y-88338094D02*
X156997676Y-88290475D01*
X156997676Y-88290475D02*
X156902438Y-88195237D01*
X156902438Y-88195237D02*
X156854819Y-88052380D01*
X156854819Y-88052380D02*
X156854819Y-87957142D01*
X156854819Y-87957142D02*
X156902438Y-87814285D01*
X156902438Y-87814285D02*
X156950057Y-87766666D01*
X156854819Y-87433332D02*
X156854819Y-86766666D01*
X156854819Y-86766666D02*
X157854819Y-87195237D01*
X133857142Y-65954819D02*
X133523809Y-65478628D01*
X133285714Y-65954819D02*
X133285714Y-64954819D01*
X133285714Y-64954819D02*
X133666666Y-64954819D01*
X133666666Y-64954819D02*
X133761904Y-65002438D01*
X133761904Y-65002438D02*
X133809523Y-65050057D01*
X133809523Y-65050057D02*
X133857142Y-65145295D01*
X133857142Y-65145295D02*
X133857142Y-65288152D01*
X133857142Y-65288152D02*
X133809523Y-65383390D01*
X133809523Y-65383390D02*
X133761904Y-65431009D01*
X133761904Y-65431009D02*
X133666666Y-65478628D01*
X133666666Y-65478628D02*
X133285714Y-65478628D01*
X134809523Y-65954819D02*
X134238095Y-65954819D01*
X134523809Y-65954819D02*
X134523809Y-64954819D01*
X134523809Y-64954819D02*
X134428571Y-65097676D01*
X134428571Y-65097676D02*
X134333333Y-65192914D01*
X134333333Y-65192914D02*
X134238095Y-65240533D01*
X135666666Y-64954819D02*
X135476190Y-64954819D01*
X135476190Y-64954819D02*
X135380952Y-65002438D01*
X135380952Y-65002438D02*
X135333333Y-65050057D01*
X135333333Y-65050057D02*
X135238095Y-65192914D01*
X135238095Y-65192914D02*
X135190476Y-65383390D01*
X135190476Y-65383390D02*
X135190476Y-65764342D01*
X135190476Y-65764342D02*
X135238095Y-65859580D01*
X135238095Y-65859580D02*
X135285714Y-65907200D01*
X135285714Y-65907200D02*
X135380952Y-65954819D01*
X135380952Y-65954819D02*
X135571428Y-65954819D01*
X135571428Y-65954819D02*
X135666666Y-65907200D01*
X135666666Y-65907200D02*
X135714285Y-65859580D01*
X135714285Y-65859580D02*
X135761904Y-65764342D01*
X135761904Y-65764342D02*
X135761904Y-65526247D01*
X135761904Y-65526247D02*
X135714285Y-65431009D01*
X135714285Y-65431009D02*
X135666666Y-65383390D01*
X135666666Y-65383390D02*
X135571428Y-65335771D01*
X135571428Y-65335771D02*
X135380952Y-65335771D01*
X135380952Y-65335771D02*
X135285714Y-65383390D01*
X135285714Y-65383390D02*
X135238095Y-65431009D01*
X135238095Y-65431009D02*
X135190476Y-65526247D01*
X154423809Y-85178628D02*
X154423809Y-85654819D01*
X154090476Y-84654819D02*
X154423809Y-85178628D01*
X154423809Y-85178628D02*
X154757142Y-84654819D01*
X155614285Y-85654819D02*
X155042857Y-85654819D01*
X155328571Y-85654819D02*
X155328571Y-84654819D01*
X155328571Y-84654819D02*
X155233333Y-84797676D01*
X155233333Y-84797676D02*
X155138095Y-84892914D01*
X155138095Y-84892914D02*
X155042857Y-84940533D01*
X131357142Y-81359580D02*
X131309523Y-81407200D01*
X131309523Y-81407200D02*
X131166666Y-81454819D01*
X131166666Y-81454819D02*
X131071428Y-81454819D01*
X131071428Y-81454819D02*
X130928571Y-81407200D01*
X130928571Y-81407200D02*
X130833333Y-81311961D01*
X130833333Y-81311961D02*
X130785714Y-81216723D01*
X130785714Y-81216723D02*
X130738095Y-81026247D01*
X130738095Y-81026247D02*
X130738095Y-80883390D01*
X130738095Y-80883390D02*
X130785714Y-80692914D01*
X130785714Y-80692914D02*
X130833333Y-80597676D01*
X130833333Y-80597676D02*
X130928571Y-80502438D01*
X130928571Y-80502438D02*
X131071428Y-80454819D01*
X131071428Y-80454819D02*
X131166666Y-80454819D01*
X131166666Y-80454819D02*
X131309523Y-80502438D01*
X131309523Y-80502438D02*
X131357142Y-80550057D01*
X132309523Y-81454819D02*
X131738095Y-81454819D01*
X132023809Y-81454819D02*
X132023809Y-80454819D01*
X132023809Y-80454819D02*
X131928571Y-80597676D01*
X131928571Y-80597676D02*
X131833333Y-80692914D01*
X131833333Y-80692914D02*
X131738095Y-80740533D01*
X132880952Y-80883390D02*
X132785714Y-80835771D01*
X132785714Y-80835771D02*
X132738095Y-80788152D01*
X132738095Y-80788152D02*
X132690476Y-80692914D01*
X132690476Y-80692914D02*
X132690476Y-80645295D01*
X132690476Y-80645295D02*
X132738095Y-80550057D01*
X132738095Y-80550057D02*
X132785714Y-80502438D01*
X132785714Y-80502438D02*
X132880952Y-80454819D01*
X132880952Y-80454819D02*
X133071428Y-80454819D01*
X133071428Y-80454819D02*
X133166666Y-80502438D01*
X133166666Y-80502438D02*
X133214285Y-80550057D01*
X133214285Y-80550057D02*
X133261904Y-80645295D01*
X133261904Y-80645295D02*
X133261904Y-80692914D01*
X133261904Y-80692914D02*
X133214285Y-80788152D01*
X133214285Y-80788152D02*
X133166666Y-80835771D01*
X133166666Y-80835771D02*
X133071428Y-80883390D01*
X133071428Y-80883390D02*
X132880952Y-80883390D01*
X132880952Y-80883390D02*
X132785714Y-80931009D01*
X132785714Y-80931009D02*
X132738095Y-80978628D01*
X132738095Y-80978628D02*
X132690476Y-81073866D01*
X132690476Y-81073866D02*
X132690476Y-81264342D01*
X132690476Y-81264342D02*
X132738095Y-81359580D01*
X132738095Y-81359580D02*
X132785714Y-81407200D01*
X132785714Y-81407200D02*
X132880952Y-81454819D01*
X132880952Y-81454819D02*
X133071428Y-81454819D01*
X133071428Y-81454819D02*
X133166666Y-81407200D01*
X133166666Y-81407200D02*
X133214285Y-81359580D01*
X133214285Y-81359580D02*
X133261904Y-81264342D01*
X133261904Y-81264342D02*
X133261904Y-81073866D01*
X133261904Y-81073866D02*
X133214285Y-80978628D01*
X133214285Y-80978628D02*
X133166666Y-80931009D01*
X133166666Y-80931009D02*
X133071428Y-80883390D01*
X141563095Y-128106819D02*
X142134523Y-128106819D01*
X141848809Y-129106819D02*
X141848809Y-128106819D01*
X142467857Y-129106819D02*
X142467857Y-128106819D01*
X142467857Y-128106819D02*
X142848809Y-128106819D01*
X142848809Y-128106819D02*
X142944047Y-128154438D01*
X142944047Y-128154438D02*
X142991666Y-128202057D01*
X142991666Y-128202057D02*
X143039285Y-128297295D01*
X143039285Y-128297295D02*
X143039285Y-128440152D01*
X143039285Y-128440152D02*
X142991666Y-128535390D01*
X142991666Y-128535390D02*
X142944047Y-128583009D01*
X142944047Y-128583009D02*
X142848809Y-128630628D01*
X142848809Y-128630628D02*
X142467857Y-128630628D01*
X143991666Y-129106819D02*
X143420238Y-129106819D01*
X143705952Y-129106819D02*
X143705952Y-128106819D01*
X143705952Y-128106819D02*
X143610714Y-128249676D01*
X143610714Y-128249676D02*
X143515476Y-128344914D01*
X143515476Y-128344914D02*
X143420238Y-128392533D01*
X122199405Y-72104819D02*
X122199405Y-71104819D01*
X122199405Y-71104819D02*
X122437500Y-71104819D01*
X122437500Y-71104819D02*
X122580357Y-71152438D01*
X122580357Y-71152438D02*
X122675595Y-71247676D01*
X122675595Y-71247676D02*
X122723214Y-71342914D01*
X122723214Y-71342914D02*
X122770833Y-71533390D01*
X122770833Y-71533390D02*
X122770833Y-71676247D01*
X122770833Y-71676247D02*
X122723214Y-71866723D01*
X122723214Y-71866723D02*
X122675595Y-71961961D01*
X122675595Y-71961961D02*
X122580357Y-72057200D01*
X122580357Y-72057200D02*
X122437500Y-72104819D01*
X122437500Y-72104819D02*
X122199405Y-72104819D01*
X123675595Y-71104819D02*
X123199405Y-71104819D01*
X123199405Y-71104819D02*
X123151786Y-71581009D01*
X123151786Y-71581009D02*
X123199405Y-71533390D01*
X123199405Y-71533390D02*
X123294643Y-71485771D01*
X123294643Y-71485771D02*
X123532738Y-71485771D01*
X123532738Y-71485771D02*
X123627976Y-71533390D01*
X123627976Y-71533390D02*
X123675595Y-71581009D01*
X123675595Y-71581009D02*
X123723214Y-71676247D01*
X123723214Y-71676247D02*
X123723214Y-71914342D01*
X123723214Y-71914342D02*
X123675595Y-72009580D01*
X123675595Y-72009580D02*
X123627976Y-72057200D01*
X123627976Y-72057200D02*
X123532738Y-72104819D01*
X123532738Y-72104819D02*
X123294643Y-72104819D01*
X123294643Y-72104819D02*
X123199405Y-72057200D01*
X123199405Y-72057200D02*
X123151786Y-72009580D01*
X148407142Y-115512080D02*
X148359523Y-115559700D01*
X148359523Y-115559700D02*
X148216666Y-115607319D01*
X148216666Y-115607319D02*
X148121428Y-115607319D01*
X148121428Y-115607319D02*
X147978571Y-115559700D01*
X147978571Y-115559700D02*
X147883333Y-115464461D01*
X147883333Y-115464461D02*
X147835714Y-115369223D01*
X147835714Y-115369223D02*
X147788095Y-115178747D01*
X147788095Y-115178747D02*
X147788095Y-115035890D01*
X147788095Y-115035890D02*
X147835714Y-114845414D01*
X147835714Y-114845414D02*
X147883333Y-114750176D01*
X147883333Y-114750176D02*
X147978571Y-114654938D01*
X147978571Y-114654938D02*
X148121428Y-114607319D01*
X148121428Y-114607319D02*
X148216666Y-114607319D01*
X148216666Y-114607319D02*
X148359523Y-114654938D01*
X148359523Y-114654938D02*
X148407142Y-114702557D01*
X149359523Y-115607319D02*
X148788095Y-115607319D01*
X149073809Y-115607319D02*
X149073809Y-114607319D01*
X149073809Y-114607319D02*
X148978571Y-114750176D01*
X148978571Y-114750176D02*
X148883333Y-114845414D01*
X148883333Y-114845414D02*
X148788095Y-114893033D01*
X149978571Y-114607319D02*
X150073809Y-114607319D01*
X150073809Y-114607319D02*
X150169047Y-114654938D01*
X150169047Y-114654938D02*
X150216666Y-114702557D01*
X150216666Y-114702557D02*
X150264285Y-114797795D01*
X150264285Y-114797795D02*
X150311904Y-114988271D01*
X150311904Y-114988271D02*
X150311904Y-115226366D01*
X150311904Y-115226366D02*
X150264285Y-115416842D01*
X150264285Y-115416842D02*
X150216666Y-115512080D01*
X150216666Y-115512080D02*
X150169047Y-115559700D01*
X150169047Y-115559700D02*
X150073809Y-115607319D01*
X150073809Y-115607319D02*
X149978571Y-115607319D01*
X149978571Y-115607319D02*
X149883333Y-115559700D01*
X149883333Y-115559700D02*
X149835714Y-115512080D01*
X149835714Y-115512080D02*
X149788095Y-115416842D01*
X149788095Y-115416842D02*
X149740476Y-115226366D01*
X149740476Y-115226366D02*
X149740476Y-114988271D01*
X149740476Y-114988271D02*
X149788095Y-114797795D01*
X149788095Y-114797795D02*
X149835714Y-114702557D01*
X149835714Y-114702557D02*
X149883333Y-114654938D01*
X149883333Y-114654938D02*
X149978571Y-114607319D01*
X161198095Y-60806819D02*
X161769523Y-60806819D01*
X161483809Y-61806819D02*
X161483809Y-60806819D01*
X162102857Y-61806819D02*
X162102857Y-60806819D01*
X162102857Y-60806819D02*
X162483809Y-60806819D01*
X162483809Y-60806819D02*
X162579047Y-60854438D01*
X162579047Y-60854438D02*
X162626666Y-60902057D01*
X162626666Y-60902057D02*
X162674285Y-60997295D01*
X162674285Y-60997295D02*
X162674285Y-61140152D01*
X162674285Y-61140152D02*
X162626666Y-61235390D01*
X162626666Y-61235390D02*
X162579047Y-61283009D01*
X162579047Y-61283009D02*
X162483809Y-61330628D01*
X162483809Y-61330628D02*
X162102857Y-61330628D01*
X163245714Y-61235390D02*
X163150476Y-61187771D01*
X163150476Y-61187771D02*
X163102857Y-61140152D01*
X163102857Y-61140152D02*
X163055238Y-61044914D01*
X163055238Y-61044914D02*
X163055238Y-60997295D01*
X163055238Y-60997295D02*
X163102857Y-60902057D01*
X163102857Y-60902057D02*
X163150476Y-60854438D01*
X163150476Y-60854438D02*
X163245714Y-60806819D01*
X163245714Y-60806819D02*
X163436190Y-60806819D01*
X163436190Y-60806819D02*
X163531428Y-60854438D01*
X163531428Y-60854438D02*
X163579047Y-60902057D01*
X163579047Y-60902057D02*
X163626666Y-60997295D01*
X163626666Y-60997295D02*
X163626666Y-61044914D01*
X163626666Y-61044914D02*
X163579047Y-61140152D01*
X163579047Y-61140152D02*
X163531428Y-61187771D01*
X163531428Y-61187771D02*
X163436190Y-61235390D01*
X163436190Y-61235390D02*
X163245714Y-61235390D01*
X163245714Y-61235390D02*
X163150476Y-61283009D01*
X163150476Y-61283009D02*
X163102857Y-61330628D01*
X163102857Y-61330628D02*
X163055238Y-61425866D01*
X163055238Y-61425866D02*
X163055238Y-61616342D01*
X163055238Y-61616342D02*
X163102857Y-61711580D01*
X163102857Y-61711580D02*
X163150476Y-61759200D01*
X163150476Y-61759200D02*
X163245714Y-61806819D01*
X163245714Y-61806819D02*
X163436190Y-61806819D01*
X163436190Y-61806819D02*
X163531428Y-61759200D01*
X163531428Y-61759200D02*
X163579047Y-61711580D01*
X163579047Y-61711580D02*
X163626666Y-61616342D01*
X163626666Y-61616342D02*
X163626666Y-61425866D01*
X163626666Y-61425866D02*
X163579047Y-61330628D01*
X163579047Y-61330628D02*
X163531428Y-61283009D01*
X163531428Y-61283009D02*
X163436190Y-61235390D01*
X155059580Y-87766666D02*
X155107200Y-87814285D01*
X155107200Y-87814285D02*
X155154819Y-87957142D01*
X155154819Y-87957142D02*
X155154819Y-88052380D01*
X155154819Y-88052380D02*
X155107200Y-88195237D01*
X155107200Y-88195237D02*
X155011961Y-88290475D01*
X155011961Y-88290475D02*
X154916723Y-88338094D01*
X154916723Y-88338094D02*
X154726247Y-88385713D01*
X154726247Y-88385713D02*
X154583390Y-88385713D01*
X154583390Y-88385713D02*
X154392914Y-88338094D01*
X154392914Y-88338094D02*
X154297676Y-88290475D01*
X154297676Y-88290475D02*
X154202438Y-88195237D01*
X154202438Y-88195237D02*
X154154819Y-88052380D01*
X154154819Y-88052380D02*
X154154819Y-87957142D01*
X154154819Y-87957142D02*
X154202438Y-87814285D01*
X154202438Y-87814285D02*
X154250057Y-87766666D01*
X154154819Y-86909523D02*
X154154819Y-87099999D01*
X154154819Y-87099999D02*
X154202438Y-87195237D01*
X154202438Y-87195237D02*
X154250057Y-87242856D01*
X154250057Y-87242856D02*
X154392914Y-87338094D01*
X154392914Y-87338094D02*
X154583390Y-87385713D01*
X154583390Y-87385713D02*
X154964342Y-87385713D01*
X154964342Y-87385713D02*
X155059580Y-87338094D01*
X155059580Y-87338094D02*
X155107200Y-87290475D01*
X155107200Y-87290475D02*
X155154819Y-87195237D01*
X155154819Y-87195237D02*
X155154819Y-87004761D01*
X155154819Y-87004761D02*
X155107200Y-86909523D01*
X155107200Y-86909523D02*
X155059580Y-86861904D01*
X155059580Y-86861904D02*
X154964342Y-86814285D01*
X154964342Y-86814285D02*
X154726247Y-86814285D01*
X154726247Y-86814285D02*
X154631009Y-86861904D01*
X154631009Y-86861904D02*
X154583390Y-86909523D01*
X154583390Y-86909523D02*
X154535771Y-87004761D01*
X154535771Y-87004761D02*
X154535771Y-87195237D01*
X154535771Y-87195237D02*
X154583390Y-87290475D01*
X154583390Y-87290475D02*
X154631009Y-87338094D01*
X154631009Y-87338094D02*
X154726247Y-87385713D01*
X163431009Y-133833333D02*
X163431009Y-134166666D01*
X163954819Y-134166666D02*
X162954819Y-134166666D01*
X162954819Y-134166666D02*
X162954819Y-133690476D01*
X163954819Y-132785714D02*
X163954819Y-133357142D01*
X163954819Y-133071428D02*
X162954819Y-133071428D01*
X162954819Y-133071428D02*
X163097676Y-133166666D01*
X163097676Y-133166666D02*
X163192914Y-133261904D01*
X163192914Y-133261904D02*
X163240533Y-133357142D01*
X165357142Y-72859580D02*
X165309523Y-72907200D01*
X165309523Y-72907200D02*
X165166666Y-72954819D01*
X165166666Y-72954819D02*
X165071428Y-72954819D01*
X165071428Y-72954819D02*
X164928571Y-72907200D01*
X164928571Y-72907200D02*
X164833333Y-72811961D01*
X164833333Y-72811961D02*
X164785714Y-72716723D01*
X164785714Y-72716723D02*
X164738095Y-72526247D01*
X164738095Y-72526247D02*
X164738095Y-72383390D01*
X164738095Y-72383390D02*
X164785714Y-72192914D01*
X164785714Y-72192914D02*
X164833333Y-72097676D01*
X164833333Y-72097676D02*
X164928571Y-72002438D01*
X164928571Y-72002438D02*
X165071428Y-71954819D01*
X165071428Y-71954819D02*
X165166666Y-71954819D01*
X165166666Y-71954819D02*
X165309523Y-72002438D01*
X165309523Y-72002438D02*
X165357142Y-72050057D01*
X166309523Y-72954819D02*
X165738095Y-72954819D01*
X166023809Y-72954819D02*
X166023809Y-71954819D01*
X166023809Y-71954819D02*
X165928571Y-72097676D01*
X165928571Y-72097676D02*
X165833333Y-72192914D01*
X165833333Y-72192914D02*
X165738095Y-72240533D01*
X167166666Y-72288152D02*
X167166666Y-72954819D01*
X166928571Y-71907200D02*
X166690476Y-72621485D01*
X166690476Y-72621485D02*
X167309523Y-72621485D01*
X172104819Y-137800594D02*
X171104819Y-137800594D01*
X171104819Y-137800594D02*
X171104819Y-137562499D01*
X171104819Y-137562499D02*
X171152438Y-137419642D01*
X171152438Y-137419642D02*
X171247676Y-137324404D01*
X171247676Y-137324404D02*
X171342914Y-137276785D01*
X171342914Y-137276785D02*
X171533390Y-137229166D01*
X171533390Y-137229166D02*
X171676247Y-137229166D01*
X171676247Y-137229166D02*
X171866723Y-137276785D01*
X171866723Y-137276785D02*
X171961961Y-137324404D01*
X171961961Y-137324404D02*
X172057200Y-137419642D01*
X172057200Y-137419642D02*
X172104819Y-137562499D01*
X172104819Y-137562499D02*
X172104819Y-137800594D01*
X172104819Y-136276785D02*
X172104819Y-136848213D01*
X172104819Y-136562499D02*
X171104819Y-136562499D01*
X171104819Y-136562499D02*
X171247676Y-136657737D01*
X171247676Y-136657737D02*
X171342914Y-136752975D01*
X171342914Y-136752975D02*
X171390533Y-136848213D01*
X173907200Y-75083332D02*
X173954819Y-74940475D01*
X173954819Y-74940475D02*
X173954819Y-74702380D01*
X173954819Y-74702380D02*
X173907200Y-74607142D01*
X173907200Y-74607142D02*
X173859580Y-74559523D01*
X173859580Y-74559523D02*
X173764342Y-74511904D01*
X173764342Y-74511904D02*
X173669104Y-74511904D01*
X173669104Y-74511904D02*
X173573866Y-74559523D01*
X173573866Y-74559523D02*
X173526247Y-74607142D01*
X173526247Y-74607142D02*
X173478628Y-74702380D01*
X173478628Y-74702380D02*
X173431009Y-74892856D01*
X173431009Y-74892856D02*
X173383390Y-74988094D01*
X173383390Y-74988094D02*
X173335771Y-75035713D01*
X173335771Y-75035713D02*
X173240533Y-75083332D01*
X173240533Y-75083332D02*
X173145295Y-75083332D01*
X173145295Y-75083332D02*
X173050057Y-75035713D01*
X173050057Y-75035713D02*
X173002438Y-74988094D01*
X173002438Y-74988094D02*
X172954819Y-74892856D01*
X172954819Y-74892856D02*
X172954819Y-74654761D01*
X172954819Y-74654761D02*
X173002438Y-74511904D01*
X172954819Y-74178570D02*
X173954819Y-73940475D01*
X173954819Y-73940475D02*
X173240533Y-73749999D01*
X173240533Y-73749999D02*
X173954819Y-73559523D01*
X173954819Y-73559523D02*
X172954819Y-73321428D01*
X172954819Y-72464285D02*
X172954819Y-72940475D01*
X172954819Y-72940475D02*
X173431009Y-72988094D01*
X173431009Y-72988094D02*
X173383390Y-72940475D01*
X173383390Y-72940475D02*
X173335771Y-72845237D01*
X173335771Y-72845237D02*
X173335771Y-72607142D01*
X173335771Y-72607142D02*
X173383390Y-72511904D01*
X173383390Y-72511904D02*
X173431009Y-72464285D01*
X173431009Y-72464285D02*
X173526247Y-72416666D01*
X173526247Y-72416666D02*
X173764342Y-72416666D01*
X173764342Y-72416666D02*
X173859580Y-72464285D01*
X173859580Y-72464285D02*
X173907200Y-72511904D01*
X173907200Y-72511904D02*
X173954819Y-72607142D01*
X173954819Y-72607142D02*
X173954819Y-72845237D01*
X173954819Y-72845237D02*
X173907200Y-72940475D01*
X173907200Y-72940475D02*
X173859580Y-72988094D01*
X151185833Y-123909580D02*
X151138214Y-123957200D01*
X151138214Y-123957200D02*
X150995357Y-124004819D01*
X150995357Y-124004819D02*
X150900119Y-124004819D01*
X150900119Y-124004819D02*
X150757262Y-123957200D01*
X150757262Y-123957200D02*
X150662024Y-123861961D01*
X150662024Y-123861961D02*
X150614405Y-123766723D01*
X150614405Y-123766723D02*
X150566786Y-123576247D01*
X150566786Y-123576247D02*
X150566786Y-123433390D01*
X150566786Y-123433390D02*
X150614405Y-123242914D01*
X150614405Y-123242914D02*
X150662024Y-123147676D01*
X150662024Y-123147676D02*
X150757262Y-123052438D01*
X150757262Y-123052438D02*
X150900119Y-123004819D01*
X150900119Y-123004819D02*
X150995357Y-123004819D01*
X150995357Y-123004819D02*
X151138214Y-123052438D01*
X151138214Y-123052438D02*
X151185833Y-123100057D01*
X152090595Y-123004819D02*
X151614405Y-123004819D01*
X151614405Y-123004819D02*
X151566786Y-123481009D01*
X151566786Y-123481009D02*
X151614405Y-123433390D01*
X151614405Y-123433390D02*
X151709643Y-123385771D01*
X151709643Y-123385771D02*
X151947738Y-123385771D01*
X151947738Y-123385771D02*
X152042976Y-123433390D01*
X152042976Y-123433390D02*
X152090595Y-123481009D01*
X152090595Y-123481009D02*
X152138214Y-123576247D01*
X152138214Y-123576247D02*
X152138214Y-123814342D01*
X152138214Y-123814342D02*
X152090595Y-123909580D01*
X152090595Y-123909580D02*
X152042976Y-123957200D01*
X152042976Y-123957200D02*
X151947738Y-124004819D01*
X151947738Y-124004819D02*
X151709643Y-124004819D01*
X151709643Y-124004819D02*
X151614405Y-123957200D01*
X151614405Y-123957200D02*
X151566786Y-123909580D01*
X126454819Y-63642857D02*
X125978628Y-63976190D01*
X126454819Y-64214285D02*
X125454819Y-64214285D01*
X125454819Y-64214285D02*
X125454819Y-63833333D01*
X125454819Y-63833333D02*
X125502438Y-63738095D01*
X125502438Y-63738095D02*
X125550057Y-63690476D01*
X125550057Y-63690476D02*
X125645295Y-63642857D01*
X125645295Y-63642857D02*
X125788152Y-63642857D01*
X125788152Y-63642857D02*
X125883390Y-63690476D01*
X125883390Y-63690476D02*
X125931009Y-63738095D01*
X125931009Y-63738095D02*
X125978628Y-63833333D01*
X125978628Y-63833333D02*
X125978628Y-64214285D01*
X126454819Y-62690476D02*
X126454819Y-63261904D01*
X126454819Y-62976190D02*
X125454819Y-62976190D01*
X125454819Y-62976190D02*
X125597676Y-63071428D01*
X125597676Y-63071428D02*
X125692914Y-63166666D01*
X125692914Y-63166666D02*
X125740533Y-63261904D01*
X125454819Y-62357142D02*
X125454819Y-61690476D01*
X125454819Y-61690476D02*
X126454819Y-62119047D01*
X165454819Y-137800594D02*
X164454819Y-137800594D01*
X164454819Y-137800594D02*
X164454819Y-137562499D01*
X164454819Y-137562499D02*
X164502438Y-137419642D01*
X164502438Y-137419642D02*
X164597676Y-137324404D01*
X164597676Y-137324404D02*
X164692914Y-137276785D01*
X164692914Y-137276785D02*
X164883390Y-137229166D01*
X164883390Y-137229166D02*
X165026247Y-137229166D01*
X165026247Y-137229166D02*
X165216723Y-137276785D01*
X165216723Y-137276785D02*
X165311961Y-137324404D01*
X165311961Y-137324404D02*
X165407200Y-137419642D01*
X165407200Y-137419642D02*
X165454819Y-137562499D01*
X165454819Y-137562499D02*
X165454819Y-137800594D01*
X164550057Y-136848213D02*
X164502438Y-136800594D01*
X164502438Y-136800594D02*
X164454819Y-136705356D01*
X164454819Y-136705356D02*
X164454819Y-136467261D01*
X164454819Y-136467261D02*
X164502438Y-136372023D01*
X164502438Y-136372023D02*
X164550057Y-136324404D01*
X164550057Y-136324404D02*
X164645295Y-136276785D01*
X164645295Y-136276785D02*
X164740533Y-136276785D01*
X164740533Y-136276785D02*
X164883390Y-136324404D01*
X164883390Y-136324404D02*
X165454819Y-136895832D01*
X165454819Y-136895832D02*
X165454819Y-136276785D01*
X166857142Y-68359580D02*
X166809523Y-68407200D01*
X166809523Y-68407200D02*
X166666666Y-68454819D01*
X166666666Y-68454819D02*
X166571428Y-68454819D01*
X166571428Y-68454819D02*
X166428571Y-68407200D01*
X166428571Y-68407200D02*
X166333333Y-68311961D01*
X166333333Y-68311961D02*
X166285714Y-68216723D01*
X166285714Y-68216723D02*
X166238095Y-68026247D01*
X166238095Y-68026247D02*
X166238095Y-67883390D01*
X166238095Y-67883390D02*
X166285714Y-67692914D01*
X166285714Y-67692914D02*
X166333333Y-67597676D01*
X166333333Y-67597676D02*
X166428571Y-67502438D01*
X166428571Y-67502438D02*
X166571428Y-67454819D01*
X166571428Y-67454819D02*
X166666666Y-67454819D01*
X166666666Y-67454819D02*
X166809523Y-67502438D01*
X166809523Y-67502438D02*
X166857142Y-67550057D01*
X167809523Y-68454819D02*
X167238095Y-68454819D01*
X167523809Y-68454819D02*
X167523809Y-67454819D01*
X167523809Y-67454819D02*
X167428571Y-67597676D01*
X167428571Y-67597676D02*
X167333333Y-67692914D01*
X167333333Y-67692914D02*
X167238095Y-67740533D01*
X168714285Y-67454819D02*
X168238095Y-67454819D01*
X168238095Y-67454819D02*
X168190476Y-67931009D01*
X168190476Y-67931009D02*
X168238095Y-67883390D01*
X168238095Y-67883390D02*
X168333333Y-67835771D01*
X168333333Y-67835771D02*
X168571428Y-67835771D01*
X168571428Y-67835771D02*
X168666666Y-67883390D01*
X168666666Y-67883390D02*
X168714285Y-67931009D01*
X168714285Y-67931009D02*
X168761904Y-68026247D01*
X168761904Y-68026247D02*
X168761904Y-68264342D01*
X168761904Y-68264342D02*
X168714285Y-68359580D01*
X168714285Y-68359580D02*
X168666666Y-68407200D01*
X168666666Y-68407200D02*
X168571428Y-68454819D01*
X168571428Y-68454819D02*
X168333333Y-68454819D01*
X168333333Y-68454819D02*
X168238095Y-68407200D01*
X168238095Y-68407200D02*
X168190476Y-68359580D01*
X132050057Y-65095238D02*
X132002438Y-65190476D01*
X132002438Y-65190476D02*
X131907200Y-65285714D01*
X131907200Y-65285714D02*
X131764342Y-65428571D01*
X131764342Y-65428571D02*
X131716723Y-65523809D01*
X131716723Y-65523809D02*
X131716723Y-65619047D01*
X131954819Y-65571428D02*
X131907200Y-65666666D01*
X131907200Y-65666666D02*
X131811961Y-65761904D01*
X131811961Y-65761904D02*
X131621485Y-65809523D01*
X131621485Y-65809523D02*
X131288152Y-65809523D01*
X131288152Y-65809523D02*
X131097676Y-65761904D01*
X131097676Y-65761904D02*
X131002438Y-65666666D01*
X131002438Y-65666666D02*
X130954819Y-65571428D01*
X130954819Y-65571428D02*
X130954819Y-65380952D01*
X130954819Y-65380952D02*
X131002438Y-65285714D01*
X131002438Y-65285714D02*
X131097676Y-65190476D01*
X131097676Y-65190476D02*
X131288152Y-65142857D01*
X131288152Y-65142857D02*
X131621485Y-65142857D01*
X131621485Y-65142857D02*
X131811961Y-65190476D01*
X131811961Y-65190476D02*
X131907200Y-65285714D01*
X131907200Y-65285714D02*
X131954819Y-65380952D01*
X131954819Y-65380952D02*
X131954819Y-65571428D01*
X131288152Y-64285714D02*
X131954819Y-64285714D01*
X130907200Y-64523809D02*
X131621485Y-64761904D01*
X131621485Y-64761904D02*
X131621485Y-64142857D01*
X129333333Y-128859580D02*
X129285714Y-128907200D01*
X129285714Y-128907200D02*
X129142857Y-128954819D01*
X129142857Y-128954819D02*
X129047619Y-128954819D01*
X129047619Y-128954819D02*
X128904762Y-128907200D01*
X128904762Y-128907200D02*
X128809524Y-128811961D01*
X128809524Y-128811961D02*
X128761905Y-128716723D01*
X128761905Y-128716723D02*
X128714286Y-128526247D01*
X128714286Y-128526247D02*
X128714286Y-128383390D01*
X128714286Y-128383390D02*
X128761905Y-128192914D01*
X128761905Y-128192914D02*
X128809524Y-128097676D01*
X128809524Y-128097676D02*
X128904762Y-128002438D01*
X128904762Y-128002438D02*
X129047619Y-127954819D01*
X129047619Y-127954819D02*
X129142857Y-127954819D01*
X129142857Y-127954819D02*
X129285714Y-128002438D01*
X129285714Y-128002438D02*
X129333333Y-128050057D01*
X129666667Y-127954819D02*
X130285714Y-127954819D01*
X130285714Y-127954819D02*
X129952381Y-128335771D01*
X129952381Y-128335771D02*
X130095238Y-128335771D01*
X130095238Y-128335771D02*
X130190476Y-128383390D01*
X130190476Y-128383390D02*
X130238095Y-128431009D01*
X130238095Y-128431009D02*
X130285714Y-128526247D01*
X130285714Y-128526247D02*
X130285714Y-128764342D01*
X130285714Y-128764342D02*
X130238095Y-128859580D01*
X130238095Y-128859580D02*
X130190476Y-128907200D01*
X130190476Y-128907200D02*
X130095238Y-128954819D01*
X130095238Y-128954819D02*
X129809524Y-128954819D01*
X129809524Y-128954819D02*
X129714286Y-128907200D01*
X129714286Y-128907200D02*
X129666667Y-128859580D01*
X165859580Y-80142857D02*
X165907200Y-80190476D01*
X165907200Y-80190476D02*
X165954819Y-80333333D01*
X165954819Y-80333333D02*
X165954819Y-80428571D01*
X165954819Y-80428571D02*
X165907200Y-80571428D01*
X165907200Y-80571428D02*
X165811961Y-80666666D01*
X165811961Y-80666666D02*
X165716723Y-80714285D01*
X165716723Y-80714285D02*
X165526247Y-80761904D01*
X165526247Y-80761904D02*
X165383390Y-80761904D01*
X165383390Y-80761904D02*
X165192914Y-80714285D01*
X165192914Y-80714285D02*
X165097676Y-80666666D01*
X165097676Y-80666666D02*
X165002438Y-80571428D01*
X165002438Y-80571428D02*
X164954819Y-80428571D01*
X164954819Y-80428571D02*
X164954819Y-80333333D01*
X164954819Y-80333333D02*
X165002438Y-80190476D01*
X165002438Y-80190476D02*
X165050057Y-80142857D01*
X165954819Y-79190476D02*
X165954819Y-79761904D01*
X165954819Y-79476190D02*
X164954819Y-79476190D01*
X164954819Y-79476190D02*
X165097676Y-79571428D01*
X165097676Y-79571428D02*
X165192914Y-79666666D01*
X165192914Y-79666666D02*
X165240533Y-79761904D01*
X164954819Y-78333333D02*
X164954819Y-78523809D01*
X164954819Y-78523809D02*
X165002438Y-78619047D01*
X165002438Y-78619047D02*
X165050057Y-78666666D01*
X165050057Y-78666666D02*
X165192914Y-78761904D01*
X165192914Y-78761904D02*
X165383390Y-78809523D01*
X165383390Y-78809523D02*
X165764342Y-78809523D01*
X165764342Y-78809523D02*
X165859580Y-78761904D01*
X165859580Y-78761904D02*
X165907200Y-78714285D01*
X165907200Y-78714285D02*
X165954819Y-78619047D01*
X165954819Y-78619047D02*
X165954819Y-78428571D01*
X165954819Y-78428571D02*
X165907200Y-78333333D01*
X165907200Y-78333333D02*
X165859580Y-78285714D01*
X165859580Y-78285714D02*
X165764342Y-78238095D01*
X165764342Y-78238095D02*
X165526247Y-78238095D01*
X165526247Y-78238095D02*
X165431009Y-78285714D01*
X165431009Y-78285714D02*
X165383390Y-78333333D01*
X165383390Y-78333333D02*
X165335771Y-78428571D01*
X165335771Y-78428571D02*
X165335771Y-78619047D01*
X165335771Y-78619047D02*
X165383390Y-78714285D01*
X165383390Y-78714285D02*
X165431009Y-78761904D01*
X165431009Y-78761904D02*
X165526247Y-78809523D01*
X158938095Y-82754819D02*
X158938095Y-83564342D01*
X158938095Y-83564342D02*
X158985714Y-83659580D01*
X158985714Y-83659580D02*
X159033333Y-83707200D01*
X159033333Y-83707200D02*
X159128571Y-83754819D01*
X159128571Y-83754819D02*
X159319047Y-83754819D01*
X159319047Y-83754819D02*
X159414285Y-83707200D01*
X159414285Y-83707200D02*
X159461904Y-83659580D01*
X159461904Y-83659580D02*
X159509523Y-83564342D01*
X159509523Y-83564342D02*
X159509523Y-82754819D01*
X159890476Y-82754819D02*
X160557142Y-82754819D01*
X160557142Y-82754819D02*
X160128571Y-83754819D01*
X164198095Y-60806819D02*
X164769523Y-60806819D01*
X164483809Y-61806819D02*
X164483809Y-60806819D01*
X165102857Y-61806819D02*
X165102857Y-60806819D01*
X165102857Y-60806819D02*
X165483809Y-60806819D01*
X165483809Y-60806819D02*
X165579047Y-60854438D01*
X165579047Y-60854438D02*
X165626666Y-60902057D01*
X165626666Y-60902057D02*
X165674285Y-60997295D01*
X165674285Y-60997295D02*
X165674285Y-61140152D01*
X165674285Y-61140152D02*
X165626666Y-61235390D01*
X165626666Y-61235390D02*
X165579047Y-61283009D01*
X165579047Y-61283009D02*
X165483809Y-61330628D01*
X165483809Y-61330628D02*
X165102857Y-61330628D01*
X166150476Y-61806819D02*
X166340952Y-61806819D01*
X166340952Y-61806819D02*
X166436190Y-61759200D01*
X166436190Y-61759200D02*
X166483809Y-61711580D01*
X166483809Y-61711580D02*
X166579047Y-61568723D01*
X166579047Y-61568723D02*
X166626666Y-61378247D01*
X166626666Y-61378247D02*
X166626666Y-60997295D01*
X166626666Y-60997295D02*
X166579047Y-60902057D01*
X166579047Y-60902057D02*
X166531428Y-60854438D01*
X166531428Y-60854438D02*
X166436190Y-60806819D01*
X166436190Y-60806819D02*
X166245714Y-60806819D01*
X166245714Y-60806819D02*
X166150476Y-60854438D01*
X166150476Y-60854438D02*
X166102857Y-60902057D01*
X166102857Y-60902057D02*
X166055238Y-60997295D01*
X166055238Y-60997295D02*
X166055238Y-61235390D01*
X166055238Y-61235390D02*
X166102857Y-61330628D01*
X166102857Y-61330628D02*
X166150476Y-61378247D01*
X166150476Y-61378247D02*
X166245714Y-61425866D01*
X166245714Y-61425866D02*
X166436190Y-61425866D01*
X166436190Y-61425866D02*
X166531428Y-61378247D01*
X166531428Y-61378247D02*
X166579047Y-61330628D01*
X166579047Y-61330628D02*
X166626666Y-61235390D01*
X177357142Y-116454819D02*
X177023809Y-115978628D01*
X176785714Y-116454819D02*
X176785714Y-115454819D01*
X176785714Y-115454819D02*
X177166666Y-115454819D01*
X177166666Y-115454819D02*
X177261904Y-115502438D01*
X177261904Y-115502438D02*
X177309523Y-115550057D01*
X177309523Y-115550057D02*
X177357142Y-115645295D01*
X177357142Y-115645295D02*
X177357142Y-115788152D01*
X177357142Y-115788152D02*
X177309523Y-115883390D01*
X177309523Y-115883390D02*
X177261904Y-115931009D01*
X177261904Y-115931009D02*
X177166666Y-115978628D01*
X177166666Y-115978628D02*
X176785714Y-115978628D01*
X178309523Y-116454819D02*
X177738095Y-116454819D01*
X178023809Y-116454819D02*
X178023809Y-115454819D01*
X178023809Y-115454819D02*
X177928571Y-115597676D01*
X177928571Y-115597676D02*
X177833333Y-115692914D01*
X177833333Y-115692914D02*
X177738095Y-115740533D01*
X178690476Y-115550057D02*
X178738095Y-115502438D01*
X178738095Y-115502438D02*
X178833333Y-115454819D01*
X178833333Y-115454819D02*
X179071428Y-115454819D01*
X179071428Y-115454819D02*
X179166666Y-115502438D01*
X179166666Y-115502438D02*
X179214285Y-115550057D01*
X179214285Y-115550057D02*
X179261904Y-115645295D01*
X179261904Y-115645295D02*
X179261904Y-115740533D01*
X179261904Y-115740533D02*
X179214285Y-115883390D01*
X179214285Y-115883390D02*
X178642857Y-116454819D01*
X178642857Y-116454819D02*
X179261904Y-116454819D01*
X127007200Y-101733332D02*
X127054819Y-101590475D01*
X127054819Y-101590475D02*
X127054819Y-101352380D01*
X127054819Y-101352380D02*
X127007200Y-101257142D01*
X127007200Y-101257142D02*
X126959580Y-101209523D01*
X126959580Y-101209523D02*
X126864342Y-101161904D01*
X126864342Y-101161904D02*
X126769104Y-101161904D01*
X126769104Y-101161904D02*
X126673866Y-101209523D01*
X126673866Y-101209523D02*
X126626247Y-101257142D01*
X126626247Y-101257142D02*
X126578628Y-101352380D01*
X126578628Y-101352380D02*
X126531009Y-101542856D01*
X126531009Y-101542856D02*
X126483390Y-101638094D01*
X126483390Y-101638094D02*
X126435771Y-101685713D01*
X126435771Y-101685713D02*
X126340533Y-101733332D01*
X126340533Y-101733332D02*
X126245295Y-101733332D01*
X126245295Y-101733332D02*
X126150057Y-101685713D01*
X126150057Y-101685713D02*
X126102438Y-101638094D01*
X126102438Y-101638094D02*
X126054819Y-101542856D01*
X126054819Y-101542856D02*
X126054819Y-101304761D01*
X126054819Y-101304761D02*
X126102438Y-101161904D01*
X126054819Y-100828570D02*
X127054819Y-100590475D01*
X127054819Y-100590475D02*
X126340533Y-100399999D01*
X126340533Y-100399999D02*
X127054819Y-100209523D01*
X127054819Y-100209523D02*
X126054819Y-99971428D01*
X126150057Y-99638094D02*
X126102438Y-99590475D01*
X126102438Y-99590475D02*
X126054819Y-99495237D01*
X126054819Y-99495237D02*
X126054819Y-99257142D01*
X126054819Y-99257142D02*
X126102438Y-99161904D01*
X126102438Y-99161904D02*
X126150057Y-99114285D01*
X126150057Y-99114285D02*
X126245295Y-99066666D01*
X126245295Y-99066666D02*
X126340533Y-99066666D01*
X126340533Y-99066666D02*
X126483390Y-99114285D01*
X126483390Y-99114285D02*
X127054819Y-99685713D01*
X127054819Y-99685713D02*
X127054819Y-99066666D01*
X132050057Y-70095238D02*
X132002438Y-70190476D01*
X132002438Y-70190476D02*
X131907200Y-70285714D01*
X131907200Y-70285714D02*
X131764342Y-70428571D01*
X131764342Y-70428571D02*
X131716723Y-70523809D01*
X131716723Y-70523809D02*
X131716723Y-70619047D01*
X131954819Y-70571428D02*
X131907200Y-70666666D01*
X131907200Y-70666666D02*
X131811961Y-70761904D01*
X131811961Y-70761904D02*
X131621485Y-70809523D01*
X131621485Y-70809523D02*
X131288152Y-70809523D01*
X131288152Y-70809523D02*
X131097676Y-70761904D01*
X131097676Y-70761904D02*
X131002438Y-70666666D01*
X131002438Y-70666666D02*
X130954819Y-70571428D01*
X130954819Y-70571428D02*
X130954819Y-70380952D01*
X130954819Y-70380952D02*
X131002438Y-70285714D01*
X131002438Y-70285714D02*
X131097676Y-70190476D01*
X131097676Y-70190476D02*
X131288152Y-70142857D01*
X131288152Y-70142857D02*
X131621485Y-70142857D01*
X131621485Y-70142857D02*
X131811961Y-70190476D01*
X131811961Y-70190476D02*
X131907200Y-70285714D01*
X131907200Y-70285714D02*
X131954819Y-70380952D01*
X131954819Y-70380952D02*
X131954819Y-70571428D01*
X130954819Y-69809523D02*
X130954819Y-69190476D01*
X130954819Y-69190476D02*
X131335771Y-69523809D01*
X131335771Y-69523809D02*
X131335771Y-69380952D01*
X131335771Y-69380952D02*
X131383390Y-69285714D01*
X131383390Y-69285714D02*
X131431009Y-69238095D01*
X131431009Y-69238095D02*
X131526247Y-69190476D01*
X131526247Y-69190476D02*
X131764342Y-69190476D01*
X131764342Y-69190476D02*
X131859580Y-69238095D01*
X131859580Y-69238095D02*
X131907200Y-69285714D01*
X131907200Y-69285714D02*
X131954819Y-69380952D01*
X131954819Y-69380952D02*
X131954819Y-69666666D01*
X131954819Y-69666666D02*
X131907200Y-69761904D01*
X131907200Y-69761904D02*
X131859580Y-69809523D01*
X166833333Y-132804819D02*
X166500000Y-132328628D01*
X166261905Y-132804819D02*
X166261905Y-131804819D01*
X166261905Y-131804819D02*
X166642857Y-131804819D01*
X166642857Y-131804819D02*
X166738095Y-131852438D01*
X166738095Y-131852438D02*
X166785714Y-131900057D01*
X166785714Y-131900057D02*
X166833333Y-131995295D01*
X166833333Y-131995295D02*
X166833333Y-132138152D01*
X166833333Y-132138152D02*
X166785714Y-132233390D01*
X166785714Y-132233390D02*
X166738095Y-132281009D01*
X166738095Y-132281009D02*
X166642857Y-132328628D01*
X166642857Y-132328628D02*
X166261905Y-132328628D01*
X167214286Y-131900057D02*
X167261905Y-131852438D01*
X167261905Y-131852438D02*
X167357143Y-131804819D01*
X167357143Y-131804819D02*
X167595238Y-131804819D01*
X167595238Y-131804819D02*
X167690476Y-131852438D01*
X167690476Y-131852438D02*
X167738095Y-131900057D01*
X167738095Y-131900057D02*
X167785714Y-131995295D01*
X167785714Y-131995295D02*
X167785714Y-132090533D01*
X167785714Y-132090533D02*
X167738095Y-132233390D01*
X167738095Y-132233390D02*
X167166667Y-132804819D01*
X167166667Y-132804819D02*
X167785714Y-132804819D01*
X134102819Y-121261904D02*
X134102819Y-120690476D01*
X135102819Y-120976190D02*
X134102819Y-120976190D01*
X135102819Y-120357142D02*
X134102819Y-120357142D01*
X134102819Y-120357142D02*
X134102819Y-119976190D01*
X134102819Y-119976190D02*
X134150438Y-119880952D01*
X134150438Y-119880952D02*
X134198057Y-119833333D01*
X134198057Y-119833333D02*
X134293295Y-119785714D01*
X134293295Y-119785714D02*
X134436152Y-119785714D01*
X134436152Y-119785714D02*
X134531390Y-119833333D01*
X134531390Y-119833333D02*
X134579009Y-119880952D01*
X134579009Y-119880952D02*
X134626628Y-119976190D01*
X134626628Y-119976190D02*
X134626628Y-120357142D01*
X134102819Y-119452380D02*
X134102819Y-118833333D01*
X134102819Y-118833333D02*
X134483771Y-119166666D01*
X134483771Y-119166666D02*
X134483771Y-119023809D01*
X134483771Y-119023809D02*
X134531390Y-118928571D01*
X134531390Y-118928571D02*
X134579009Y-118880952D01*
X134579009Y-118880952D02*
X134674247Y-118833333D01*
X134674247Y-118833333D02*
X134912342Y-118833333D01*
X134912342Y-118833333D02*
X135007580Y-118880952D01*
X135007580Y-118880952D02*
X135055200Y-118928571D01*
X135055200Y-118928571D02*
X135102819Y-119023809D01*
X135102819Y-119023809D02*
X135102819Y-119309523D01*
X135102819Y-119309523D02*
X135055200Y-119404761D01*
X135055200Y-119404761D02*
X135007580Y-119452380D01*
X152829819Y-129924404D02*
X153639342Y-129924404D01*
X153639342Y-129924404D02*
X153734580Y-129876785D01*
X153734580Y-129876785D02*
X153782200Y-129829166D01*
X153782200Y-129829166D02*
X153829819Y-129733928D01*
X153829819Y-129733928D02*
X153829819Y-129543452D01*
X153829819Y-129543452D02*
X153782200Y-129448214D01*
X153782200Y-129448214D02*
X153734580Y-129400595D01*
X153734580Y-129400595D02*
X153639342Y-129352976D01*
X153639342Y-129352976D02*
X152829819Y-129352976D01*
X152925057Y-128924404D02*
X152877438Y-128876785D01*
X152877438Y-128876785D02*
X152829819Y-128781547D01*
X152829819Y-128781547D02*
X152829819Y-128543452D01*
X152829819Y-128543452D02*
X152877438Y-128448214D01*
X152877438Y-128448214D02*
X152925057Y-128400595D01*
X152925057Y-128400595D02*
X153020295Y-128352976D01*
X153020295Y-128352976D02*
X153115533Y-128352976D01*
X153115533Y-128352976D02*
X153258390Y-128400595D01*
X153258390Y-128400595D02*
X153829819Y-128972023D01*
X153829819Y-128972023D02*
X153829819Y-128352976D01*
X152238095Y-97704819D02*
X152238095Y-98514342D01*
X152238095Y-98514342D02*
X152285714Y-98609580D01*
X152285714Y-98609580D02*
X152333333Y-98657200D01*
X152333333Y-98657200D02*
X152428571Y-98704819D01*
X152428571Y-98704819D02*
X152619047Y-98704819D01*
X152619047Y-98704819D02*
X152714285Y-98657200D01*
X152714285Y-98657200D02*
X152761904Y-98609580D01*
X152761904Y-98609580D02*
X152809523Y-98514342D01*
X152809523Y-98514342D02*
X152809523Y-97704819D01*
X153714285Y-97704819D02*
X153523809Y-97704819D01*
X153523809Y-97704819D02*
X153428571Y-97752438D01*
X153428571Y-97752438D02*
X153380952Y-97800057D01*
X153380952Y-97800057D02*
X153285714Y-97942914D01*
X153285714Y-97942914D02*
X153238095Y-98133390D01*
X153238095Y-98133390D02*
X153238095Y-98514342D01*
X153238095Y-98514342D02*
X153285714Y-98609580D01*
X153285714Y-98609580D02*
X153333333Y-98657200D01*
X153333333Y-98657200D02*
X153428571Y-98704819D01*
X153428571Y-98704819D02*
X153619047Y-98704819D01*
X153619047Y-98704819D02*
X153714285Y-98657200D01*
X153714285Y-98657200D02*
X153761904Y-98609580D01*
X153761904Y-98609580D02*
X153809523Y-98514342D01*
X153809523Y-98514342D02*
X153809523Y-98276247D01*
X153809523Y-98276247D02*
X153761904Y-98181009D01*
X153761904Y-98181009D02*
X153714285Y-98133390D01*
X153714285Y-98133390D02*
X153619047Y-98085771D01*
X153619047Y-98085771D02*
X153428571Y-98085771D01*
X153428571Y-98085771D02*
X153333333Y-98133390D01*
X153333333Y-98133390D02*
X153285714Y-98181009D01*
X153285714Y-98181009D02*
X153238095Y-98276247D01*
D13*
%TO.C,D3*%
X121937500Y-90960000D02*
X124622500Y-90960000D01*
X124622500Y-89040000D02*
X121937500Y-89040000D01*
X124622500Y-90960000D02*
X124622500Y-89040000D01*
%TO.C,R20*%
X130360436Y-136235000D02*
X130814564Y-136235000D01*
X130360436Y-134765000D02*
X130814564Y-134765000D01*
%TO.C,R19*%
X130360436Y-138235000D02*
X130814564Y-138235000D01*
X130360436Y-136765000D02*
X130814564Y-136765000D01*
%TO.C,TP14*%
X175450000Y-96000000D02*
G75*
G02*
X173550000Y-96000000I-950000J0D01*
G01*
X173550000Y-96000000D02*
G75*
G02*
X175450000Y-96000000I950000J0D01*
G01*
%TO.C,TP13*%
X175450000Y-90500000D02*
G75*
G02*
X173550000Y-90500000I-950000J0D01*
G01*
X173550000Y-90500000D02*
G75*
G02*
X175450000Y-90500000I950000J0D01*
G01*
%TO.C,TP12*%
X178450000Y-93000000D02*
G75*
G02*
X176550000Y-93000000I-950000J0D01*
G01*
X176550000Y-93000000D02*
G75*
G02*
X178450000Y-93000000I950000J0D01*
G01*
%TO.C,D6*%
X124622500Y-67960000D02*
X124622500Y-66040000D01*
X124622500Y-66040000D02*
X121937500Y-66040000D01*
X121937500Y-67960000D02*
X124622500Y-67960000D01*
%TO.C,C12*%
X177423752Y-103525000D02*
X176901248Y-103525000D01*
X177423752Y-104995000D02*
X176901248Y-104995000D01*
%TO.C,D7*%
X121252500Y-115040000D02*
X121252500Y-116960000D01*
X121252500Y-116960000D02*
X123937500Y-116960000D01*
X123937500Y-115040000D02*
X121252500Y-115040000D01*
%TO.C,Q1*%
X127440000Y-87177500D02*
X128440000Y-87177500D01*
X127440000Y-88697500D02*
X127440000Y-87177500D01*
X127490000Y-88697500D02*
X127440000Y-88697500D01*
X129390000Y-88697500D02*
X128610000Y-88697500D01*
X129560000Y-87177500D02*
X130560000Y-87177500D01*
X130560000Y-87177500D02*
X130560000Y-88697500D01*
X130560000Y-88697500D02*
X130510000Y-88697500D01*
X128950000Y-89477500D02*
X128620000Y-89237500D01*
X128950000Y-88997500D01*
X128950000Y-89477500D01*
G36*
X128950000Y-89477500D02*
G01*
X128620000Y-89237500D01*
X128950000Y-88997500D01*
X128950000Y-89477500D01*
G37*
%TO.C,U1*%
X145265000Y-129540000D02*
X145360000Y-129540000D01*
X145265000Y-133660000D02*
X145265000Y-129540000D01*
X145360000Y-133660000D02*
X145265000Y-133660000D01*
X150290000Y-129540000D02*
X150385000Y-129540000D01*
X150385000Y-129540000D02*
X150385000Y-133660000D01*
X150385000Y-133660000D02*
X150290000Y-133660000D01*
X145355000Y-134200000D02*
X145025000Y-134440000D01*
X145025000Y-133960000D01*
X145355000Y-134200000D01*
G36*
X145355000Y-134200000D02*
G01*
X145025000Y-134440000D01*
X145025000Y-133960000D01*
X145355000Y-134200000D01*
G37*
%TO.C,TP7*%
X141950000Y-118250000D02*
G75*
G02*
X140050000Y-118250000I-950000J0D01*
G01*
X140050000Y-118250000D02*
G75*
G02*
X141950000Y-118250000I950000J0D01*
G01*
%TO.C,C13*%
X177423752Y-100515000D02*
X176901248Y-100515000D01*
X177423752Y-101985000D02*
X176901248Y-101985000D01*
%TO.C,R10*%
X135265000Y-94139564D02*
X135265000Y-93685436D01*
X136735000Y-94139564D02*
X136735000Y-93685436D01*
%TO.C,SW3*%
X120700000Y-73700000D02*
X120700000Y-75900000D01*
X120700000Y-80000000D02*
X120700000Y-82300000D01*
X125300000Y-73700000D02*
X125300000Y-82300000D01*
%TO.C,SW1*%
X120700000Y-119700000D02*
X120700000Y-121900000D01*
X120700000Y-126000000D02*
X120700000Y-128300000D01*
X125300000Y-119700000D02*
X125300000Y-128300000D01*
%TO.C,C1*%
X144613748Y-125565000D02*
X145136252Y-125565000D01*
X144613748Y-127035000D02*
X145136252Y-127035000D01*
%TO.C,TP5*%
X147950000Y-118250000D02*
G75*
G02*
X146050000Y-118250000I-950000J0D01*
G01*
X146050000Y-118250000D02*
G75*
G02*
X147950000Y-118250000I950000J0D01*
G01*
%TO.C,TP6*%
X144950000Y-118250000D02*
G75*
G02*
X143050000Y-118250000I-950000J0D01*
G01*
X143050000Y-118250000D02*
G75*
G02*
X144950000Y-118250000I950000J0D01*
G01*
%TO.C,C4*%
X156211252Y-124565000D02*
X155688748Y-124565000D01*
X156211252Y-126035000D02*
X155688748Y-126035000D01*
%TO.C,TP2*%
X173950000Y-125000000D02*
G75*
G02*
X172050000Y-125000000I-950000J0D01*
G01*
X172050000Y-125000000D02*
G75*
G02*
X173950000Y-125000000I950000J0D01*
G01*
%TO.C,R18*%
X122685436Y-112265000D02*
X123139564Y-112265000D01*
X122685436Y-113735000D02*
X123139564Y-113735000D01*
%TO.C,C8*%
X154565000Y-90811252D02*
X154565000Y-90288748D01*
X156035000Y-90811252D02*
X156035000Y-90288748D01*
%TO.C,L1*%
X126390000Y-115890000D02*
X130610000Y-115890000D01*
X130610000Y-120110000D02*
X126390000Y-120110000D01*
%TO.C,R15*%
X137814564Y-62765000D02*
X137360436Y-62765000D01*
X137814564Y-64235000D02*
X137360436Y-64235000D01*
%TO.C,Q2*%
X127440000Y-92177500D02*
X128440000Y-92177500D01*
X127440000Y-93697500D02*
X127440000Y-92177500D01*
X127490000Y-93697500D02*
X127440000Y-93697500D01*
X129390000Y-93697500D02*
X128610000Y-93697500D01*
X129560000Y-92177500D02*
X130560000Y-92177500D01*
X130560000Y-92177500D02*
X130560000Y-93697500D01*
X130560000Y-93697500D02*
X130510000Y-93697500D01*
X128950000Y-94477500D02*
X128620000Y-94237500D01*
X128950000Y-93997500D01*
X128950000Y-94477500D01*
G36*
X128950000Y-94477500D02*
G01*
X128620000Y-94237500D01*
X128950000Y-93997500D01*
X128950000Y-94477500D01*
G37*
%TO.C,C2*%
X132688748Y-116765000D02*
X133211252Y-116765000D01*
X132688748Y-118235000D02*
X133211252Y-118235000D01*
%TO.C,J4*%
X163250000Y-130100000D02*
X163250000Y-131350000D01*
X163250000Y-131350000D02*
X164500000Y-131350000D01*
X165800000Y-123450000D02*
X165800000Y-124200000D01*
X165800000Y-124200000D02*
X168750000Y-124200000D01*
X165800000Y-130300000D02*
X168750000Y-130300000D01*
X165800000Y-131050000D02*
X165800000Y-130300000D01*
X168750000Y-124200000D02*
X168750000Y-127250000D01*
X168750000Y-130300000D02*
X168750000Y-127250000D01*
X163540000Y-131060000D02*
X169510000Y-131060000D01*
X169510000Y-123440000D01*
X163540000Y-123440000D01*
X163540000Y-131060000D01*
X163550000Y-125250000D02*
X164300000Y-125250000D01*
X164300000Y-123450000D01*
X163550000Y-123450000D01*
X163550000Y-125250000D01*
X163550000Y-127750000D02*
X164300000Y-127750000D01*
X164300000Y-126750000D01*
X163550000Y-126750000D01*
X163550000Y-127750000D01*
X163550000Y-131050000D02*
X164300000Y-131050000D01*
X164300000Y-129250000D01*
X163550000Y-129250000D01*
X163550000Y-131050000D01*
%TO.C,SW4*%
X139500000Y-105750000D02*
X139500000Y-110250000D01*
X142000000Y-111500000D02*
X143500000Y-111500000D01*
X143500000Y-104500000D02*
X142000000Y-104500000D01*
X146000000Y-110250000D02*
X146000000Y-105750000D01*
%TO.C,R14*%
X125265000Y-70314564D02*
X125265000Y-69860436D01*
X126735000Y-70314564D02*
X126735000Y-69860436D01*
%TO.C,D4*%
X124622500Y-93960000D02*
X124622500Y-92040000D01*
X124622500Y-92040000D02*
X121937500Y-92040000D01*
X121937500Y-93960000D02*
X124622500Y-93960000D01*
%TO.C,J2*%
X139840000Y-64380000D02*
X139840000Y-63000000D01*
X141220000Y-64380000D02*
X139840000Y-64380000D01*
X142490000Y-61620000D02*
X160380000Y-61620000D01*
X142490000Y-64380000D02*
X142490000Y-61620000D01*
X142490000Y-64380000D02*
X160380000Y-64380000D01*
X160380000Y-64380000D02*
X160380000Y-61620000D01*
%TO.C,R8*%
X125265000Y-93314564D02*
X125265000Y-92860436D01*
X126735000Y-93314564D02*
X126735000Y-92860436D01*
%TO.C,TP11*%
X172410000Y-63000000D02*
G75*
G02*
X170510000Y-63000000I-950000J0D01*
G01*
X170510000Y-63000000D02*
G75*
G02*
X172410000Y-63000000I950000J0D01*
G01*
%TO.C,U4*%
X128440000Y-121590000D02*
X128490000Y-121590000D01*
X128440000Y-123410000D02*
X128440000Y-121590000D01*
X128490000Y-123410000D02*
X128440000Y-123410000D01*
X129610000Y-121590000D02*
X130390000Y-121590000D01*
X131510000Y-121590000D02*
X131560000Y-121590000D01*
X131560000Y-121590000D02*
X131560000Y-123410000D01*
X131560000Y-123410000D02*
X131510000Y-123410000D01*
X128490000Y-123950000D02*
X128160000Y-124190000D01*
X128160000Y-123710000D01*
X128490000Y-123950000D01*
G36*
X128490000Y-123950000D02*
G01*
X128160000Y-124190000D01*
X128160000Y-123710000D01*
X128490000Y-123950000D01*
G37*
%TO.C,TP10*%
X169410000Y-63000000D02*
G75*
G02*
X167510000Y-63000000I-950000J0D01*
G01*
X167510000Y-63000000D02*
G75*
G02*
X169410000Y-63000000I950000J0D01*
G01*
%TO.C,R3*%
X159685436Y-128265000D02*
X160139564Y-128265000D01*
X159685436Y-129735000D02*
X160139564Y-129735000D01*
%TO.C,R1*%
X170685436Y-133265000D02*
X171139564Y-133265000D01*
X170685436Y-134735000D02*
X171139564Y-134735000D01*
%TO.C,R13*%
X162725000Y-73860436D02*
X162725000Y-74314564D01*
X164195000Y-73860436D02*
X164195000Y-74314564D01*
%TO.C,R11*%
X174685436Y-117265000D02*
X175139564Y-117265000D01*
X174685436Y-118735000D02*
X175139564Y-118735000D01*
%TO.C,R7*%
X125265000Y-89314564D02*
X125265000Y-88860436D01*
X126735000Y-89314564D02*
X126735000Y-88860436D01*
%TO.C,J3*%
X133330000Y-136950000D02*
X133330000Y-135250000D01*
X142670000Y-136950000D02*
X142670000Y-135250000D01*
%TO.C,C9*%
X148477500Y-103773752D02*
X148477500Y-103251248D01*
X149947500Y-103773752D02*
X149947500Y-103251248D01*
%TO.C,U3*%
X154140000Y-132852500D02*
X154315000Y-132852500D01*
X154140000Y-137472500D02*
X154140000Y-132852500D01*
X154315000Y-137472500D02*
X154140000Y-137472500D01*
X157185000Y-132852500D02*
X157360000Y-132852500D01*
X157360000Y-132852500D02*
X157360000Y-137472500D01*
X157360000Y-137472500D02*
X157185000Y-137472500D01*
X157520000Y-132532500D02*
X157190000Y-132292500D01*
X157520000Y-132052500D01*
X157520000Y-132532500D01*
G36*
X157520000Y-132532500D02*
G01*
X157190000Y-132292500D01*
X157520000Y-132052500D01*
X157520000Y-132532500D01*
G37*
%TO.C,J5*%
X133250000Y-130100000D02*
X133250000Y-131350000D01*
X133250000Y-131350000D02*
X134500000Y-131350000D01*
X135800000Y-123450000D02*
X135800000Y-124200000D01*
X135800000Y-124200000D02*
X138750000Y-124200000D01*
X135800000Y-130300000D02*
X138750000Y-130300000D01*
X135800000Y-131050000D02*
X135800000Y-130300000D01*
X138750000Y-124200000D02*
X138750000Y-127250000D01*
X138750000Y-130300000D02*
X138750000Y-127250000D01*
X133540000Y-131060000D02*
X139510000Y-131060000D01*
X139510000Y-123440000D01*
X133540000Y-123440000D01*
X133540000Y-131060000D01*
X133550000Y-125250000D02*
X134300000Y-125250000D01*
X134300000Y-123450000D01*
X133550000Y-123450000D01*
X133550000Y-125250000D01*
X133550000Y-127750000D02*
X134300000Y-127750000D01*
X134300000Y-126750000D01*
X133550000Y-126750000D01*
X133550000Y-127750000D01*
X133550000Y-131050000D02*
X134300000Y-131050000D01*
X134300000Y-129250000D01*
X133550000Y-129250000D01*
X133550000Y-131050000D01*
%TO.C,R4*%
X158265000Y-125072936D02*
X158265000Y-125527064D01*
X159735000Y-125072936D02*
X159735000Y-125527064D01*
%TO.C,R6*%
X148477500Y-107602064D02*
X148477500Y-107147936D01*
X149947500Y-107602064D02*
X149947500Y-107147936D01*
D14*
%TO.C,USB1*%
X167300000Y-87250000D02*
X170600000Y-87250000D01*
X167300000Y-88540000D02*
X167300000Y-87250000D01*
X167300000Y-93340000D02*
X167300000Y-90160000D01*
X167300000Y-96250000D02*
X167300000Y-94960000D01*
X170600000Y-87250000D02*
X170600000Y-88540000D01*
X170600000Y-90160000D02*
X170600000Y-90300000D01*
X170600000Y-90160000D02*
X170600000Y-93340000D01*
X170600000Y-94960000D02*
X170600000Y-96250000D01*
X170600000Y-96250000D02*
X167300000Y-96250000D01*
D13*
%TO.C,R5*%
X147685436Y-135765000D02*
X148139564Y-135765000D01*
X147685436Y-137235000D02*
X148139564Y-137235000D01*
%TO.C,TP4*%
X150950000Y-118250000D02*
G75*
G02*
X149050000Y-118250000I-950000J0D01*
G01*
X149050000Y-118250000D02*
G75*
G02*
X150950000Y-118250000I950000J0D01*
G01*
%TO.C,U5*%
X146428804Y-88765000D02*
X150548804Y-88765000D01*
X150548804Y-94130000D02*
X146428804Y-94130000D01*
X144778804Y-89217500D02*
X144448804Y-89457500D01*
X144448804Y-88977500D01*
X144778804Y-89217500D01*
G36*
X144778804Y-89217500D02*
G01*
X144448804Y-89457500D01*
X144448804Y-88977500D01*
X144778804Y-89217500D01*
G37*
%TO.C,C11*%
X149311252Y-109727500D02*
X148788748Y-109727500D01*
X149311252Y-111197500D02*
X148788748Y-111197500D01*
%TO.C,C17*%
X135771252Y-76265000D02*
X135248748Y-76265000D01*
X135771252Y-77735000D02*
X135248748Y-77735000D01*
%TO.C,J1*%
X152120000Y-116870000D02*
X152120000Y-119630000D01*
X170010000Y-116870000D02*
X152120000Y-116870000D01*
X170010000Y-116870000D02*
X170010000Y-119630000D01*
X170010000Y-119630000D02*
X152120000Y-119630000D01*
X171280000Y-116870000D02*
X172660000Y-116870000D01*
X172660000Y-116870000D02*
X172660000Y-118250000D01*
%TO.C,R9*%
X135265000Y-97964564D02*
X135265000Y-97510436D01*
X136735000Y-97964564D02*
X136735000Y-97510436D01*
%TO.C,C7*%
X156565000Y-90288748D02*
X156565000Y-90811252D01*
X158035000Y-90288748D02*
X158035000Y-90811252D01*
%TO.C,R16*%
X137814564Y-64765000D02*
X137360436Y-64765000D01*
X137814564Y-66235000D02*
X137360436Y-66235000D01*
%TO.C,Y1*%
X148290000Y-84040000D02*
X148290000Y-88660000D01*
X148290000Y-88660000D02*
X153810000Y-88660000D01*
%TO.C,C18*%
X135771252Y-79265000D02*
X135248748Y-79265000D01*
X135771252Y-80735000D02*
X135248748Y-80735000D01*
%TO.C,TP1*%
X143775000Y-130300000D02*
G75*
G02*
X141875000Y-130300000I-950000J0D01*
G01*
X141875000Y-130300000D02*
G75*
G02*
X143775000Y-130300000I950000J0D01*
G01*
%TO.C,D5*%
X124622500Y-70960000D02*
X124622500Y-69040000D01*
X124622500Y-69040000D02*
X121937500Y-69040000D01*
X121937500Y-70960000D02*
X124622500Y-70960000D01*
%TO.C,C10*%
X149311252Y-112737500D02*
X148788748Y-112737500D01*
X149311252Y-114207500D02*
X148788748Y-114207500D01*
%TO.C,TP8*%
X163410000Y-63000000D02*
G75*
G02*
X161510000Y-63000000I-950000J0D01*
G01*
X161510000Y-63000000D02*
G75*
G02*
X163410000Y-63000000I950000J0D01*
G01*
%TO.C,C6*%
X152565000Y-90288748D02*
X152565000Y-90811252D01*
X154035000Y-90288748D02*
X154035000Y-90811252D01*
%TO.C,F1*%
X159015000Y-134461252D02*
X159015000Y-131688748D01*
X162435000Y-134461252D02*
X162435000Y-131688748D01*
%TO.C,C14*%
X163671252Y-70275000D02*
X163148748Y-70275000D01*
X163671252Y-71745000D02*
X163148748Y-71745000D01*
%TO.C,D1*%
X169040000Y-135377500D02*
X169040000Y-138062500D01*
X170960000Y-135377500D02*
X169040000Y-135377500D01*
X170960000Y-138062500D02*
X170960000Y-135377500D01*
%TO.C,SW5*%
X166000000Y-71500000D02*
X166000000Y-76000000D01*
X168500000Y-77250000D02*
X170000000Y-77250000D01*
X170000000Y-70250000D02*
X168500000Y-70250000D01*
X172500000Y-76000000D02*
X172500000Y-71500000D01*
%TO.C,C5*%
X149032500Y-124345000D02*
X149032500Y-126255000D01*
X149032500Y-126255000D02*
X152952500Y-126255000D01*
X152952500Y-124345000D02*
X149032500Y-124345000D01*
%TO.C,R17*%
X125265000Y-66314564D02*
X125265000Y-65860436D01*
X126735000Y-66314564D02*
X126735000Y-65860436D01*
%TO.C,D2*%
X166040000Y-135377500D02*
X166040000Y-138062500D01*
X167960000Y-135377500D02*
X166040000Y-135377500D01*
X167960000Y-138062500D02*
X167960000Y-135377500D01*
%TO.C,C15*%
X163671252Y-67265000D02*
X163148748Y-67265000D01*
X163671252Y-68735000D02*
X163148748Y-68735000D01*
%TO.C,Q4*%
X127440000Y-64240000D02*
X128440000Y-64240000D01*
X127440000Y-65760000D02*
X127440000Y-64240000D01*
X127490000Y-65760000D02*
X127440000Y-65760000D01*
X129390000Y-65760000D02*
X128610000Y-65760000D01*
X129560000Y-64240000D02*
X130560000Y-64240000D01*
X130560000Y-64240000D02*
X130560000Y-65760000D01*
X130560000Y-65760000D02*
X130510000Y-65760000D01*
X128950000Y-66540000D02*
X128620000Y-66300000D01*
X128950000Y-66060000D01*
X128950000Y-66540000D01*
G36*
X128950000Y-66540000D02*
G01*
X128620000Y-66300000D01*
X128950000Y-66060000D01*
X128950000Y-66540000D01*
G37*
%TO.C,C3*%
X129688748Y-125715000D02*
X130211252Y-125715000D01*
X129688748Y-127185000D02*
X130211252Y-127185000D01*
%TO.C,C16*%
X162725000Y-77788748D02*
X162725000Y-78311252D01*
X164195000Y-77788748D02*
X164195000Y-78311252D01*
D15*
%TO.C,U7*%
X137960000Y-67287500D02*
X137960000Y-68287500D01*
X137960000Y-67287500D02*
X142960000Y-67287500D01*
X137960000Y-82287500D02*
X137960000Y-81287500D01*
X137960000Y-82287500D02*
X139960000Y-82287500D01*
X158960000Y-67287500D02*
X160960000Y-67287500D01*
X160960000Y-67287500D02*
X160960000Y-68287500D01*
X160960000Y-68287500D02*
X160960000Y-67287500D01*
X160960000Y-82287500D02*
X156960000Y-82287500D01*
X160960000Y-82287500D02*
X160960000Y-81287500D01*
D12*
X140260000Y-82987500D02*
G75*
G02*
X139660000Y-82987500I-300000J0D01*
G01*
X139660000Y-82987500D02*
G75*
G02*
X140260000Y-82987500I300000J0D01*
G01*
D13*
%TO.C,TP9*%
X166410000Y-63000000D02*
G75*
G02*
X164510000Y-63000000I-950000J0D01*
G01*
X164510000Y-63000000D02*
G75*
G02*
X166410000Y-63000000I950000J0D01*
G01*
%TO.C,R12*%
X174685436Y-115265000D02*
X175139564Y-115265000D01*
X174685436Y-116735000D02*
X175139564Y-116735000D01*
%TO.C,SW2*%
X120700000Y-96700000D02*
X120700000Y-98900000D01*
X120700000Y-103000000D02*
X120700000Y-105300000D01*
X125300000Y-96700000D02*
X125300000Y-105300000D01*
%TO.C,Q3*%
X127440000Y-69177500D02*
X128440000Y-69177500D01*
X127440000Y-70697500D02*
X127440000Y-69177500D01*
X127490000Y-70697500D02*
X127440000Y-70697500D01*
X129390000Y-70697500D02*
X128610000Y-70697500D01*
X129560000Y-69177500D02*
X130560000Y-69177500D01*
X130560000Y-69177500D02*
X130560000Y-70697500D01*
X130560000Y-70697500D02*
X130510000Y-70697500D01*
X128950000Y-71477500D02*
X128620000Y-71237500D01*
X128950000Y-70997500D01*
X128950000Y-71477500D01*
G36*
X128950000Y-71477500D02*
G01*
X128620000Y-71237500D01*
X128950000Y-70997500D01*
X128950000Y-71477500D01*
G37*
%TO.C,R2*%
X166685436Y-133265000D02*
X167139564Y-133265000D01*
X166685436Y-134735000D02*
X167139564Y-134735000D01*
%TO.C,TP3*%
X133950000Y-120000000D02*
G75*
G02*
X132050000Y-120000000I-950000J0D01*
G01*
X132050000Y-120000000D02*
G75*
G02*
X133950000Y-120000000I950000J0D01*
G01*
%TO.C,U2*%
X154215000Y-128252500D02*
X154265000Y-128252500D01*
X154215000Y-130072500D02*
X154215000Y-128252500D01*
X154265000Y-130072500D02*
X154215000Y-130072500D01*
X157285000Y-128252500D02*
X157335000Y-128252500D01*
X157335000Y-128252500D02*
X157335000Y-130072500D01*
X157335000Y-130072500D02*
X157285000Y-130072500D01*
X154265000Y-130612500D02*
X153935000Y-130852500D01*
X153935000Y-130372500D01*
X154265000Y-130612500D01*
G36*
X154265000Y-130612500D02*
G01*
X153935000Y-130852500D01*
X153935000Y-130372500D01*
X154265000Y-130612500D01*
G37*
D15*
%TO.C,U6*%
X151500000Y-98962500D02*
X151500000Y-99962500D01*
X151500000Y-98962500D02*
X155500000Y-98962500D01*
X151500000Y-112962500D02*
X151500000Y-113962500D01*
X151500000Y-113962500D02*
X151500000Y-112962500D01*
X153500000Y-113962500D02*
X151500000Y-113962500D01*
X174500000Y-98962500D02*
X172500000Y-98962500D01*
X174500000Y-98962500D02*
X174500000Y-99962500D01*
X174500000Y-113962500D02*
X169500000Y-113962500D01*
X174500000Y-113962500D02*
X174500000Y-112962500D01*
D12*
X172800000Y-98262500D02*
G75*
G02*
X172200000Y-98262500I-300000J0D01*
G01*
X172200000Y-98262500D02*
G75*
G02*
X172800000Y-98262500I300000J0D01*
G01*
%TD*%
M02*
